SplineFontDB: 3.0
FontName: AverageSans-Regular
FullName: Average Sans
FamilyName: Average Sans
Weight: Book
Copyright: Copyright (c) 2012, Eduardo Tunni (http://www.tipo.net.ar), with Reserved Font Name 'Average'
Version: 1.001
ItalicAngle: 0
UnderlinePosition: -50
UnderlineWidth: 50
Ascent: 800
Descent: 200
sfntRevision: 0x00010042
LayerCount: 2
Layer: 0 1 "Back"  1
Layer: 1 1 "Fore"  0
XUID: [1021 518 1348724330 9811054]
FSType: 0
OS2Version: 3
OS2_WeightWidthSlopeOnly: 0
OS2_UseTypoMetrics: 1
CreationTime: 1333144140
ModificationTime: 1351616938
PfmFamily: 17
TTFWeight: 400
TTFWidth: 5
LineGap: 0
VLineGap: 0
Panose: 2 0 5 3 4 0 0 2 0 3
OS2TypoAscent: 1027
OS2TypoAOffset: 0
OS2TypoDescent: -269
OS2TypoDOffset: 0
OS2TypoLinegap: 0
OS2WinAscent: 1027
OS2WinAOffset: 0
OS2WinDescent: 269
OS2WinDOffset: 0
HheadAscent: 1027
HheadAOffset: 0
HheadDescent: -269
HheadDOffset: 0
OS2SubXSize: 650
OS2SubYSize: 600
OS2SubXOff: 0
OS2SubYOff: 75
OS2SupXSize: 650
OS2SupYSize: 600
OS2SupXOff: 0
OS2SupYOff: 350
OS2StrikeYSize: 50
OS2StrikeYPos: 273
OS2Vendor: 'TIPO'
OS2CodePages: 20000093.00000000
OS2UnicodeRanges: a00000af.5000204b.00000000.00000000
Lookup: 4 0 1 "'liga' Standard Ligatures in Latin lookup 0"  {"'liga' Standard Ligatures in Latin lookup 0 subtable"  } ['liga' ('latn' <'MOL ' 'ROM ' 'dflt' > ) ]
Lookup: 1 0 0 "'locl' Localized Forms in Latin lookup 1"  {"'locl' Localized Forms in Latin lookup 1 subtable"  } ['locl' ('latn' <'MOL ' 'ROM ' > ) ]
Lookup: 258 0 0 "'kern' Horizontal Kerning in Latin lookup 0"  {"'kern' Horizontal Kerning in Latin lookup 0 per glyph data 0"  "'kern' Horizontal Kerning in Latin lookup 0 per glyph data 1"  "'kern' Horizontal Kerning in Latin lookup 0 kerning class 2"  } ['kern' ('latn' <'MOL ' 'ROM ' 'dflt' > ) ]
DEI: 91125
KernClass2: 10+ 16 "'kern' Horizontal Kerning in Latin lookup 0 kerning class 2" 
 84 A Agrave Aacute Acircumflex Atilde Adieresis Aring Amacron Abreve Aogonek Aringacute
 39 V W Wcircumflex Wgrave Wacute Wdieresis

StartChar: exclam
Encoding: 33 33 4
Width: 236
GlyphClass: 2
Flags: W
LayerCount: 2
Fore
SplineSet
118 -9 m 128,-1,1
 96 -9 96 -9 80.5 6.5 c 128,-1,2
 65 22 65 22 65 45 c 128,-1,3
 65 68 65 68 80.5 83.5 c 128,-1,4
 96 99 96 99 118 99 c 128,-1,5
 140 99 140 99 155.5 83.5 c 128,-1,6
 171 68 171 68 171 45 c 128,-1,7
 171 22 171 22 155.5 6.5 c 128,-1,0
 140 -9 140 -9 118 -9 c 128,-1,1
171 646 m 1,8,-1
 144 168 l 1,9,-1
 96 159 l 1,10,-1
 65 646 l 1,11,-1
 171 646 l 1,8,-1
EndSplineSet
EndChar

StartChar: quotedbl
Encoding: 34 34 5
Width: 274
GlyphClass: 2
Flags: W
LayerCount: 2
Fore
SplineSet
25 663 m 1,0,-1
 115 663 l 1,1,-1
 95 438 l 1,2,-1
 45 438 l 1,3,-1
 25 663 l 1,0,-1
159 663 m 1,4,-1
 249 663 l 1,5,-1
 229 438 l 1,6,-1
 179 438 l 1,7,-1
 159 663 l 1,4,-1
EndSplineSet
EndChar

StartChar: numbersign
Encoding: 35 35 6
Width: 523
GlyphClass: 2
Flags: W
LayerCount: 2
Fore
SplineSet
24 223 m 1,0,-1
 24 284 l 1,1,-1
 120 284 l 1,2,-1
 146 385 l 1,3,-1
 65 385 l 1,4,-1
 65 446 l 1,5,-1
 162 446 l 1,6,-1
 221 674 l 1,7,-1
 286 674 l 1,8,-1
 227 446 l 1,9,-1
 355 446 l 1,10,-1
 414 674 l 1,11,-1
 479 674 l 1,12,-1
 420 446 l 1,13,-1
 499 446 l 1,14,-1
 499 385 l 1,15,-1
 404 385 l 1,16,-1
 378 284 l 1,17,-1
 460 284 l 1,18,-1
 460 223 l 1,19,-1
 363 223 l 1,20,-1
 303 -9 l 1,21,-1
 238 -9 l 1,22,-1
 298 223 l 1,23,-1
 170 223 l 1,24,-1
 110 -9 l 1,25,-1
 45 -9 l 1,26,-1
 105 223 l 1,27,-1
 24 223 l 1,0,-1
211 385 m 1,28,-1
 185 284 l 1,29,-1
 313 284 l 1,30,-1
 339 385 l 1,31,-1
 211 385 l 1,28,-1
EndSplineSet
EndChar

StartChar: dollar
Encoding: 36 36 7
Width: 523
GlyphClass: 2
Flags: W
LayerCount: 2
Fore
SplineSet
468 167 m 0,0,1
 468 85 468 85 409.5 36.5 c 128,-1,2
 351 -12 351 -12 253 -12 c 2,3,-1
 237 -12 l 1,4,-1
 224 -120 l 1,5,-1
 179 -120 l 1,6,-1
 192 -8 l 1,7,8
 105 2 105 2 55 26 c 1,9,-1
 79 93 l 1,10,11
 137 67 137 67 201 60 c 1,12,-1
 230 303 l 1,13,-1
 183 329 l 2,14,15
 70 391 70 391 70 493 c 0,16,17
 70 573 70 573 126 622 c 128,-1,18
 182 671 182 671 276 673 c 1,19,-1
 289 781 l 1,20,-1
 334 781 l 1,21,-1
 320 671 l 1,22,23
 373 666 373 666 435 646 c 1,24,-1
 410 580 l 1,25,26
 347 600 347 600 312 602 c 1,27,-1
 283 369 l 1,28,-1
 355 330 l 1,29,30
 468 267 468 267 468 167 c 0,0,1
382 159 m 0,31,32
 382 220 382 220 318 255 c 2,33,-1
 272 280 l 1,34,-1
 245 58 l 1,35,36
 309 58 309 58 345.5 87.5 c 128,-1,37
 382 117 382 117 382 159 c 0,31,32
156 500 m 0,38,39
 156 440 156 440 220 405 c 1,40,-1
 241 393 l 1,41,-1
 267 601 l 1,42,43
 215 595 215 595 185.5 566 c 128,-1,44
 156 537 156 537 156 500 c 0,38,39
EndSplineSet
EndChar

StartChar: percent
Encoding: 37 37 8
Width: 795
GlyphClass: 2
Flags: W
LayerCount: 2
Fore
SplineSet
250 -10 m 1,0,-1
 497 675 l 1,1,-1
 545 675 l 1,2,-1
 298 -10 l 1,3,-1
 250 -10 l 1,0,-1
341 455 m 128,-1,5
 341 353 341 353 299.5 294.5 c 128,-1,6
 258 236 258 236 189.5 236 c 128,-1,7
 121 236 121 236 79.5 294.5 c 128,-1,8
 38 353 38 353 38 455 c 128,-1,9
 38 557 38 557 79.5 614.5 c 128,-1,10
 121 672 121 672 189.5 672 c 128,-1,11
 258 672 258 672 299.5 614.5 c 128,-1,4
 341 557 341 557 341 455 c 128,-1,5
266 455 m 128,-1,13
 266 531 266 531 246 571.5 c 128,-1,14
 226 612 226 612 189.5 612 c 128,-1,15
 153 612 153 612 133 571 c 128,-1,16
 113 530 113 530 113 454.5 c 128,-1,17
 113 379 113 379 133 338.5 c 128,-1,18
 153 298 153 298 189.5 298 c 128,-1,19
 226 298 226 298 246 338.5 c 128,-1,12
 266 379 266 379 266 455 c 128,-1,13
756 211 m 128,-1,21
 756 109 756 109 714.5 50.5 c 128,-1,22
 673 -8 673 -8 604.5 -8 c 128,-1,23
 536 -8 536 -8 494.5 50.5 c 128,-1,24
 453 109 453 109 453 211 c 128,-1,25
 453 313 453 313 494.5 370.5 c 128,-1,26
 536 428 536 428 604.5 428 c 128,-1,27
 673 428 673 428 714.5 370.5 c 128,-1,20
 756 313 756 313 756 211 c 128,-1,21
681 211 m 128,-1,29
 681 287 681 287 661 327.5 c 128,-1,30
 641 368 641 368 604.5 368 c 128,-1,31
 568 368 568 368 548 327 c 128,-1,32
 528 286 528 286 528 210.5 c 128,-1,33
 528 135 528 135 548 94.5 c 128,-1,34
 568 54 568 54 604.5 54 c 128,-1,35
 641 54 641 54 661 94.5 c 128,-1,28
 681 135 681 135 681 211 c 128,-1,29
EndSplineSet
EndChar

StartChar: ampersand
Encoding: 38 38 9
Width: 680
GlyphClass: 2
Flags: W
LayerCount: 2
Fore
SplineSet
248 -12 m 0,0,1
 161 -12 161 -12 102 37.5 c 128,-1,2
 43 87 43 87 43 180 c 0,3,4
 43 255 43 255 84.5 304 c 128,-1,5
 126 353 126 353 197 390 c 1,6,7
 139 481 139 481 139 546 c 0,8,9
 139 632 139 632 190.5 678.5 c 128,-1,10
 242 725 242 725 313.5 725 c 128,-1,11
 385 725 385 725 437.5 679.5 c 128,-1,12
 490 634 490 634 490 556 c 0,13,14
 490 477 490 477 436 432 c 0,15,16
 393 396 393 396 318 361 c 1,17,18
 380 284 380 284 474 196 c 1,19,20
 523 265 523 265 543 351 c 1,21,-1
 624 335 l 1,22,23
 598 222 598 222 534 140 c 1,24,25
 593 87 593 87 655 37 c 1,26,-1
 599 -21 l 1,27,28
 536 30 536 30 479 81 c 1,29,30
 373 -12 373 -12 248 -12 c 0,0,1
248 62 m 0,31,32
 337 62 337 62 420 136 c 1,33,34
 311 238 311 238 242 327 c 1,35,36
 189 300 189 300 160 266.5 c 128,-1,37
 131 233 131 233 131 178 c 128,-1,38
 131 123 131 123 164.5 92.5 c 128,-1,39
 198 62 198 62 248 62 c 0,31,32
227 546 m 128,-1,41
 227 496 227 496 272 425 c 1,42,43
 371 470 371 470 392 512 c 0,44,45
 402 532 402 532 402 556 c 0,46,47
 402 600 402 600 375.5 625.5 c 128,-1,48
 349 651 349 651 313.5 651 c 128,-1,49
 278 651 278 651 252.5 623.5 c 128,-1,40
 227 596 227 596 227 546 c 128,-1,41
EndSplineSet
EndChar

StartChar: quotesingle
Encoding: 39 39 10
Width: 140
GlyphClass: 2
Flags: W
LayerCount: 2
Fore
SplineSet
25 663 m 1,0,-1
 115 663 l 1,1,-1
 95 438 l 1,2,-1
 45 438 l 1,3,-1
 25 663 l 1,0,-1
EndSplineSet
EndChar

StartChar: parenleft
Encoding: 40 40 11
Width: 350
GlyphClass: 2
Flags: W
LayerCount: 2
Fore
SplineSet
152 291 m 128,-1,1
 152 66 152 66 321 -94 c 1,2,-1
 267 -148 l 1,3,4
 70 40 70 40 70 291 c 128,-1,5
 70 542 70 542 267 730 c 1,6,-1
 321 676 l 1,7,0
 152 516 152 516 152 291 c 128,-1,1
EndSplineSet
EndChar

StartChar: parenright
Encoding: 41 41 12
Width: 350
GlyphClass: 2
Flags: W
LayerCount: 2
Fore
SplineSet
198 291 m 128,-1,1
 198 516 198 516 29 676 c 1,2,-1
 83 730 l 1,3,4
 280 542 280 542 280 291 c 128,-1,5
 280 40 280 40 83 -148 c 1,6,-1
 29 -94 l 1,7,0
 198 66 198 66 198 291 c 128,-1,1
EndSplineSet
EndChar

StartChar: asterisk
Encoding: 42 42 13
Width: 462
GlyphClass: 2
Flags: W
LayerCount: 2
Fore
SplineSet
259 556 m 1,0,1
 291 570 291 570 402 623 c 1,2,-1
 432 532 l 1,3,-1
 276 503 l 1,4,5
 294 484 294 484 330.5 445.5 c 128,-1,6
 367 407 367 407 384 388 c 1,7,-1
 306 331 l 1,8,-1
 231 469 l 1,9,-1
 155 332 l 1,10,-1
 77 388 l 1,11,-1
 186 503 l 1,12,-1
 30 533 l 1,13,-1
 60 624 l 1,14,-1
 203 557 l 1,15,-1
 183 713 l 1,16,-1
 279 713 l 1,17,-1
 259 556 l 1,0,1
EndSplineSet
EndChar

StartChar: plus
Encoding: 43 43 14
Width: 523
GlyphClass: 2
Flags: W
LayerCount: 2
Fore
SplineSet
231 541 m 1,0,-1
 292 541 l 1,1,-1
 292 334 l 1,2,-1
 499 334 l 1,3,-1
 499 273 l 1,4,-1
 292 273 l 1,5,-1
 292 66 l 1,6,-1
 231 66 l 1,7,-1
 231 273 l 1,8,-1
 24 273 l 1,9,-1
 24 334 l 1,10,-1
 231 334 l 1,11,-1
 231 541 l 1,0,-1
EndSplineSet
EndChar

StartChar: comma
Encoding: 44 44 15
Width: 214
GlyphClass: 2
Flags: W
LayerCount: 2
Fore
SplineSet
68 -135 m 1,0,-1
 21 -125 l 1,1,-1
 62 79 l 1,2,-1
 158 89 l 1,3,-1
 68 -135 l 1,0,-1
EndSplineSet
EndChar

StartChar: hyphen
Encoding: 45 45 16
Width: 355
GlyphClass: 2
Flags: W
LayerCount: 2
Fore
SplineSet
320 228 m 1,0,-1
 35 228 l 1,1,-1
 35 296 l 1,2,-1
 320 296 l 1,3,-1
 320 228 l 1,0,-1
EndSplineSet
EndChar

StartChar: period
Encoding: 46 46 17
Width: 165
GlyphClass: 2
Flags: W
LayerCount: 2
Fore
SplineSet
82 -9 m 128,-1,1
 60 -9 60 -9 45 6.5 c 128,-1,2
 30 22 30 22 30 45 c 128,-1,3
 30 68 30 68 45 83 c 128,-1,4
 60 98 60 98 82 98 c 128,-1,5
 104 98 104 98 119.5 83 c 128,-1,6
 135 68 135 68 135 45 c 128,-1,7
 135 22 135 22 119.5 6.5 c 128,-1,0
 104 -9 104 -9 82 -9 c 128,-1,1
EndSplineSet
EndChar

StartChar: slash
Encoding: 47 47 18
Width: 290
GlyphClass: 2
Flags: W
LayerCount: 2
Fore
SplineSet
20 -140 m 1,0,-1
 205 701 l 1,1,-1
 270 701 l 1,2,-1
 85 -140 l 1,3,-1
 20 -140 l 1,0,-1
EndSplineSet
EndChar

StartChar: zero
Encoding: 48 48 19
Width: 587
GlyphClass: 2
Flags: W
LayerCount: 2
Fore
SplineSet
527 331 m 128,-1,1
 527 169 527 169 463.5 78.5 c 128,-1,2
 400 -12 400 -12 293.5 -12 c 128,-1,3
 187 -12 187 -12 123.5 78.5 c 128,-1,4
 60 169 60 169 60 331 c 128,-1,5
 60 493 60 493 123.5 583 c 128,-1,6
 187 673 187 673 293.5 673 c 128,-1,7
 400 673 400 673 463.5 583 c 128,-1,0
 527 493 527 493 527 331 c 128,-1,1
437 331 m 128,-1,9
 437 461 437 461 399 532 c 128,-1,10
 361 603 361 603 294 603 c 128,-1,11
 227 603 227 603 188.5 532 c 128,-1,12
 150 461 150 461 150 331 c 128,-1,13
 150 201 150 201 188.5 130 c 128,-1,14
 227 59 227 59 294 59 c 128,-1,15
 361 59 361 59 399 130 c 128,-1,8
 437 201 437 201 437 331 c 128,-1,9
EndSplineSet
EndChar

StartChar: one
Encoding: 49 49 20
Width: 369
GlyphClass: 2
Flags: W
LayerCount: 2
Fore
SplineSet
269 665 m 1,0,-1
 269 0 l 1,1,-1
 182 0 l 1,2,-1
 182 574 l 1,3,-1
 29 501 l 1,4,-1
 0 566 l 1,5,-1
 208 665 l 1,6,-1
 269 665 l 1,0,-1
EndSplineSet
EndChar

StartChar: two
Encoding: 50 50 21
Width: 520
GlyphClass: 2
Flags: W
LayerCount: 2
Fore
SplineSet
465 0 m 1,0,-1
 53 0 l 1,1,-1
 35 53 l 1,2,3
 56 73 56 73 100 114 c 128,-1,4
 144 155 144 155 163.5 173.5 c 128,-1,5
 183 192 183 192 218 226.5 c 128,-1,6
 253 261 253 261 269 280.5 c 128,-1,7
 285 300 285 300 307.5 329.5 c 128,-1,8
 330 359 330 359 340 380 c 0,9,10
 365 434 365 434 365 485 c 128,-1,11
 365 536 365 536 332 567 c 128,-1,12
 299 598 299 598 234.5 598 c 128,-1,13
 170 598 170 598 79 556 c 1,14,-1
 47 617 l 1,15,16
 143 673 143 673 241.5 673 c 128,-1,17
 340 673 340 673 397.5 625.5 c 128,-1,18
 455 578 455 578 455 492 c 0,19,20
 455 423 455 423 421 366 c 0,21,22
 401 333 401 333 387 310.5 c 128,-1,23
 373 288 373 288 336.5 249 c 128,-1,24
 300 210 300 210 284 193.5 c 128,-1,25
 268 177 268 177 219.5 130.5 c 128,-1,26
 171 84 171 84 157 70 c 1,27,-1
 465 76 l 1,28,-1
 465 0 l 1,0,-1
EndSplineSet
EndChar

StartChar: three
Encoding: 51 51 22
Width: 531
GlyphClass: 2
Flags: W
LayerCount: 2
Fore
SplineSet
321 574 m 128,-1,1
 292 598 292 598 235 598 c 128,-1,2
 178 598 178 598 103 556 c 1,3,-1
 72 617 l 1,4,5
 169 673 169 673 257.5 673 c 128,-1,6
 346 673 346 673 393 625 c 128,-1,7
 440 577 440 577 440 517 c 128,-1,8
 440 457 440 457 408 410.5 c 128,-1,9
 376 364 376 364 315 349 c 1,10,-1
 315 342 l 1,11,12
 391 320 391 320 422 279 c 128,-1,13
 453 238 453 238 453 169.5 c 128,-1,14
 453 101 453 101 396 44.5 c 128,-1,15
 339 -12 339 -12 237.5 -12 c 128,-1,16
 136 -12 136 -12 55 27 c 1,17,-1
 82 88 l 1,18,19
 145 58 145 58 214.5 58 c 128,-1,20
 284 58 284 58 323.5 97 c 128,-1,21
 363 136 363 136 363 187 c 128,-1,22
 363 238 363 238 325.5 274 c 128,-1,23
 288 310 288 310 217 310 c 2,24,-1
 130 310 l 1,25,-1
 130 376 l 1,26,-1
 210 376 l 2,27,28
 276 376 276 376 313 412.5 c 128,-1,29
 350 449 350 449 350 499.5 c 128,-1,0
 350 550 350 550 321 574 c 128,-1,1
EndSplineSet
EndChar

StartChar: four
Encoding: 52 52 23
Width: 515
GlyphClass: 2
Flags: W
LayerCount: 2
Fore
SplineSet
409 0 m 1,0,-1
 322 0 l 1,1,-1
 322 149 l 1,2,-1
 33 149 l 1,3,-1
 15 202 l 1,4,-1
 340 665 l 1,5,-1
 409 665 l 1,6,-1
 409 222 l 1,7,-1
 475 222 l 1,8,-1
 475 149 l 1,9,-1
 409 149 l 1,10,-1
 409 0 l 1,0,-1
322 222 m 1,11,-1
 322 519 l 1,12,-1
 317 519 l 1,13,-1
 114 222 l 1,14,-1
 322 222 l 1,11,-1
EndSplineSet
EndChar

StartChar: five
Encoding: 53 53 24
Width: 506
GlyphClass: 2
Flags: W
LayerCount: 2
Fore
SplineSet
181 395 m 1,0,-1
 217 395 l 2,1,2
 331 395 331 395 393.5 334.5 c 128,-1,3
 456 274 456 274 456 192.5 c 128,-1,4
 456 111 456 111 395.5 49.5 c 128,-1,5
 335 -12 335 -12 227.5 -12 c 128,-1,6
 120 -12 120 -12 55 27 c 1,7,-1
 81 87 l 1,8,9
 142 58 142 58 211.5 58 c 128,-1,10
 281 58 281 58 323.5 98 c 128,-1,11
 366 138 366 138 366 195.5 c 128,-1,12
 366 253 366 253 323 290.5 c 128,-1,13
 280 328 280 328 199 328 c 2,14,-1
 94 328 l 1,15,-1
 94 661 l 1,16,-1
 434 661 l 1,17,-1
 414 581 l 1,18,-1
 181 585 l 1,19,-1
 181 395 l 1,0,-1
EndSplineSet
EndChar

StartChar: six
Encoding: 54 54 25
Width: 552
GlyphClass: 2
Flags: W
LayerCount: 2
Fore
SplineSet
334 598 m 0,0,1
 255 598 255 598 207.5 536.5 c 128,-1,2
 160 475 160 475 150 359 c 1,3,4
 234 394 234 394 308.5 394 c 128,-1,5
 383 394 383 394 444.5 345.5 c 128,-1,6
 506 297 506 297 506 212 c 0,7,8
 506 110 506 110 445 49 c 128,-1,9
 384 -12 384 -12 286.5 -12 c 128,-1,10
 189 -12 189 -12 124.5 63.5 c 128,-1,11
 60 139 60 139 60 304 c 128,-1,12
 60 469 60 469 132.5 571 c 128,-1,13
 205 673 205 673 334 673 c 0,14,15
 405 673 405 673 483 642 c 1,16,-1
 446 572 l 1,17,18
 383 598 383 598 334 598 c 0,0,1
378 94.5 m 128,-1,20
 416 133 416 133 416 195 c 128,-1,21
 416 257 416 257 381 291.5 c 128,-1,22
 346 326 346 326 294 326 c 0,23,24
 217 326 217 326 149 285 c 1,25,26
 150 180 150 180 185.5 118 c 128,-1,27
 221 56 221 56 280.5 56 c 128,-1,19
 340 56 340 56 378 94.5 c 128,-1,20
EndSplineSet
EndChar

StartChar: seven
Encoding: 55 55 26
Width: 477
GlyphClass: 2
Flags: W
LayerCount: 2
Fore
SplineSet
458 661 m 1,0,-1
 458 631 l 1,1,-1
 190 0 l 1,2,-1
 91 0 l 1,3,-1
 350 585 l 1,4,-1
 57 580 l 1,5,-1
 37 661 l 1,6,-1
 458 661 l 1,0,-1
EndSplineSet
EndChar

StartChar: eight
Encoding: 56 56 27
Width: 567
GlyphClass: 2
Flags: W
LayerCount: 2
Fore
SplineSet
394 510 m 0,0,1
 394 554 394 554 365.5 579.5 c 128,-1,2
 337 605 337 605 284.5 605 c 128,-1,3
 232 605 232 605 203 577.5 c 128,-1,4
 174 550 174 550 174 507 c 128,-1,5
 174 464 174 464 201.5 438.5 c 128,-1,6
 229 413 229 413 306 377 c 1,7,8
 394 434 394 434 394 510 c 0,0,1
154 170 m 0,9,10
 154 115 154 115 190.5 84.5 c 128,-1,11
 227 54 227 54 285 54 c 128,-1,12
 343 54 343 54 378 84.5 c 128,-1,13
 413 115 413 115 413 166 c 128,-1,14
 413 217 413 217 383 245 c 128,-1,15
 353 273 353 273 263 315 c 1,16,17
 154 258 154 258 154 170 c 0,9,10
88 503 m 0,18,19
 88 577 88 577 142.5 625 c 128,-1,20
 197 673 197 673 285.5 673 c 128,-1,21
 374 673 374 673 427 626.5 c 128,-1,22
 480 580 480 580 480 508 c 0,23,24
 480 412 480 412 366 347 c 1,25,26
 437 313 437 313 470 274 c 128,-1,27
 503 235 503 235 503 162.5 c 128,-1,28
 503 90 503 90 443 39 c 128,-1,29
 383 -12 383 -12 281.5 -12 c 128,-1,30
 180 -12 180 -12 122 40 c 128,-1,31
 64 92 64 92 64 170 c 0,32,33
 64 276 64 276 194 348 c 1,34,35
 142 375 142 375 115 410.5 c 128,-1,36
 88 446 88 446 88 503 c 0,18,19
EndSplineSet
EndChar

StartChar: nine
Encoding: 57 57 28
Width: 551
GlyphClass: 2
Flags: W
LayerCount: 2
Fore
SplineSet
173.5 565 m 128,-1,1
 135 525 135 525 135 460.5 c 128,-1,2
 135 396 135 396 169.5 360 c 128,-1,3
 204 324 204 324 257 324 c 0,4,5
 335 324 335 324 403 367 c 1,6,7
 403 475 403 475 367.5 540 c 128,-1,8
 332 605 332 605 272 605 c 128,-1,0
 212 605 212 605 173.5 565 c 128,-1,1
427.5 597.5 m 128,-1,10
 491 522 491 522 491 358 c 128,-1,11
 491 194 491 194 416 91 c 128,-1,12
 341 -12 341 -12 213 -12 c 0,13,14
 135 -12 135 -12 50 27 c 1,15,-1
 77 88 l 1,16,17
 141 62 141 62 199 62 c 0,18,19
 284 62 284 62 339.5 119.5 c 128,-1,20
 395 177 395 177 401 291 c 1,21,22
 317 256 317 256 236.5 256 c 128,-1,23
 156 256 156 256 100.5 309.5 c 128,-1,24
 45 363 45 363 45 459.5 c 128,-1,25
 45 556 45 556 107 614.5 c 128,-1,26
 169 673 169 673 266.5 673 c 128,-1,9
 364 673 364 673 427.5 597.5 c 128,-1,10
EndSplineSet
EndChar

StartChar: colon
Encoding: 58 58 29
Width: 166
GlyphClass: 2
Flags: W
LayerCount: 2
Fore
SplineSet
83 -9 m 128,-1,1
 61 -9 61 -9 45.5 6.5 c 128,-1,2
 30 22 30 22 30 45 c 128,-1,3
 30 68 30 68 45.5 83.5 c 128,-1,4
 61 99 61 99 83 99 c 128,-1,5
 105 99 105 99 120.5 83.5 c 128,-1,6
 136 68 136 68 136 45 c 128,-1,7
 136 22 136 22 120.5 6.5 c 128,-1,0
 105 -9 105 -9 83 -9 c 128,-1,1
83 295 m 128,-1,9
 61 295 61 295 45.5 310.5 c 128,-1,10
 30 326 30 326 30 349 c 128,-1,11
 30 372 30 372 45.5 387.5 c 128,-1,12
 61 403 61 403 83 403 c 128,-1,13
 105 403 105 403 120.5 387.5 c 128,-1,14
 136 372 136 372 136 349 c 128,-1,15
 136 326 136 326 120.5 310.5 c 128,-1,8
 105 295 105 295 83 295 c 128,-1,9
EndSplineSet
EndChar

StartChar: semicolon
Encoding: 59 59 30
Width: 214
GlyphClass: 2
Flags: W
LayerCount: 2
Fore
SplineSet
116 295 m 128,-1,1
 94 295 94 295 78.5 310.5 c 128,-1,2
 63 326 63 326 63 349 c 128,-1,3
 63 372 63 372 78.5 387.5 c 128,-1,4
 94 403 94 403 116 403 c 128,-1,5
 138 403 138 403 153.5 387.5 c 128,-1,6
 169 372 169 372 169 349 c 128,-1,7
 169 326 169 326 153.5 310.5 c 128,-1,0
 138 295 138 295 116 295 c 128,-1,1
68 -135 m 1,8,-1
 21 -125 l 1,9,-1
 62 79 l 1,10,-1
 158 89 l 1,11,-1
 68 -135 l 1,8,-1
EndSplineSet
EndChar

StartChar: less
Encoding: 60 60 31
Width: 523
GlyphClass: 2
Flags: W
LayerCount: 2
Fore
SplineSet
487 56 m 1,0,-1
 37 303 l 1,1,-1
 487 550 l 1,2,-1
 487 481 l 1,3,-1
 151 303 l 1,4,-1
 487 125 l 1,5,-1
 487 56 l 1,0,-1
EndSplineSet
EndChar

StartChar: equal
Encoding: 61 61 32
Width: 523
GlyphClass: 2
Flags: W
LayerCount: 2
Fore
SplineSet
24 354 m 1,0,-1
 24 415 l 1,1,-1
 499 415 l 1,2,-1
 499 354 l 1,3,-1
 24 354 l 1,0,-1
24 192 m 1,4,-1
 24 253 l 1,5,-1
 499 253 l 1,6,-1
 499 192 l 1,7,-1
 24 192 l 1,4,-1
EndSplineSet
EndChar

StartChar: greater
Encoding: 62 62 33
Width: 523
GlyphClass: 2
Flags: W
LayerCount: 2
Fore
SplineSet
487 303 m 1,0,-1
 37 56 l 1,1,-1
 37 125 l 1,2,-1
 373 303 l 1,3,-1
 37 481 l 1,4,-1
 37 550 l 1,5,-1
 487 303 l 1,0,-1
EndSplineSet
EndChar

StartChar: question
Encoding: 63 63 34
Width: 360
GlyphClass: 2
Flags: W
LayerCount: 2
Fore
SplineSet
97 165 m 1,0,1
 78 232 78 232 78 277 c 128,-1,2
 78 322 78 322 104.5 351.5 c 128,-1,3
 131 381 131 381 162.5 398 c 128,-1,4
 194 415 194 415 220.5 443 c 128,-1,5
 247 471 247 471 247 504.5 c 128,-1,6
 247 538 247 538 217 561.5 c 128,-1,7
 187 585 187 585 115 585 c 0,8,9
 82 585 82 585 50 581 c 1,10,-1
 58 647 l 1,11,12
 89 650 89 650 134 650 c 128,-1,13
 179 650 179 650 224.5 637 c 128,-1,14
 270 624 270 624 293 602 c 0,15,16
 335 560 335 560 335 512.5 c 128,-1,17
 335 465 335 465 315.5 433.5 c 128,-1,18
 296 402 296 402 268 382.5 c 128,-1,19
 240 363 240 363 212 346 c 0,20,21
 146 307 146 307 146 269 c 128,-1,22
 146 231 146 231 163 170 c 1,23,24
 99 165 99 165 97 165 c 1,0,1
138 -9 m 128,-1,26
 116 -9 116 -9 100.5 6.5 c 128,-1,27
 85 22 85 22 85 45 c 128,-1,28
 85 68 85 68 100.5 83.5 c 128,-1,29
 116 99 116 99 138 99 c 128,-1,30
 160 99 160 99 175.5 83.5 c 128,-1,31
 191 68 191 68 191 45 c 128,-1,32
 191 22 191 22 175.5 6.5 c 128,-1,25
 160 -9 160 -9 138 -9 c 128,-1,26
EndSplineSet
EndChar

StartChar: at
Encoding: 64 64 35
Width: 809
GlyphClass: 2
Flags: W
LayerCount: 2
Fore
SplineSet
647 250.5 m 128,-1,1
 684 311 684 311 684 383.5 c 128,-1,2
 684 456 684 456 626 512 c 128,-1,3
 568 568 568 568 460 568 c 0,4,5
 388 568 388 568 328.5 541.5 c 128,-1,6
 269 515 269 515 232 472 c 0,7,8
 153 382 153 382 153 261.5 c 128,-1,9
 153 141 153 141 225.5 71.5 c 128,-1,10
 298 2 298 2 407.5 2 c 128,-1,11
 517 2 517 2 625 90 c 1,12,-1
 668 35 l 1,13,14
 609 -12 609 -12 536 -40 c 128,-1,15
 463 -68 463 -68 385 -68 c 128,-1,16
 307 -68 307 -68 234.5 -32.5 c 128,-1,17
 162 3 162 3 113.5 81.5 c 128,-1,18
 65 160 65 160 65 270 c 0,19,20
 65 408 65 408 166 520 c 0,21,22
 215 573 215 573 292 605.5 c 128,-1,23
 369 638 369 638 454 638 c 128,-1,24
 539 638 539 638 599.5 616 c 128,-1,25
 660 594 660 594 697 556 c 0,26,27
 772 480 772 480 772 379 c 128,-1,28
 772 278 772 278 700 202.5 c 128,-1,29
 628 127 628 127 505 127 c 1,30,-1
 481 202 l 1,31,32
 431 122 431 122 355 122 c 0,33,34
 310 122 310 122 279.5 157 c 128,-1,35
 249 192 249 192 249 255 c 0,36,37
 249 338 249 338 304 403 c 128,-1,38
 359 468 359 468 444 468 c 0,39,40
 501 468 501 468 562 436 c 1,41,-1
 541 184 l 1,42,0
 610 190 610 190 647 250.5 c 128,-1,1
448 411 m 0,43,44
 399 411 399 411 366 366.5 c 128,-1,45
 333 322 333 322 333 274 c 128,-1,46
 333 226 333 226 347 205 c 128,-1,47
 361 184 361 184 384 184 c 128,-1,48
 407 184 407 184 433.5 210.5 c 128,-1,49
 460 237 460 237 477 285 c 1,50,-1
 491 401 l 1,51,52
 470 411 470 411 448 411 c 0,43,44
EndSplineSet
EndChar

StartChar: A
Encoding: 65 65 36
Width: 623
GlyphClass: 2
Flags: W
LayerCount: 2
Fore
SplineSet
518 0 m 1,0,-1
 439 225 l 1,1,-1
 178 225 l 1,2,-1
 99 0 l 1,3,-1
 10 0 l 1,4,-1
 260 691 l 1,5,-1
 363 691 l 1,6,-1
 613 0 l 1,7,-1
 518 0 l 1,0,-1
414 298 m 1,8,-1
 327 547 l 1,9,-1
 311 603 l 1,10,-1
 307 603 l 1,11,-1
 291 547 l 1,12,-1
 204 298 l 1,13,-1
 414 298 l 1,8,-1
EndSplineSet
EndChar

StartChar: B
Encoding: 66 66 37
Width: 553
GlyphClass: 2
Flags: W
LayerCount: 2
Fore
SplineSet
75 0 m 1,0,-1
 75 691 l 1,1,-1
 249 691 l 2,2,3
 360 691 360 691 426 645 c 128,-1,4
 492 599 492 599 492 510 c 0,5,6
 492 409 492 409 392 361 c 1,7,8
 453 341 453 341 488 299.5 c 128,-1,9
 523 258 523 258 523 199 c 0,10,11
 523 105 523 105 453.5 52.5 c 128,-1,12
 384 0 384 0 270 0 c 2,13,-1
 75 0 l 1,0,-1
269 323 m 2,14,-1
 161 323 l 1,15,-1
 161 76 l 1,16,-1
 269 76 l 2,17,18
 431 76 431 76 431 199.5 c 128,-1,19
 431 323 431 323 269 323 c 2,14,-1
161 389 m 1,20,-1
 248 389 l 2,21,22
 323 389 323 389 361.5 421.5 c 128,-1,23
 400 454 400 454 400 509 c 128,-1,24
 400 564 400 564 362.5 589.5 c 128,-1,25
 325 615 325 615 248 615 c 2,26,-1
 161 615 l 1,27,-1
 161 389 l 1,20,-1
EndSplineSet
EndChar

StartChar: C
Encoding: 67 67 38
Width: 612
GlyphClass: 2
Flags: W
LayerCount: 2
Fore
SplineSet
149 321 m 0,0,1
 149 206 149 206 209.5 134 c 128,-1,2
 270 62 270 62 373.5 62 c 128,-1,3
 477 62 477 62 576 113 c 1,4,-1
 587 37 l 1,5,6
 475 -12 475 -12 367 -12 c 128,-1,7
 259 -12 259 -12 187.5 36.5 c 128,-1,8
 116 85 116 85 83 159 c 128,-1,9
 50 233 50 233 50 321 c 0,10,11
 50 489 50 489 148 596 c 128,-1,12
 246 703 246 703 409 703 c 0,13,14
 484 703 484 703 571 676 c 1,15,-1
 547 606 l 1,16,17
 478 627 478 627 409 627 c 0,18,19
 287 627 287 627 218 545 c 128,-1,20
 149 463 149 463 149 321 c 0,0,1
EndSplineSet
EndChar

StartChar: D
Encoding: 68 68 39
Width: 693
GlyphClass: 2
Flags: W
LayerCount: 2
Fore
SplineSet
75 0 m 1,0,-1
 75 691 l 1,1,-1
 335 691 l 2,2,3
 410 691 410 691 470 664 c 128,-1,4
 530 637 530 637 567 592 c 0,5,6
 643 498 643 498 643 370 c 0,7,8
 643 208 643 208 545 104 c 128,-1,9
 447 0 447 0 284 0 c 2,10,-1
 75 0 l 1,0,-1
324 615 m 2,11,-1
 161 615 l 1,12,-1
 161 76 l 1,13,-1
 284 76 l 2,14,15
 408 76 408 76 476 154 c 128,-1,16
 544 232 544 232 544 370 c 0,17,18
 544 473 544 473 486.5 544 c 128,-1,19
 429 615 429 615 324 615 c 2,11,-1
EndSplineSet
EndChar

StartChar: E
Encoding: 69 69 40
Width: 535
GlyphClass: 2
Flags: W
LayerCount: 2
Fore
SplineSet
75 0 m 1,0,-1
 75 691 l 1,1,-1
 481 691 l 1,2,-1
 462 615 l 1,3,-1
 161 615 l 1,4,-1
 161 387 l 1,5,-1
 445 387 l 1,6,-1
 445 314 l 1,7,-1
 161 314 l 1,8,-1
 161 76 l 1,9,-1
 500 76 l 1,10,-1
 500 0 l 1,11,-1
 75 0 l 1,0,-1
EndSplineSet
EndChar

StartChar: F
Encoding: 70 70 41
Width: 494
GlyphClass: 2
Flags: W
LayerCount: 2
Fore
SplineSet
75 0 m 1,0,-1
 75 691 l 1,1,-1
 464 691 l 1,2,-1
 445 615 l 1,3,-1
 161 615 l 1,4,-1
 161 387 l 1,5,-1
 428 387 l 1,6,-1
 428 314 l 1,7,-1
 161 314 l 1,8,-1
 161 0 l 1,9,-1
 75 0 l 1,0,-1
EndSplineSet
EndChar

StartChar: G
Encoding: 71 71 42
Width: 675
GlyphClass: 2
Flags: W
LayerCount: 2
Fore
SplineSet
409 627 m 0,0,1
 287 627 287 627 218 545 c 128,-1,2
 149 463 149 463 149 321 c 0,3,4
 149 206 149 206 209.5 134 c 128,-1,5
 270 62 270 62 364.5 62 c 128,-1,6
 459 62 459 62 540 98 c 1,7,-1
 540 276 l 1,8,-1
 392 276 l 1,9,-1
 392 349 l 1,10,-1
 625 349 l 1,11,-1
 625 55 l 1,12,13
 494 -12 494 -12 358 -12 c 0,14,15
 259 -12 259 -12 187.5 36.5 c 128,-1,16
 116 85 116 85 83 159 c 128,-1,17
 50 233 50 233 50 321 c 0,18,19
 50 489 50 489 148 596 c 128,-1,20
 246 703 246 703 409 703 c 0,21,22
 489 703 489 703 587 671 c 1,23,-1
 562 601 l 1,24,25
 481 627 481 627 409 627 c 0,0,1
EndSplineSet
EndChar

StartChar: H
Encoding: 72 72 43
Width: 695
GlyphClass: 2
Flags: W
LayerCount: 2
Fore
SplineSet
534 0 m 1,0,-1
 534 314 l 1,1,-1
 161 314 l 1,2,-1
 161 0 l 1,3,-1
 75 0 l 1,4,-1
 75 691 l 1,5,-1
 161 691 l 1,6,-1
 161 387 l 1,7,-1
 534 387 l 1,8,-1
 534 691 l 1,9,-1
 620 691 l 1,10,-1
 620 0 l 1,11,-1
 534 0 l 1,0,-1
EndSplineSet
EndChar

StartChar: I
Encoding: 73 73 44
Width: 256
GlyphClass: 2
Flags: W
LayerCount: 2
Fore
SplineSet
85 0 m 1,0,-1
 85 691 l 1,1,-1
 171 691 l 1,2,-1
 171 0 l 1,3,-1
 85 0 l 1,0,-1
EndSplineSet
EndChar

StartChar: J
Encoding: 74 74 45
Width: 271
GlyphClass: 2
Flags: W
LayerCount: 2
Fore
SplineSet
186 691 m 1,0,-1
 186 -1 l 2,1,2
 186 -100 186 -100 148.5 -150.5 c 128,-1,3
 111 -201 111 -201 17 -201 c 0,4,5
 -22 -201 -22 -201 -53 -190 c 1,6,-1
 -36 -121 l 1,7,8
 -15 -129 -15 -129 18 -129 c 0,9,10
 65 -129 65 -129 82.5 -95 c 128,-1,11
 100 -61 100 -61 100 7 c 2,12,-1
 100 691 l 1,13,-1
 186 691 l 1,0,-1
EndSplineSet
EndChar

StartChar: K
Encoding: 75 75 46
Width: 571
GlyphClass: 2
Flags: W
LayerCount: 2
Fore
SplineSet
161 0 m 1,0,-1
 75 0 l 1,1,-1
 75 691 l 1,2,-1
 161 691 l 1,3,-1
 161 399 l 1,4,-1
 434 691 l 1,5,-1
 541 691 l 1,6,-1
 269 407 l 1,7,-1
 566 0 l 1,8,-1
 456 0 l 1,9,-1
 207 342 l 1,10,-1
 161 294 l 1,11,-1
 161 0 l 1,0,-1
EndSplineSet
EndChar

StartChar: L
Encoding: 76 76 47
Width: 459
GlyphClass: 2
Flags: W
LayerCount: 2
Fore
SplineSet
75 0 m 1,0,-1
 75 691 l 1,1,-1
 161 691 l 1,2,-1
 161 76 l 1,3,-1
 454 76 l 1,4,-1
 454 0 l 1,5,-1
 75 0 l 1,0,-1
EndSplineSet
EndChar

StartChar: M
Encoding: 77 77 48
Width: 886
GlyphClass: 2
Flags: W
LayerCount: 2
Fore
SplineSet
489 0 m 1,0,-1
 386 0 l 1,1,-1
 180 572 l 1,2,-1
 175 572 l 1,3,-1
 156 0 l 1,4,-1
 70 0 l 1,5,-1
 97 690 l 1,6,-1
 226 690 l 1,7,-1
 441 93 l 1,8,-1
 445 93 l 1,9,-1
 660 690 l 1,10,-1
 789 690 l 1,11,-1
 816 0 l 1,12,-1
 720 0 l 1,13,-1
 701 572 l 1,14,-1
 696 572 l 1,15,-1
 489 0 l 1,0,-1
EndSplineSet
EndChar

StartChar: N
Encoding: 78 78 49
Width: 731
GlyphClass: 2
Flags: W
LayerCount: 2
Fore
SplineSet
570 155 m 1,0,-1
 570 691 l 1,1,-1
 656 691 l 1,2,-1
 656 0 l 1,3,-1
 573 0 l 1,4,-1
 166 537 l 1,5,-1
 161 537 l 1,6,-1
 161 0 l 1,7,-1
 75 0 l 1,8,-1
 75 691 l 1,9,-1
 158 691 l 1,10,-1
 565 155 l 1,11,-1
 570 155 l 1,0,-1
EndSplineSet
EndChar

StartChar: O
Encoding: 79 79 50
Width: 759
GlyphClass: 2
Flags: W
LayerCount: 2
Fore
SplineSet
355 -12 m 0,0,1
 280 -12 280 -12 220.5 16 c 128,-1,2
 161 44 161 44 124 91 c 0,3,4
 50 187 50 187 50 321 c 0,5,6
 50 489 50 489 147 596 c 128,-1,7
 244 703 244 703 404 703 c 0,8,9
 479 703 479 703 538.5 675 c 128,-1,10
 598 647 598 647 634 600 c 0,11,12
 709 504 709 504 709 370 c 0,13,14
 709 202 709 202 612 95 c 128,-1,15
 515 -12 515 -12 355 -12 c 0,0,1
400 628 m 0,16,17
 276 628 276 628 209 547 c 128,-1,18
 142 466 142 466 142 320 c 0,19,20
 142 213 142 213 199.5 137 c 128,-1,21
 257 61 257 61 360 61 c 0,22,23
 484 61 484 61 550.5 142 c 128,-1,24
 617 223 617 223 617 369 c 0,25,26
 617 476 617 476 560 552 c 128,-1,27
 503 628 503 628 400 628 c 0,16,17
EndSplineSet
EndChar

StartChar: P
Encoding: 80 80 51
Width: 523
GlyphClass: 2
Flags: W
LayerCount: 2
Fore
SplineSet
257 267 m 2,0,-1
 161 267 l 1,1,-1
 161 0 l 1,2,-1
 75 0 l 1,3,-1
 75 691 l 1,4,-1
 257 691 l 2,5,6
 363 691 363 691 428 635 c 128,-1,7
 493 579 493 579 493 479 c 128,-1,8
 493 379 493 379 428 323 c 128,-1,9
 363 267 363 267 257 267 c 2,0,-1
161 343 m 1,10,-1
 257 343 l 2,11,12
 401 343 401 343 401 479 c 128,-1,13
 401 615 401 615 257 615 c 2,14,-1
 161 615 l 1,15,-1
 161 343 l 1,10,-1
EndSplineSet
EndChar

StartChar: Q
Encoding: 81 81 52
Width: 759
GlyphClass: 2
Flags: W
LayerCount: 2
Fore
SplineSet
50 321 m 0,0,1
 50 489 50 489 147 596 c 128,-1,2
 244 703 244 703 404 703 c 0,3,4
 479 703 479 703 538.5 675 c 128,-1,5
 598 647 598 647 634 600 c 0,6,7
 709 504 709 504 709 367 c 128,-1,8
 709 230 709 230 640 130 c 128,-1,9
 571 30 571 30 451 0 c 1,10,-1
 709 -156 l 1,11,-1
 709 -178 l 1,12,-1
 626 -217 l 1,13,-1
 348 -12 l 1,14,15
 252 -10 252 -10 182 39 c 0,16,17
 50 132 50 132 50 321 c 0,0,1
400 631 m 0,18,19
 276 631 276 631 209 548.5 c 128,-1,20
 142 466 142 466 142 319 c 0,21,22
 142 209 142 209 199.5 131.5 c 128,-1,23
 257 54 257 54 360 54 c 0,24,25
 484 54 484 54 550.5 136.5 c 128,-1,26
 617 219 617 219 617 366 c 0,27,28
 617 476 617 476 560 553.5 c 128,-1,29
 503 631 503 631 400 631 c 0,18,19
EndSplineSet
EndChar

StartChar: R
Encoding: 82 82 53
Width: 549
GlyphClass: 2
Flags: W
LayerCount: 2
Fore
SplineSet
161 281 m 1,0,-1
 161 0 l 1,1,-1
 75 0 l 1,2,-1
 75 691 l 1,3,-1
 257 691 l 2,4,5
 359 691 359 691 426 636.5 c 128,-1,6
 493 582 493 582 493 485 c 0,7,8
 493 415 493 415 456 366.5 c 128,-1,9
 419 318 419 318 356 296 c 1,10,11
 408 236 408 236 549 0 c 1,12,-1
 445 0 l 1,13,14
 306 240 306 240 269 281 c 1,15,-1
 161 281 l 1,0,-1
161 355 m 1,16,-1
 257 355 l 2,17,18
 326 355 326 355 363.5 389 c 128,-1,19
 401 423 401 423 401 485 c 128,-1,20
 401 547 401 547 363.5 581 c 128,-1,21
 326 615 326 615 257 615 c 2,22,-1
 161 615 l 1,23,-1
 161 355 l 1,16,-1
EndSplineSet
EndChar

StartChar: S
Encoding: 83 83 54
Width: 512
GlyphClass: 2
Flags: W
LayerCount: 2
Fore
SplineSet
412 605 m 1,0,1
 342 629 342 629 282 629 c 128,-1,2
 222 629 222 629 184 598 c 128,-1,3
 146 567 146 567 146 523 c 0,4,5
 146 460 146 460 213 424 c 2,6,-1
 354 346 l 2,7,8
 472 280 472 280 472 176 c 0,9,10
 472 90 472 90 411 39 c 128,-1,11
 350 -12 350 -12 239 -12 c 128,-1,12
 128 -12 128 -12 40 28 c 1,13,-1
 65 98 l 1,14,15
 147 62 147 62 226.5 62 c 128,-1,16
 306 62 306 62 344 93 c 128,-1,17
 382 124 382 124 382 168 c 0,18,19
 382 231 382 231 315 267 c 2,20,-1
 174 345 l 2,21,22
 56 411 56 411 56 515 c 0,23,24
 56 601 56 601 117 652 c 128,-1,25
 178 703 178 703 281 703 c 0,26,27
 351 703 351 703 438 674 c 1,28,-1
 412 605 l 1,0,1
EndSplineSet
EndChar

StartChar: T
Encoding: 84 84 55
Width: 492
GlyphClass: 2
Flags: W
LayerCount: 2
Fore
SplineSet
5 615 m 1,0,-1
 5 691 l 1,1,-1
 487 691 l 1,2,-1
 487 615 l 1,3,-1
 289 615 l 1,4,-1
 289 0 l 1,5,-1
 203 0 l 1,6,-1
 203 615 l 1,7,-1
 5 615 l 1,0,-1
EndSplineSet
EndChar

StartChar: U
Encoding: 85 85 56
Width: 660
GlyphClass: 2
Flags: W
LayerCount: 2
Fore
SplineSet
156 691 m 1,0,-1
 156 222 l 2,1,2
 156 146 156 146 209 99 c 0,3,4
 251 61 251 61 330 61 c 0,5,6
 439 61 439 61 482 138 c 0,7,8
 504 176 504 176 504 222 c 2,9,-1
 504 691 l 1,10,-1
 590 691 l 1,11,-1
 590 222 l 2,12,13
 590 119 590 119 522.5 53.5 c 128,-1,14
 455 -12 455 -12 330 -12 c 128,-1,15
 205 -12 205 -12 137.5 53.5 c 128,-1,16
 70 119 70 119 70 222 c 2,17,-1
 70 691 l 1,18,-1
 156 691 l 1,0,-1
EndSplineSet
EndChar

StartChar: V
Encoding: 86 86 57
Width: 585
GlyphClass: 2
Flags: W
LayerCount: 2
Fore
SplineSet
100 691 m 1,0,-1
 294 95 l 1,1,-1
 299 95 l 1,2,-1
 495 691 l 1,3,-1
 580 691 l 1,4,-1
 354 0 l 1,5,-1
 234 0 l 1,6,-1
 5 691 l 1,7,-1
 100 691 l 1,0,-1
EndSplineSet
EndChar

StartChar: W
Encoding: 87 87 58
Width: 873
GlyphClass: 2
Flags: W
LayerCount: 2
Fore
SplineSet
485 691 m 1,0,-1
 630 95 l 1,1,-1
 634 95 l 1,2,-1
 780 691 l 1,3,-1
 868 691 l 1,4,-1
 692 0 l 1,5,-1
 569 0 l 1,6,-1
 438 514 l 1,7,-1
 434 514 l 1,8,-1
 304 0 l 1,9,-1
 184 0 l 1,10,-1
 5 691 l 1,11,-1
 103 691 l 1,12,-1
 248 95 l 1,13,-1
 252 95 l 1,14,-1
 398 691 l 1,15,-1
 485 691 l 1,0,-1
EndSplineSet
EndChar

StartChar: X
Encoding: 88 88 59
Width: 669
GlyphClass: 2
Flags: W
LayerCount: 2
Fore
SplineSet
45 691 m 1,0,-1
 152 691 l 1,1,-1
 335 433 l 1,2,-1
 514 691 l 1,3,-1
 620 691 l 1,4,-1
 386 361 l 1,5,-1
 644 0 l 1,6,-1
 532 0 l 1,7,-1
 329 287 l 1,8,-1
 131 0 l 1,9,-1
 25 0 l 1,10,-1
 279 359 l 1,11,-1
 45 691 l 1,0,-1
EndSplineSet
EndChar

StartChar: Y
Encoding: 89 89 60
Width: 558
GlyphClass: 2
Flags: W
LayerCount: 2
Fore
SplineSet
318 0 m 1,0,-1
 232 0 l 1,1,-1
 232 247 l 1,2,-1
 5 691 l 1,3,-1
 100 691 l 1,4,-1
 276 342 l 1,5,-1
 281 342 l 1,6,-1
 459 691 l 1,7,-1
 553 691 l 1,8,-1
 318 247 l 1,9,-1
 318 0 l 1,0,-1
EndSplineSet
EndChar

StartChar: Z
Encoding: 90 90 61
Width: 605
GlyphClass: 2
Flags: W
LayerCount: 2
Fore
SplineSet
572 76 m 1,0,-1
 572 0 l 1,1,-1
 48 0 l 1,2,-1
 30 53 l 1,3,-1
 456 615 l 1,4,-1
 84 615 l 1,5,-1
 65 691 l 1,6,-1
 555 691 l 1,7,-1
 575 631 l 1,8,-1
 157 76 l 1,9,-1
 572 76 l 1,0,-1
EndSplineSet
EndChar

StartChar: bracketleft
Encoding: 91 91 62
Width: 350
GlyphClass: 2
Flags: W
LayerCount: 2
Fore
SplineSet
167 653 m 1,0,-1
 167 -65 l 1,1,-1
 301 -65 l 1,2,-1
 311 -130 l 1,3,-1
 85 -130 l 1,4,-1
 85 718 l 1,5,-1
 311 718 l 1,6,-1
 301 653 l 1,7,-1
 167 653 l 1,0,-1
EndSplineSet
EndChar

StartChar: backslash
Encoding: 92 92 63
Width: 290
GlyphClass: 2
Flags: W
LayerCount: 2
Fore
SplineSet
85 701 m 1,0,-1
 270 -140 l 1,1,-1
 205 -140 l 1,2,-1
 20 701 l 1,3,-1
 85 701 l 1,0,-1
EndSplineSet
EndChar

StartChar: bracketright
Encoding: 93 93 64
Width: 350
GlyphClass: 2
Flags: W
LayerCount: 2
Fore
SplineSet
183 -65 m 1,0,-1
 183 653 l 1,1,-1
 49 653 l 1,2,-1
 39 718 l 1,3,-1
 265 718 l 1,4,-1
 265 -130 l 1,5,-1
 39 -130 l 1,6,-1
 49 -65 l 1,7,-1
 183 -65 l 1,0,-1
EndSplineSet
EndChar

StartChar: asciicircum
Encoding: 94 94 65
Width: 523
GlyphClass: 2
Flags: W
LayerCount: 2
Fore
SplineSet
235 664 m 1,0,-1
 286 664 l 1,1,-1
 486 265 l 1,2,-1
 417 265 l 1,3,-1
 261 601 l 1,4,-1
 105 265 l 1,5,-1
 36 265 l 1,6,-1
 235 664 l 1,0,-1
EndSplineSet
EndChar

StartChar: underscore
Encoding: 95 95 66
Width: 462
GlyphClass: 2
Flags: W
LayerCount: 2
Fore
SplineSet
7 -16 m 1,0,-1
 455 -16 l 1,1,-1
 455 -80 l 1,2,-1
 7 -80 l 1,3,-1
 7 -16 l 1,0,-1
EndSplineSet
EndChar

StartChar: grave
Encoding: 96 96 67
Width: 285
GlyphClass: 2
Flags: W
LayerCount: 2
Fore
SplineSet
180 513 m 1,0,-1
 116 513 l 1,1,-1
 -19 643 l 1,2,-1
 53 697 l 1,3,-1
 180 513 l 1,0,-1
EndSplineSet
EndChar

StartChar: a
Encoding: 97 97 68
Width: 475
GlyphClass: 2
Flags: W
LayerCount: 2
Fore
SplineSet
322 273 m 1,0,-1
 322 317 l 2,1,2
 322 398 322 398 238 398 c 0,3,4
 172 398 172 398 100 355 c 1,5,-1
 71 415 l 1,6,7
 155 468 155 468 252 468 c 0,8,9
 320 468 320 468 363.5 433.5 c 128,-1,10
 407 399 407 399 407 327 c 2,11,-1
 407 0 l 1,12,-1
 353 0 l 1,13,-1
 328 60 l 1,14,15
 296 27 296 27 252 7.5 c 128,-1,16
 208 -12 208 -12 172 -12 c 0,17,18
 110 -12 110 -12 73 22 c 128,-1,19
 36 56 36 56 36 111 c 0,20,21
 36 273 36 273 322 273 c 1,0,-1
130.5 145.5 m 128,-1,23
 124 132 124 132 124 110.5 c 128,-1,24
 124 89 124 89 142.5 73.5 c 128,-1,25
 161 58 161 58 191 58 c 0,26,27
 254 58 254 58 322 114 c 1,28,-1
 322 214 l 1,29,30
 196 212 196 212 156 176 c 0,31,22
 137 159 137 159 130.5 145.5 c 128,-1,23
EndSplineSet
EndChar

StartChar: b
Encoding: 98 98 69
Width: 526
GlyphClass: 2
Flags: W
LayerCount: 2
Fore
SplineSet
243 56 m 0,0,1
 318 56 318 56 359 107 c 128,-1,2
 400 158 400 158 400 230 c 128,-1,3
 400 302 400 302 364 345.5 c 128,-1,4
 328 389 328 389 271.5 389 c 128,-1,5
 215 389 215 389 151 355 c 1,6,-1
 151 74 l 1,7,8
 198 56 198 56 243 56 c 0,0,1
151 718 m 1,9,-1
 151 419 l 1,10,11
 227 462 227 462 304.5 462 c 128,-1,12
 382 462 382 462 434 399.5 c 128,-1,13
 486 337 486 337 486 236 c 128,-1,14
 486 135 486 135 425.5 61.5 c 128,-1,15
 365 -12 365 -12 253 -12 c 0,16,17
 167 -12 167 -12 69 32 c 1,18,-1
 69 718 l 1,19,-1
 151 718 l 1,9,-1
EndSplineSet
EndChar

StartChar: c
Encoding: 99 99 70
Width: 412
GlyphClass: 2
Flags: W
LayerCount: 2
Fore
SplineSet
251 468 m 0,0,1
 318 468 318 468 387 438 c 1,2,-1
 362 376 l 1,3,4
 311 398 311 398 253.5 398 c 128,-1,5
 196 398 196 398 162.5 355 c 128,-1,6
 129 312 129 312 129 229 c 128,-1,7
 129 146 129 146 164 102 c 128,-1,8
 199 58 199 58 256 58 c 128,-1,9
 313 58 313 58 374 86 c 1,10,-1
 393 20 l 1,11,12
 323 -12 323 -12 251 -12 c 0,13,14
 158 -12 158 -12 99.5 55.5 c 128,-1,15
 41 123 41 123 41 229.5 c 128,-1,16
 41 336 41 336 99.5 402 c 128,-1,17
 158 468 158 468 251 468 c 0,0,1
EndSplineSet
EndChar

StartChar: d
Encoding: 100 100 71
Width: 529
GlyphClass: 2
Flags: W
LayerCount: 2
Fore
SplineSet
379 718 m 1,0,-1
 461 718 l 1,1,-1
 461 0 l 1,2,-1
 407 0 l 1,3,-1
 382 60 l 1,4,5
 307 -12 307 -12 227.5 -12 c 128,-1,6
 148 -12 148 -12 96 49.5 c 128,-1,7
 44 111 44 111 44 216 c 128,-1,8
 44 321 44 321 106 391.5 c 128,-1,9
 168 462 168 462 266 462 c 0,10,11
 319 462 319 462 379 438 c 1,12,-1
 379 718 l 1,0,-1
287 394 m 0,13,14
 212 394 212 394 171 343 c 128,-1,15
 130 292 130 292 130 219 c 128,-1,16
 130 146 130 146 164 102 c 128,-1,17
 198 58 198 58 252 58 c 0,18,19
 282 58 282 58 316.5 74.5 c 128,-1,20
 351 91 351 91 379 120 c 1,21,-1
 379 376 l 1,22,23
 332 394 332 394 287 394 c 0,13,14
EndSplineSet
EndChar

StartChar: e
Encoding: 101 101 72
Width: 473
GlyphClass: 2
Flags: W
LayerCount: 2
Fore
SplineSet
255 58 m 0,0,1
 327 58 327 58 399 101 c 1,2,-1
 428 41 l 1,3,4
 344 -12 344 -12 248.5 -12 c 128,-1,5
 153 -12 153 -12 97 48.5 c 128,-1,6
 41 109 41 109 41 223 c 128,-1,7
 41 337 41 337 99 402.5 c 128,-1,8
 157 468 157 468 253 468 c 0,9,10
 340 468 340 468 390 414 c 0,11,12
 411 392 411 392 425.5 350 c 128,-1,13
 440 308 440 308 440 251 c 1,14,-1
 409 216 l 1,15,-1
 126 216 l 1,16,17
 129 58 129 58 255 58 c 0,0,1
327 369 m 128,-1,19
 298 403 298 403 250.5 403 c 128,-1,20
 203 403 203 403 170 369.5 c 128,-1,21
 137 336 137 336 130 279 c 1,22,-1
 356 279 l 1,23,18
 356 335 356 335 327 369 c 128,-1,19
EndSplineSet
EndChar

StartChar: f
Encoding: 102 102 73
Width: 310
GlyphClass: 2
Flags: W
LayerCount: 2
Fore
SplineSet
95 456 m 1,0,-1
 95 577 l 2,1,2
 95 651 95 651 130 690.5 c 128,-1,3
 165 730 165 730 221.5 730 c 128,-1,4
 278 730 278 730 342 700 c 1,5,-1
 313 640 l 1,6,7
 269 658 269 658 237 658 c 0,8,9
 177 658 177 658 177 578 c 2,10,-1
 177 456 l 1,11,-1
 301 456 l 1,12,-1
 301 393 l 1,13,-1
 177 393 l 1,14,-1
 177 0 l 1,15,-1
 95 0 l 1,16,-1
 95 393 l 1,17,-1
 27 393 l 1,18,-1
 27 456 l 1,19,-1
 95 456 l 1,0,-1
EndSplineSet
EndChar

StartChar: g
Encoding: 103 103 74
Width: 469
GlyphClass: 2
Flags: W
LayerCount: 2
Fore
SplineSet
221 129 m 0,0,1
 198 129 198 129 177 132 c 1,2,3
 152 84 152 84 152 69 c 0,4,5
 152 62 152 62 170 57 c 2,6,-1
 292 30 l 2,7,8
 377 11 377 11 413 -14.5 c 128,-1,9
 449 -40 449 -40 449 -90 c 128,-1,10
 449 -140 449 -140 414 -174 c 0,11,12
 346 -242 346 -242 214 -242 c 0,13,14
 133 -242 133 -242 74 -212 c 128,-1,15
 15 -182 15 -182 15 -126 c 128,-1,16
 15 -70 15 -70 95 3 c 1,17,18
 65 14 65 14 65 36 c 128,-1,19
 65 58 65 58 124 145 c 1,20,21
 38 182 38 182 38 300 c 0,22,23
 38 366 38 366 84.5 415.5 c 128,-1,24
 131 465 131 465 221 465 c 0,25,26
 273 465 273 465 312 450 c 1,27,-1
 452 466 l 1,28,-1
 452 399 l 1,29,-1
 377 399 l 1,30,31
 403 357 403 357 403 292.5 c 128,-1,32
 403 228 403 228 357 178.5 c 128,-1,33
 311 129 311 129 221 129 c 0,0,1
323 285 m 0,34,35
 323 409 323 409 222 409 c 0,36,37
 182 409 182 409 157 388 c 0,38,39
 118 354 118 354 118 303.5 c 128,-1,40
 118 253 118 253 142 219 c 128,-1,41
 166 185 166 185 219 185 c 128,-1,42
 272 185 272 185 297.5 217.5 c 128,-1,43
 323 250 323 250 323 285 c 0,34,35
95 -113 m 0,44,45
 95 -145 95 -145 130 -162 c 128,-1,46
 165 -179 165 -179 221 -179 c 128,-1,47
 277 -179 277 -179 325 -156.5 c 128,-1,48
 373 -134 373 -134 373 -95 c 0,49,50
 373 -75 373 -75 350 -62.5 c 128,-1,51
 327 -50 327 -50 270 -38 c 2,52,-1
 153 -12 l 1,53,54
 95 -70 95 -70 95 -113 c 0,44,45
EndSplineSet
EndChar

StartChar: h
Encoding: 104 104 75
Width: 528
GlyphClass: 2
Flags: W
LayerCount: 2
Fore
SplineSet
153 718 m 1,0,-1
 153 409 l 1,1,2
 228 468 228 468 314 468 c 0,3,4
 381 468 381 468 420.5 434.5 c 128,-1,5
 460 401 460 401 460 347 c 2,6,-1
 460 0 l 1,7,-1
 375 0 l 1,8,-1
 375 341 l 2,9,10
 375 367 375 367 354.5 381 c 128,-1,11
 334 395 334 395 300 395 c 0,12,13
 229 395 229 395 153 344 c 1,14,-1
 153 0 l 1,15,-1
 68 0 l 1,16,-1
 68 718 l 1,17,-1
 153 718 l 1,0,-1
EndSplineSet
EndChar

StartChar: i
Encoding: 105 105 76
Width: 245
GlyphClass: 2
Flags: W
LayerCount: 2
Fore
SplineSet
122 547 m 128,-1,1
 99 547 99 547 83 563.5 c 128,-1,2
 67 580 67 580 67 603 c 128,-1,3
 67 626 67 626 83.5 642.5 c 128,-1,4
 100 659 100 659 122 659 c 128,-1,5
 144 659 144 659 160.5 642.5 c 128,-1,6
 177 626 177 626 177 603 c 128,-1,7
 177 580 177 580 161 563.5 c 128,-1,0
 145 547 145 547 122 547 c 128,-1,1
80 456 m 1,8,-1
 165 456 l 1,9,-1
 165 0 l 1,10,-1
 80 0 l 1,11,-1
 80 456 l 1,8,-1
EndSplineSet
EndChar

StartChar: j
Encoding: 106 106 77
Width: 242
GlyphClass: 2
Flags: W
LayerCount: 2
Fore
SplineSet
122 547 m 128,-1,1
 99 547 99 547 83 563.5 c 128,-1,2
 67 580 67 580 67 603 c 128,-1,3
 67 626 67 626 83.5 642.5 c 128,-1,4
 100 659 100 659 122 659 c 128,-1,5
 144 659 144 659 160.5 642.5 c 128,-1,6
 177 626 177 626 177 603 c 128,-1,7
 177 580 177 580 161 563.5 c 128,-1,0
 145 547 145 547 122 547 c 128,-1,1
162 456 m 1,8,-1
 162 -89 l 2,9,10
 162 -163 162 -163 127 -202.5 c 128,-1,11
 92 -242 92 -242 36 -242 c 128,-1,12
 -20 -242 -20 -242 -85 -212 c 1,13,-1
 -56 -152 l 1,14,15
 -12 -170 -12 -170 20 -170 c 0,16,17
 80 -170 80 -170 80 -90 c 2,18,-1
 80 456 l 1,19,-1
 162 456 l 1,8,-1
EndSplineSet
EndChar

StartChar: k
Encoding: 107 107 78
Width: 459
GlyphClass: 2
Flags: W
LayerCount: 2
Fore
SplineSet
150 0 m 1,0,-1
 68 0 l 1,1,-1
 68 718 l 1,2,-1
 150 718 l 1,3,-1
 150 294 l 1,4,-1
 328 456 l 1,5,-1
 441 456 l 1,6,-1
 240 283 l 1,7,-1
 462 0 l 1,8,-1
 354 0 l 1,9,-1
 178 230 l 1,10,-1
 150 206 l 1,11,-1
 150 0 l 1,0,-1
EndSplineSet
EndChar

StartChar: l
Encoding: 108 108 79
Width: 218
GlyphClass: 2
Flags: W
LayerCount: 2
Fore
SplineSet
68 718 m 1,0,-1
 150 718 l 1,1,-1
 150 0 l 1,2,-1
 68 0 l 1,3,-1
 68 718 l 1,0,-1
EndSplineSet
EndChar

StartChar: m
Encoding: 109 109 80
Width: 811
GlyphClass: 2
Flags: W
LayerCount: 2
Fore
SplineSet
151 404 m 1,0,1
 225 468 225 468 315 468 c 128,-1,2
 405 468 405 468 438 398 c 1,3,4
 517 468 517 468 604 468 c 0,5,6
 668 468 668 468 705.5 434 c 128,-1,7
 743 400 743 400 743 345 c 2,8,-1
 743 0 l 1,9,-1
 658 0 l 1,10,-1
 658 341 l 2,11,12
 658 367 658 367 639 381 c 128,-1,13
 620 395 620 395 588 395 c 0,14,15
 523 395 523 395 449 342 c 1,16,-1
 449 0 l 1,17,-1
 364 0 l 1,18,-1
 364 341 l 2,19,20
 364 367 364 367 345 381 c 128,-1,21
 326 395 326 395 294 395 c 0,22,23
 227 395 227 395 157 344 c 1,24,-1
 157 0 l 1,25,-1
 72 0 l 1,26,-1
 72 456 l 1,27,-1
 126 456 l 1,28,-1
 151 404 l 1,0,1
EndSplineSet
EndChar

StartChar: n
Encoding: 110 110 81
Width: 532
GlyphClass: 2
Flags: W
LayerCount: 2
Fore
SplineSet
464 345 m 2,0,-1
 464 0 l 1,1,-1
 379 0 l 1,2,-1
 379 341 l 2,3,4
 379 367 379 367 358.5 381 c 128,-1,5
 338 395 338 395 304 395 c 0,6,7
 233 395 233 395 157 344 c 1,8,-1
 157 0 l 1,9,-1
 72 0 l 1,10,-1
 72 456 l 1,11,-1
 126 456 l 1,12,-1
 151 404 l 1,13,14
 228 468 228 468 318 468 c 0,15,16
 385 468 385 468 424.5 434 c 128,-1,17
 464 400 464 400 464 345 c 2,0,-1
EndSplineSet
EndChar

StartChar: o
Encoding: 111 111 82
Width: 513
GlyphClass: 2
Flags: W
LayerCount: 2
Fore
SplineSet
259 403 m 0,0,1
 221 403 221 403 193.5 386 c 128,-1,2
 166 369 166 369 153 342 c 0,3,4
 129 291 129 291 129 233 c 0,5,6
 129 53 129 53 254 53 c 0,7,8
 292 53 292 53 319 70 c 128,-1,9
 346 87 346 87 360 114 c 0,10,11
 384 164 384 164 384 223 c 0,12,13
 384 403 384 403 259 403 c 0,0,1
259 468 m 0,14,15
 370 468 370 468 421 399 c 128,-1,16
 472 330 472 330 472 219 c 0,17,18
 472 139 472 139 430 71 c 0,19,20
 407 34 407 34 361 11 c 128,-1,21
 315 -12 315 -12 251 -12 c 0,22,23
 141 -12 141 -12 91 54 c 128,-1,24
 41 120 41 120 41 231 c 0,25,26
 41 296 41 296 61.5 341 c 128,-1,27
 82 386 82 386 105 410.5 c 128,-1,28
 128 435 128 435 168 451.5 c 128,-1,29
 208 468 208 468 259 468 c 0,14,15
EndSplineSet
EndChar

StartChar: p
Encoding: 112 112 83
Width: 532
GlyphClass: 2
Flags: W
LayerCount: 2
Fore
SplineSet
247 56 m 0,0,1
 322 56 322 56 363 107 c 128,-1,2
 404 158 404 158 404 231.5 c 128,-1,3
 404 305 404 305 368.5 350 c 128,-1,4
 333 395 333 395 271 395 c 0,5,6
 247 395 247 395 214 381 c 128,-1,7
 181 367 181 367 155 344 c 1,8,-1
 155 74 l 1,9,10
 202 56 202 56 247 56 c 0,0,1
155 -230 m 1,11,-1
 72 -230 l 1,12,-1
 72 456 l 1,13,-1
 126 456 l 1,14,-1
 149 404 l 1,15,16
 222 468 222 468 304 468 c 128,-1,17
 386 468 386 468 438 404 c 128,-1,18
 490 340 490 340 490 237.5 c 128,-1,19
 490 135 490 135 429.5 61.5 c 128,-1,20
 369 -12 369 -12 257 -12 c 0,21,22
 207 -12 207 -12 155 2 c 1,23,-1
 155 -230 l 1,11,-1
EndSplineSet
EndChar

StartChar: q
Encoding: 113 113 84
Width: 526
GlyphClass: 2
Flags: W
LayerCount: 2
Fore
SplineSet
458 -230 m 1,0,-1
 376 -230 l 1,1,-1
 376 48 l 1,2,3
 314 -12 314 -12 229 -12 c 128,-1,4
 144 -12 144 -12 92.5 47.5 c 128,-1,5
 41 107 41 107 41 213.5 c 128,-1,6
 41 320 41 320 103 394 c 128,-1,7
 165 468 165 468 263 468 c 0,8,9
 319 468 319 468 376 438 c 1,10,-1
 458 468 l 1,11,-1
 458 -230 l 1,0,-1
284 400 m 0,12,13
 209 400 209 400 168 346.5 c 128,-1,14
 127 293 127 293 127 219.5 c 128,-1,15
 127 146 127 146 161 101.5 c 128,-1,16
 195 57 195 57 253.5 57 c 128,-1,17
 312 57 312 57 376 114 c 1,18,-1
 376 382 l 1,19,20
 329 400 329 400 284 400 c 0,12,13
EndSplineSet
EndChar

StartChar: r
Encoding: 114 114 85
Width: 315
GlyphClass: 2
Flags: W
LayerCount: 2
Fore
SplineSet
72 456 m 1,0,-1
 126 456 l 1,1,-1
 151 376 l 1,2,-1
 155 376 l 1,3,4
 210 447 210 447 306 462 c 1,5,-1
 315 383 l 1,6,7
 268 380 268 380 224 359 c 128,-1,8
 180 338 180 338 157 303 c 1,9,-1
 157 0 l 1,10,-1
 72 0 l 1,11,-1
 72 456 l 1,0,-1
EndSplineSet
EndChar

StartChar: s
Encoding: 115 115 86
Width: 384
GlyphClass: 2
Flags: W
LayerCount: 2
Fore
SplineSet
306 376 m 1,0,1
 255 398 255 398 210 398 c 0,2,3
 123 398 123 398 123 345 c 0,4,5
 123 299 123 299 239 256 c 0,6,7
 282 240 282 240 318.5 206 c 128,-1,8
 355 172 355 172 355 124 c 0,9,10
 355 55 355 55 310 21.5 c 128,-1,11
 265 -12 265 -12 185 -12 c 128,-1,12
 105 -12 105 -12 29 32 c 1,13,-1
 54 94 l 1,14,15
 117 58 117 58 197 58 c 0,16,17
 231 58 231 58 252 72.5 c 128,-1,18
 273 87 273 87 273 112 c 128,-1,19
 273 137 273 137 249 155 c 128,-1,20
 225 173 225 173 191 187 c 128,-1,21
 157 201 157 201 123 217.5 c 128,-1,22
 89 234 89 234 65 264 c 128,-1,23
 41 294 41 294 41 335 c 0,24,25
 41 399 41 399 84.5 433.5 c 128,-1,26
 128 468 128 468 195 468 c 128,-1,27
 262 468 262 468 331 438 c 1,28,-1
 306 376 l 1,0,1
EndSplineSet
EndChar

StartChar: t
Encoding: 116 116 87
Width: 339
GlyphClass: 2
Flags: W
LayerCount: 2
Fore
SplineSet
174 393 m 1,0,-1
 174 119 l 2,1,2
 174 59 174 59 231 59 c 0,3,4
 264 59 264 59 310 78 c 1,5,-1
 321 11 l 1,6,7
 272 -12 272 -12 218 -12 c 128,-1,8
 164 -12 164 -12 128 20.5 c 128,-1,9
 92 53 92 53 92 120 c 2,10,-1
 92 393 l 1,11,-1
 29 393 l 1,12,-1
 29 456 l 1,13,-1
 92 456 l 1,14,-1
 92 546 l 1,15,-1
 154 603 l 1,16,-1
 174 603 l 1,17,-1
 174 456 l 1,18,-1
 303 456 l 1,19,-1
 303 393 l 1,20,-1
 174 393 l 1,0,-1
EndSplineSet
EndChar

StartChar: u
Encoding: 117 117 88
Width: 530
GlyphClass: 2
Flags: W
LayerCount: 2
Fore
SplineSet
153 456 m 1,0,-1
 153 117 l 2,1,2
 153 89 153 89 173.5 73.5 c 128,-1,3
 194 58 194 58 227 58 c 0,4,5
 298 58 298 58 373 114 c 1,6,-1
 373 456 l 1,7,-1
 458 456 l 1,8,-1
 458 0 l 1,9,-1
 404 0 l 1,10,-1
 379 60 l 1,11,12
 302 -12 302 -12 208 -12 c 0,13,14
 148 -12 148 -12 108 20 c 128,-1,15
 68 52 68 52 68 113 c 2,16,-1
 68 456 l 1,17,-1
 153 456 l 1,0,-1
EndSplineSet
EndChar

StartChar: v
Encoding: 118 118 89
Width: 422
GlyphClass: 2
Flags: W
LayerCount: 2
Fore
SplineSet
258 0 m 1,0,-1
 164 0 l 1,1,-1
 5 456 l 1,2,-1
 91 456 l 1,3,-1
 209 91 l 1,4,-1
 213 91 l 1,5,-1
 331 456 l 1,6,-1
 417 456 l 1,7,-1
 258 0 l 1,0,-1
EndSplineSet
EndChar

StartChar: w
Encoding: 119 119 90
Width: 652
GlyphClass: 2
Flags: W
LayerCount: 2
Fore
SplineSet
223 0 m 1,0,-1
 129 0 l 1,1,-1
 5 456 l 1,2,-1
 91 456 l 1,3,-1
 174 91 l 1,4,-1
 178 91 l 1,5,-1
 285 456 l 1,6,-1
 366 456 l 1,7,-1
 474 91 l 1,8,-1
 478 91 l 1,9,-1
 561 456 l 1,10,-1
 647 456 l 1,11,-1
 523 0 l 1,12,-1
 429 0 l 1,13,-1
 327 325 l 1,14,-1
 322 325 l 1,15,-1
 223 0 l 1,0,-1
EndSplineSet
EndChar

StartChar: x
Encoding: 120 120 91
Width: 445
GlyphClass: 2
Flags: W
LayerCount: 2
Fore
SplineSet
14 456 m 1,0,-1
 112 456 l 1,1,-1
 227 298 l 1,2,-1
 338 456 l 1,3,-1
 434 456 l 1,4,-1
 273 234 l 1,5,-1
 445 0 l 1,6,-1
 347 0 l 1,7,-1
 219 175 l 1,8,-1
 96 0 l 1,9,-1
 0 0 l 1,10,-1
 173 238 l 1,11,-1
 14 456 l 1,0,-1
EndSplineSet
EndChar

StartChar: y
Encoding: 121 121 92
Width: 424
GlyphClass: 2
Flags: W
LayerCount: 2
Fore
SplineSet
171.5 -209.5 m 128,-1,1
 144 -242 144 -242 90 -242 c 128,-1,2
 36 -242 36 -242 -29 -212 c 1,3,-1
 2 -147 l 1,4,5
 45 -170 45 -170 76 -170 c 0,6,7
 103 -170 103 -170 112 -161 c 2,8,-1
 125 -148 l 2,9,10
 138 -135 138 -135 148 -103 c 128,-1,11
 158 -71 158 -71 164 -53.5 c 128,-1,12
 170 -36 170 -36 173 -26 c 1,13,-1
 6 456 l 1,14,-1
 92 456 l 1,15,-1
 210 91 l 1,16,-1
 214 91 l 1,17,-1
 332 456 l 1,18,-1
 418 456 l 1,19,-1
 232 -81 l 2,20,0
 199 -177 199 -177 171.5 -209.5 c 128,-1,1
EndSplineSet
EndChar

StartChar: z
Encoding: 122 122 93
Width: 438
GlyphClass: 2
Flags: W
LayerCount: 2
Fore
SplineSet
397 68 m 1,0,-1
 397 0 l 1,1,-1
 46 0 l 1,2,-1
 27 28 l 1,3,-1
 290 388 l 1,4,-1
 67 388 l 1,5,-1
 59 456 l 1,6,-1
 386 456 l 1,7,-1
 404 424 l 1,8,-1
 148 68 l 1,9,-1
 397 68 l 1,0,-1
EndSplineSet
EndChar

StartChar: braceleft
Encoding: 123 123 94
Width: 350
GlyphClass: 2
Flags: W
LayerCount: 2
Fore
SplineSet
211 605 m 2,0,-1
 211 430 l 2,1,2
 211 373 211 373 199.5 341.5 c 128,-1,3
 188 310 188 310 152 294 c 1,4,5
 188 278 188 278 199.5 246.5 c 128,-1,6
 211 215 211 215 211 158 c 2,7,-1
 211 -17 l 2,8,9
 211 -49 211 -49 232 -57 c 128,-1,10
 253 -65 253 -65 315 -65 c 1,11,-1
 325 -130 l 1,12,13
 168 -130 168 -130 140 -83 c 0,14,15
 127 -60 127 -60 127 -12 c 2,16,-1
 127 200 l 2,17,18
 127 249 127 249 88 262 c 0,19,20
 74 267 74 267 65 267 c 1,21,-1
 65 321 l 1,22,23
 105 321 105 321 120 355 c 0,24,25
 127 369 127 369 127 388 c 2,26,-1
 127 600 l 2,27,28
 127 648 127 648 140 671 c 0,29,30
 168 718 168 718 325 718 c 1,31,-1
 315 653 l 1,32,33
 253 653 253 653 232 645 c 128,-1,34
 211 637 211 637 211 605 c 2,0,-1
EndSplineSet
EndChar

StartChar: bar
Encoding: 124 124 95
Width: 289
GlyphClass: 2
Flags: W
LayerCount: 2
Fore
SplineSet
112 -140 m 1,0,-1
 112 701 l 1,1,-1
 177 701 l 1,2,-1
 177 -140 l 1,3,-1
 112 -140 l 1,0,-1
EndSplineSet
EndChar

StartChar: braceright
Encoding: 125 125 96
Width: 350
GlyphClass: 2
Flags: W
LayerCount: 2
Fore
SplineSet
139 430 m 2,0,-1
 139 605 l 2,1,2
 139 637 139 637 118 645 c 128,-1,3
 97 653 97 653 35 653 c 1,4,-1
 25 718 l 1,5,6
 182 718 182 718 210 671 c 0,7,8
 223 648 223 648 223 600 c 2,9,-1
 223 388 l 2,10,11
 223 339 223 339 262 326 c 0,12,13
 276 321 276 321 285 321 c 1,14,-1
 285 267 l 1,15,16
 245 267 245 267 230 233 c 0,17,18
 223 219 223 219 223 200 c 2,19,-1
 223 -12 l 2,20,21
 223 -60 223 -60 210 -83 c 0,22,23
 182 -130 182 -130 25 -130 c 1,24,-1
 35 -65 l 1,25,26
 97 -65 97 -65 118 -57 c 128,-1,27
 139 -49 139 -49 139 -17 c 2,28,-1
 139 158 l 2,29,30
 139 215 139 215 150.5 246.5 c 128,-1,31
 162 278 162 278 198 294 c 1,32,33
 162 310 162 310 150.5 341.5 c 128,-1,34
 139 373 139 373 139 430 c 2,0,-1
EndSplineSet
EndChar

StartChar: asciitilde
Encoding: 126 126 97
Width: 523
GlyphClass: 2
Flags: W
LayerCount: 2
Fore
SplineSet
381 241 m 0,0,1
 341 241 341 241 261.5 273.5 c 128,-1,2
 182 306 182 306 138 306 c 128,-1,3
 94 306 94 306 56 274 c 1,4,-1
 25 305 l 1,5,6
 79 367 79 367 143 367 c 0,7,8
 183 367 183 367 262.5 334.5 c 128,-1,9
 342 302 342 302 385 302 c 128,-1,10
 428 302 428 302 468 334 c 1,11,-1
 499 303 l 1,12,13
 445 241 445 241 381 241 c 0,0,1
EndSplineSet
EndChar

StartChar: exclamdown
Encoding: 161 161 99
Width: 236
GlyphClass: 2
Flags: W
LayerCount: 2
Fore
SplineSet
118 461 m 128,-1,1
 140 461 140 461 155.5 445.5 c 128,-1,2
 171 430 171 430 171 407 c 128,-1,3
 171 384 171 384 155.5 368.5 c 128,-1,4
 140 353 140 353 118 353 c 128,-1,5
 96 353 96 353 80.5 368.5 c 128,-1,6
 65 384 65 384 65 407 c 128,-1,7
 65 430 65 430 80.5 445.5 c 128,-1,0
 96 461 96 461 118 461 c 128,-1,1
65 -194 m 1,8,-1
 92 284 l 1,9,-1
 140 293 l 1,10,-1
 171 -194 l 1,11,-1
 65 -194 l 1,8,-1
EndSplineSet
EndChar

StartChar: cent
Encoding: 162 162 100
Width: 412
GlyphClass: 2
Flags: W
LayerCount: 2
Fore
SplineSet
259 148 m 0,0,1
 313 148 313 148 374 176 c 1,2,-1
 393 110 l 1,3,4
 323 78 323 78 251 78 c 2,5,-1
 232 78 l 1,6,-1
 221 -9 l 1,7,-1
 176 -9 l 1,8,-1
 188 87 l 1,9,10
 121 108 121 108 81 170.5 c 128,-1,11
 41 233 41 233 41 329 c 128,-1,12
 41 425 41 425 98.5 491 c 128,-1,13
 156 557 156 557 247 558 c 1,14,-1
 257 641 l 1,15,-1
 302 641 l 1,16,-1
 291 555 l 1,17,18
 335 550 335 550 387 528 c 1,19,-1
 362 466 l 1,20,21
 321 482 321 482 283 486 c 1,22,-1
 241 149 l 1,23,24
 247 148 247 148 259 148 c 0,0,1
129 321 m 0,25,26
 129 200 129 200 197 163 c 1,27,-1
 238 487 l 1,28,29
 187 481 187 481 158 438.5 c 128,-1,30
 129 396 129 396 129 321 c 0,25,26
EndSplineSet
EndChar

StartChar: sterling
Encoding: 163 163 101
Width: 523
GlyphClass: 2
Flags: W
LayerCount: 2
Fore
SplineSet
194 500 m 1,0,-1
 206 315 l 1,1,-1
 409 315 l 1,2,-1
 409 265 l 1,3,-1
 206 265 l 1,4,5
 203 164 203 164 153 70 c 1,6,-1
 474 76 l 1,7,-1
 464 0 l 1,8,-1
 46 0 l 1,9,-1
 28 53 l 1,10,11
 116 97 116 97 121 265 c 1,12,-1
 24 265 l 1,13,-1
 24 315 l 1,14,-1
 120 315 l 1,15,-1
 108 493 l 1,16,17
 108 577 108 577 157.5 624.5 c 128,-1,18
 207 672 207 672 303 672 c 0,19,20
 370 672 370 672 453 645 c 1,21,-1
 428 579 l 1,22,23
 359 602 359 602 303.5 602 c 128,-1,24
 248 602 248 602 221 573.5 c 128,-1,25
 194 545 194 545 194 500 c 1,0,-1
EndSplineSet
EndChar

StartChar: currency
Encoding: 164 164 102
Width: 523
GlyphClass: 2
Flags: W
LayerCount: 2
Fore
SplineSet
115 213 m 1,0,1
 79 262 79 262 79 322 c 128,-1,2
 79 382 79 382 115 432 c 1,3,-1
 35 495 l 1,4,-1
 86 551 l 1,5,-1
 152 468 l 1,6,7
 203 504 203 504 260.5 504 c 128,-1,8
 318 504 318 504 370 468 c 1,9,-1
 434 549 l 1,10,-1
 489 496 l 1,11,-1
 407 431 l 1,12,13
 443 378 443 378 443 322 c 128,-1,14
 443 266 443 266 407 213 c 1,15,-1
 487 151 l 1,16,-1
 436 95 l 1,17,-1
 370 177 l 1,18,19
 320 141 320 141 260 141 c 128,-1,20
 200 141 200 141 151 177 c 1,21,-1
 89 97 l 1,22,-1
 33 148 l 1,23,-1
 115 213 l 1,0,1
179 404.5 m 128,-1,25
 146 371 146 371 146 322 c 128,-1,26
 146 273 146 273 179 240 c 128,-1,27
 212 207 212 207 261 207 c 128,-1,28
 310 207 310 207 343 240 c 128,-1,29
 376 273 376 273 376 322 c 128,-1,30
 376 371 376 371 343 404.5 c 128,-1,31
 310 438 310 438 261 438 c 128,-1,24
 212 438 212 438 179 404.5 c 128,-1,25
EndSplineSet
EndChar

StartChar: yen
Encoding: 165 165 103
Width: 523
GlyphClass: 2
Flags: W
LayerCount: 2
Fore
SplineSet
55 336 m 1,0,-1
 55 386 l 1,1,-1
 146 386 l 1,2,-1
 9 661 l 1,3,-1
 99 661 l 1,4,-1
 259 327 l 1,5,-1
 263 327 l 1,6,-1
 423 661 l 1,7,-1
 513 661 l 1,8,-1
 376 386 l 1,9,-1
 469 386 l 1,10,-1
 469 336 l 1,11,-1
 351 336 l 1,12,-1
 305 244 l 1,13,-1
 469 244 l 1,14,-1
 469 194 l 1,15,-1
 301 194 l 1,16,-1
 301 0 l 1,17,-1
 221 0 l 1,18,-1
 221 194 l 1,19,-1
 54 194 l 1,20,-1
 54 244 l 1,21,-1
 217 244 l 1,22,-1
 171 336 l 1,23,-1
 55 336 l 1,0,-1
EndSplineSet
EndChar

StartChar: brokenbar
Encoding: 166 166 104
Width: 289
GlyphClass: 2
Flags: W
LayerCount: 2
Fore
SplineSet
112 -140 m 1,0,-1
 112 195 l 1,1,-1
 177 195 l 1,2,-1
 177 -140 l 1,3,-1
 112 -140 l 1,0,-1
112 366 m 1,4,-1
 112 701 l 1,5,-1
 177 701 l 1,6,-1
 177 366 l 1,7,-1
 112 366 l 1,4,-1
EndSplineSet
EndChar

StartChar: section
Encoding: 167 167 105
Width: 500
GlyphClass: 2
Flags: W
LayerCount: 2
Fore
SplineSet
85 227 m 0,0,1
 85 290 85 290 118 334 c 1,2,3
 85 375 85 375 85 430 c 0,4,5
 85 508 85 508 135.5 557 c 128,-1,6
 186 606 186 606 269 606 c 0,7,8
 326 606 326 606 397 577 c 1,9,-1
 377 508 l 1,10,11
 334 527 334 527 285.5 527 c 128,-1,12
 237 527 237 527 206 505.5 c 128,-1,13
 175 484 175 484 175 434 c 128,-1,14
 175 384 175 384 228 352 c 2,15,-1
 338 285 l 2,16,17
 431 228 431 228 431 138 c 0,18,19
 431 76 431 76 398 30 c 1,20,21
 431 -13 431 -13 431 -65 c 0,22,23
 431 -144 431 -144 379.5 -193 c 128,-1,24
 328 -242 328 -242 235 -242 c 128,-1,25
 142 -242 142 -242 69 -202 c 1,26,-1
 89 -132 l 1,27,28
 155 -168 155 -168 218 -168 c 128,-1,29
 281 -168 281 -168 311.5 -139 c 128,-1,30
 342 -110 342 -110 342 -72 c 0,31,32
 342 -18 342 -18 289 14 c 2,33,-1
 178 81 l 2,34,35
 85 136 85 136 85 227 c 0,0,1
175 234 m 0,36,37
 175 181 175 181 228 149 c 2,38,-1
 330 86 l 1,39,40
 342 107 342 107 342 131 c 0,41,42
 342 185 342 185 289 217 c 2,43,-1
 185 279 l 1,44,45
 175 262 175 262 175 234 c 0,36,37
EndSplineSet
EndChar

StartChar: dieresis
Encoding: 168 168 106
Width: 464
GlyphClass: 2
Flags: W
LayerCount: 2
Fore
SplineSet
140 547 m 128,-1,1
 117 547 117 547 101 563.5 c 128,-1,2
 85 580 85 580 85 603 c 128,-1,3
 85 626 85 626 101.5 642.5 c 128,-1,4
 118 659 118 659 140 659 c 128,-1,5
 162 659 162 659 178.5 642.5 c 128,-1,6
 195 626 195 626 195 603 c 128,-1,7
 195 580 195 580 179 563.5 c 128,-1,0
 163 547 163 547 140 547 c 128,-1,1
320 547 m 128,-1,9
 297 547 297 547 281 563.5 c 128,-1,10
 265 580 265 580 265 603 c 128,-1,11
 265 626 265 626 281.5 642.5 c 128,-1,12
 298 659 298 659 320 659 c 128,-1,13
 342 659 342 659 358.5 642.5 c 128,-1,14
 375 626 375 626 375 603 c 128,-1,15
 375 580 375 580 359 563.5 c 128,-1,8
 343 547 343 547 320 547 c 128,-1,9
EndSplineSet
EndChar

StartChar: copyright
Encoding: 169 169 107
Width: 663
GlyphClass: 2
Flags: W
LayerCount: 2
Fore
SplineSet
87 479 m 128,-1,1
 87 378 87 378 158.5 306.5 c 128,-1,2
 230 235 230 235 331 235 c 128,-1,3
 432 235 432 235 503.5 306.5 c 128,-1,4
 575 378 575 378 575 479 c 128,-1,5
 575 580 575 580 503.5 651.5 c 128,-1,6
 432 723 432 723 331 723 c 128,-1,7
 230 723 230 723 158.5 651.5 c 128,-1,0
 87 580 87 580 87 479 c 128,-1,1
132.5 279.5 m 128,-1,9
 50 362 50 362 50 478.5 c 128,-1,10
 50 595 50 595 132.5 677.5 c 128,-1,11
 215 760 215 760 331.5 760 c 128,-1,12
 448 760 448 760 530.5 677.5 c 128,-1,13
 613 595 613 595 613 478.5 c 128,-1,14
 613 362 613 362 530.5 279.5 c 128,-1,15
 448 197 448 197 331.5 197 c 128,-1,8
 215 197 215 197 132.5 279.5 c 128,-1,9
267.5 578.5 m 128,-1,17
 237 542 237 542 237 484.5 c 128,-1,18
 237 427 237 427 263 395 c 128,-1,19
 289 363 289 363 337.5 363 c 128,-1,20
 386 363 386 363 435 390 c 1,21,-1
 444 341 l 1,22,23
 382 314 382 314 328 314 c 0,24,25
 255 314 255 314 215.5 362 c 128,-1,26
 176 410 176 410 176 485 c 128,-1,27
 176 560 176 560 224.5 612 c 128,-1,28
 273 664 273 664 352 664 c 0,29,30
 389 664 389 664 437 649 c 1,31,-1
 422 603 l 1,32,33
 381 615 381 615 352 615 c 0,34,16
 298 615 298 615 267.5 578.5 c 128,-1,17
EndSplineSet
EndChar

StartChar: ordfeminine
Encoding: 170 170 108
Width: 315
GlyphClass: 2
Flags: W
LayerCount: 2
Fore
SplineSet
200 609 m 2,0,1
 200 652 200 652 156 652 c 0,2,3
 121 652 121 652 72 624 c 1,4,-1
 52 669 l 1,5,6
 105 703 105 703 156 703 c 0,7,8
 260 703 260 703 260 615 c 2,9,-1
 260 418 l 1,10,-1
 220 418 l 1,11,-1
 208 449 l 1,12,13
 167 411 167 411 122.5 411 c 128,-1,14
 78 411 78 411 55.5 432 c 128,-1,15
 33 453 33 453 33 488 c 0,16,17
 33 587 33 587 200 588 c 1,18,-1
 200 609 l 2,0,1
94 491 m 0,19,20
 94 462 94 462 128 462 c 128,-1,21
 162 462 162 462 200 491 c 1,22,-1
 200 543 l 1,23,24
 94 541 94 541 94 491 c 0,19,20
38 330 m 1,25,-1
 38 370 l 1,26,-1
 260 370 l 1,27,-1
 260 330 l 1,28,-1
 38 330 l 1,25,-1
EndSplineSet
EndChar

StartChar: guillemotleft
Encoding: 171 171 109
Width: 450
GlyphClass: 2
Flags: W
LayerCount: 2
Fore
SplineSet
243 44 m 1,0,-1
 167 44 l 1,1,-1
 49 227 l 1,2,-1
 167 410 l 1,3,-1
 243 410 l 1,4,-1
 131 227 l 1,5,-1
 243 44 l 1,0,-1
400 44 m 1,6,-1
 324 44 l 1,7,-1
 206 227 l 1,8,-1
 324 410 l 1,9,-1
 400 410 l 1,10,-1
 288 227 l 1,11,-1
 400 44 l 1,6,-1
EndSplineSet
EndChar

StartChar: logicalnot
Encoding: 172 172 110
Width: 523
GlyphClass: 2
Flags: W
LayerCount: 2
Fore
SplineSet
24 273 m 1,0,-1
 24 334 l 1,1,-1
 499 334 l 1,2,-1
 499 66 l 1,3,-1
 438 66 l 1,4,-1
 438 273 l 1,5,-1
 24 273 l 1,0,-1
EndSplineSet
EndChar

StartChar: registered
Encoding: 174 174 111
Width: 663
GlyphClass: 2
Flags: W
LayerCount: 2
Fore
SplineSet
87 479 m 128,-1,1
 87 378 87 378 158.5 306.5 c 128,-1,2
 230 235 230 235 331 235 c 128,-1,3
 432 235 432 235 503.5 306.5 c 128,-1,4
 575 378 575 378 575 479 c 128,-1,5
 575 580 575 580 503.5 651.5 c 128,-1,6
 432 723 432 723 331 723 c 128,-1,7
 230 723 230 723 158.5 651.5 c 128,-1,0
 87 580 87 580 87 479 c 128,-1,1
132.5 279.5 m 128,-1,9
 50 362 50 362 50 478.5 c 128,-1,10
 50 595 50 595 132.5 677.5 c 128,-1,11
 215 760 215 760 331.5 760 c 128,-1,12
 448 760 448 760 530.5 677.5 c 128,-1,13
 613 595 613 595 613 478.5 c 128,-1,14
 613 362 613 362 530.5 279.5 c 128,-1,15
 448 197 448 197 331.5 197 c 128,-1,8
 215 197 215 197 132.5 279.5 c 128,-1,9
286 452 m 1,16,-1
 286 320 l 1,17,-1
 232 320 l 1,18,-1
 232 659 l 1,19,-1
 324 659 l 2,20,21
 376 659 376 659 409.5 631.5 c 128,-1,22
 443 604 443 604 443 555 c 0,23,24
 443 489 443 489 382 462 c 1,25,-1
 475 320 l 1,26,-1
 409 320 l 1,27,-1
 328 452 l 1,28,-1
 286 452 l 1,16,-1
286 500 m 1,29,-1
 324 500 l 2,30,31
 385 500 385 500 385 554.5 c 128,-1,32
 385 609 385 609 324 609 c 2,33,-1
 286 609 l 1,34,-1
 286 500 l 1,29,-1
EndSplineSet
EndChar

StartChar: macron
Encoding: 175 175 112
Width: 360
GlyphClass: 2
Flags: W
LayerCount: 2
Fore
SplineSet
320 635 m 1,0,-1
 320 568 l 1,1,-1
 40 568 l 1,2,-1
 40 635 l 1,3,-1
 320 635 l 1,0,-1
EndSplineSet
EndChar

StartChar: degree
Encoding: 176 176 113
Width: 281
GlyphClass: 2
Flags: W
LayerCount: 2
Fore
SplineSet
10 554 m 128,-1,1
 10 608 10 608 48 646.5 c 128,-1,2
 86 685 86 685 140 685 c 128,-1,3
 194 685 194 685 232.5 646.5 c 128,-1,4
 271 608 271 608 271 554 c 128,-1,5
 271 500 271 500 232.5 462 c 128,-1,6
 194 424 194 424 140 424 c 128,-1,7
 86 424 86 424 48 462 c 128,-1,0
 10 500 10 500 10 554 c 128,-1,1
52 554 m 128,-1,9
 52 517 52 517 77.5 491.5 c 128,-1,10
 103 466 103 466 140 466 c 128,-1,11
 177 466 177 466 203.5 491.5 c 128,-1,12
 230 517 230 517 230 554 c 128,-1,13
 230 591 230 591 203.5 617.5 c 128,-1,14
 177 644 177 644 140 644 c 128,-1,15
 103 644 103 644 77.5 617.5 c 128,-1,8
 52 591 52 591 52 554 c 128,-1,9
EndSplineSet
EndChar

StartChar: plusminus
Encoding: 177 177 114
Width: 523
GlyphClass: 2
Flags: W
LayerCount: 2
Fore
SplineSet
231 541 m 1,0,-1
 292 541 l 1,1,-1
 292 334 l 1,2,-1
 499 334 l 1,3,-1
 499 273 l 1,4,-1
 292 273 l 1,5,-1
 292 66 l 1,6,-1
 231 66 l 1,7,-1
 231 273 l 1,8,-1
 24 273 l 1,9,-1
 24 334 l 1,10,-1
 231 334 l 1,11,-1
 231 541 l 1,0,-1
24 -60 m 1,12,-1
 24 1 l 1,13,-1
 499 1 l 1,14,-1
 499 -60 l 1,15,-1
 24 -60 l 1,12,-1
EndSplineSet
EndChar

StartChar: twosuperior
Encoding: 178 178 115
Width: 371
GlyphClass: 2
Flags: W
LayerCount: 2
Fore
SplineSet
327 297 m 1,0,-1
 58 297 l 1,1,-1
 45 340 l 1,2,-1
 133 430 l 2,3,4
 244 543 244 543 244 597 c 0,5,6
 244 662 244 662 182 662 c 0,7,8
 138 662 138 662 78 632 c 1,9,-1
 50 686 l 1,10,11
 114 725 114 725 179 725 c 128,-1,12
 244 725 244 725 282 693.5 c 128,-1,13
 320 662 320 662 320 605 c 0,14,15
 320 511 320 511 174 380 c 1,16,-1
 150 358 l 1,17,-1
 327 361 l 1,18,-1
 327 297 l 1,0,-1
EndSplineSet
EndChar

StartChar: threesuperior
Encoding: 179 179 116
Width: 350
GlyphClass: 2
Flags: W
LayerCount: 2
Fore
SplineSet
169 662 m 0,0,1
 131 662 131 662 77 632 c 1,2,-1
 51 686 l 1,3,4
 119 725 119 725 176.5 725 c 128,-1,5
 234 725 234 725 266.5 693 c 128,-1,6
 299 661 299 661 299 624 c 0,7,8
 299 545 299 545 236 517 c 1,9,10
 307 487 307 487 307 414 c 0,11,12
 307 364 307 364 269 326.5 c 128,-1,13
 231 289 231 289 167 289 c 128,-1,14
 103 289 103 289 40 319 c 1,15,-1
 64 372 l 1,16,17
 111 350 111 350 150 350 c 128,-1,18
 189 350 189 350 210 370.5 c 128,-1,19
 231 391 231 391 231 419 c 128,-1,20
 231 447 231 447 211 466.5 c 128,-1,21
 191 486 191 486 152 486 c 2,22,-1
 89 486 l 1,23,-1
 89 544 l 1,24,-1
 147 544 l 2,25,26
 183 544 183 544 203 563 c 128,-1,27
 223 582 223 582 223 609 c 0,28,29
 223 662 223 662 169 662 c 0,0,1
EndSplineSet
EndChar

StartChar: acute
Encoding: 180 180 117
Width: 285
GlyphClass: 2
Flags: W
LayerCount: 2
Fore
SplineSet
136 513 m 1,0,-1
 72 513 l 1,1,-1
 199 697 l 1,2,-1
 271 643 l 1,3,-1
 136 513 l 1,0,-1
EndSplineSet
EndChar

StartChar: mu
Encoding: 181 181 118
Width: 530
GlyphClass: 2
Flags: W
LayerCount: 2
Fore
SplineSet
68 456 m 1,0,-1
 153 456 l 1,1,-1
 153 117 l 2,2,3
 153 89 153 89 173.5 73.5 c 128,-1,4
 194 58 194 58 227 58 c 0,5,6
 298 58 298 58 373 114 c 1,7,-1
 373 456 l 1,8,-1
 458 456 l 1,9,-1
 458 0 l 1,10,-1
 404 0 l 1,11,-1
 379 60 l 1,12,13
 302 -12 302 -12 208 -12 c 0,14,15
 180 -12 180 -12 153 -4 c 1,16,-1
 153 -230 l 1,17,-1
 68 -240 l 1,18,-1
 68 456 l 1,0,-1
EndSplineSet
EndChar

StartChar: paragraph
Encoding: 182 182 119
Width: 546
GlyphClass: 2
Flags: W
LayerCount: 2
Fore
SplineSet
241 -229 m 1,0,-1
 241 173 l 1,1,2
 154 173 154 173 92 234.5 c 128,-1,3
 30 296 30 296 30 383 c 128,-1,4
 30 470 30 470 92 532 c 128,-1,5
 154 594 154 594 241 594 c 2,6,-1
 471 594 l 1,7,-1
 471 -229 l 1,8,-1
 403 -229 l 1,9,-1
 403 531 l 1,10,-1
 309 531 l 1,11,-1
 309 -229 l 1,12,-1
 241 -229 l 1,0,-1
EndSplineSet
EndChar

StartChar: periodcentered
Encoding: 183 183 120
Width: 165
GlyphClass: 2
Flags: W
LayerCount: 2
Fore
SplineSet
82 209 m 128,-1,1
 60 209 60 209 45 224.5 c 128,-1,2
 30 240 30 240 30 263 c 128,-1,3
 30 286 30 286 45 301 c 128,-1,4
 60 316 60 316 82 316 c 128,-1,5
 104 316 104 316 119.5 301 c 128,-1,6
 135 286 135 286 135 263 c 128,-1,7
 135 240 135 240 119.5 224.5 c 128,-1,0
 104 209 104 209 82 209 c 128,-1,1
EndSplineSet
EndChar

StartChar: cedilla
Encoding: 184 184 121
Width: 443
GlyphClass: 2
Flags: W
LayerCount: 2
Fore
SplineSet
330 -143 m 0,0,1
 330 -188 330 -188 298 -215 c 128,-1,2
 266 -242 266 -242 219.5 -242 c 128,-1,3
 173 -242 173 -242 129 -215 c 1,4,-1
 145 -175 l 1,5,6
 175 -195 175 -195 203.5 -195 c 128,-1,7
 232 -195 232 -195 249.5 -178.5 c 128,-1,8
 267 -162 267 -162 267 -140.5 c 128,-1,9
 267 -119 267 -119 248 -102.5 c 128,-1,10
 229 -86 229 -86 193 -83 c 1,11,-1
 184 -70 l 1,12,-1
 216 8 l 1,13,-1
 251 8 l 1,14,-1
 240 -47 l 1,15,16
 330 -77 330 -77 330 -143 c 0,0,1
EndSplineSet
EndChar

StartChar: onesuperior
Encoding: 185 185 122
Width: 251
GlyphClass: 2
Flags: W
LayerCount: 2
Fore
SplineSet
198 720 m 1,0,-1
 198 297 l 1,1,-1
 128 297 l 1,2,-1
 128 642 l 1,3,-1
 39 599 l 1,4,-1
 14 655 l 1,5,-1
 150 720 l 1,6,-1
 198 720 l 1,0,-1
EndSplineSet
EndChar

StartChar: ordmasculine
Encoding: 186 186 123
Width: 338
GlyphClass: 2
Flags: W
LayerCount: 2
Fore
SplineSet
168 655 m 0,0,1
 129 655 129 655 113 625.5 c 128,-1,2
 97 596 97 596 97 560 c 0,3,4
 97 459 97 459 165 459 c 0,5,6
 205 459 205 459 221 488.5 c 128,-1,7
 237 518 237 518 237 554 c 0,8,9
 237 655 237 655 168 655 c 0,0,1
168 703 m 0,10,11
 236 703 236 703 267 661 c 128,-1,12
 298 619 298 619 298 558.5 c 128,-1,13
 298 498 298 498 267.5 454.5 c 128,-1,14
 237 411 237 411 164 411 c 0,15,16
 36 411 36 411 36 559 c 0,17,18
 36 606 36 606 62 650 c 1,19,20
 75 674 75 674 102.5 688.5 c 128,-1,21
 130 703 130 703 168 703 c 0,10,11
41 330 m 1,22,-1
 41 370 l 1,23,-1
 293 370 l 1,24,-1
 293 330 l 1,25,-1
 41 330 l 1,22,-1
EndSplineSet
EndChar

StartChar: guillemotright
Encoding: 187 187 124
Width: 450
GlyphClass: 2
Flags: W
LayerCount: 2
Fore
SplineSet
282 44 m 1,0,-1
 206 44 l 1,1,-1
 318 227 l 1,2,-1
 206 410 l 1,3,-1
 282 410 l 1,4,-1
 400 227 l 1,5,-1
 282 44 l 1,0,-1
125 44 m 1,6,-1
 49 44 l 1,7,-1
 161 227 l 1,8,-1
 49 410 l 1,9,-1
 125 410 l 1,10,-1
 243 227 l 1,11,-1
 125 44 l 1,6,-1
EndSplineSet
EndChar

StartChar: onequarter
Encoding: 188 188 125
Width: 795
GlyphClass: 2
Flags: W
LayerCount: 2
Fore
SplineSet
210 -10 m 1,0,-1
 457 675 l 1,1,-1
 505 675 l 1,2,-1
 258 -10 l 1,3,-1
 210 -10 l 1,0,-1
218 667 m 1,4,-1
 218 244 l 1,5,-1
 148 244 l 1,6,-1
 148 589 l 1,7,-1
 59 546 l 1,8,-1
 34 602 l 1,9,-1
 170 667 l 1,10,-1
 218 667 l 1,4,-1
674 0 m 1,11,-1
 603 0 l 1,12,-1
 603 90 l 1,13,-1
 428 90 l 1,14,-1
 416 132 l 1,15,-1
 619 423 l 1,16,-1
 674 423 l 1,17,-1
 674 153 l 1,18,-1
 715 153 l 1,19,-1
 715 90 l 1,20,-1
 674 90 l 1,21,-1
 674 0 l 1,11,-1
603 153 m 1,22,-1
 603 300 l 1,23,-1
 502 153 l 1,24,-1
 603 153 l 1,22,-1
EndSplineSet
EndChar

StartChar: onehalf
Encoding: 189 189 126
Width: 795
GlyphClass: 2
Flags: W
LayerCount: 2
Fore
SplineSet
210 -10 m 1,0,-1
 457 675 l 1,1,-1
 505 675 l 1,2,-1
 258 -10 l 1,3,-1
 210 -10 l 1,0,-1
218 667 m 1,4,-1
 218 244 l 1,5,-1
 148 244 l 1,6,-1
 148 589 l 1,7,-1
 59 546 l 1,8,-1
 34 602 l 1,9,-1
 170 667 l 1,10,-1
 218 667 l 1,4,-1
746 0 m 1,11,-1
 477 0 l 1,12,-1
 464 43 l 1,13,-1
 552 133 l 2,14,15
 663 246 663 246 663 300 c 0,16,17
 663 365 663 365 601 365 c 0,18,19
 557 365 557 365 497 335 c 1,20,-1
 469 389 l 1,21,22
 534 428 534 428 598.5 428 c 128,-1,23
 663 428 663 428 701 396.5 c 128,-1,24
 739 365 739 365 739 308 c 0,25,26
 739 214 739 214 593 83 c 1,27,-1
 569 61 l 1,28,-1
 746 64 l 1,29,-1
 746 0 l 1,11,-1
EndSplineSet
EndChar

StartChar: threequarters
Encoding: 190 190 127
Width: 795
GlyphClass: 2
Flags: W
LayerCount: 2
Fore
SplineSet
263 -10 m 1,0,-1
 510 675 l 1,1,-1
 558 675 l 1,2,-1
 311 -10 l 1,3,-1
 263 -10 l 1,0,-1
189 609 m 0,4,5
 151 609 151 609 97 579 c 1,6,-1
 71 633 l 1,7,8
 139 672 139 672 196.5 672 c 128,-1,9
 254 672 254 672 286.5 640 c 128,-1,10
 319 608 319 608 319 570 c 0,11,12
 319 492 319 492 256 464 c 1,13,14
 327 434 327 434 327 361 c 0,15,16
 327 311 327 311 289 273.5 c 128,-1,17
 251 236 251 236 187 236 c 128,-1,18
 123 236 123 236 60 266 c 1,19,-1
 84 319 l 1,20,21
 131 297 131 297 170 297 c 128,-1,22
 209 297 209 297 230 317.5 c 128,-1,23
 251 338 251 338 251 366 c 128,-1,24
 251 394 251 394 231 413.5 c 128,-1,25
 211 433 211 433 172 433 c 2,26,-1
 109 433 l 1,27,-1
 109 491 l 1,28,-1
 167 491 l 2,29,30
 203 491 203 491 223 510 c 128,-1,31
 243 529 243 529 243 556 c 0,32,33
 243 609 243 609 189 609 c 0,4,5
674 0 m 1,34,-1
 603 0 l 1,35,-1
 603 90 l 1,36,-1
 428 90 l 1,37,-1
 416 132 l 1,38,-1
 619 423 l 1,39,-1
 674 423 l 1,40,-1
 674 153 l 1,41,-1
 715 153 l 1,42,-1
 715 90 l 1,43,-1
 674 90 l 1,44,-1
 674 0 l 1,34,-1
603 153 m 1,45,-1
 603 300 l 1,46,-1
 502 153 l 1,47,-1
 603 153 l 1,45,-1
EndSplineSet
EndChar

StartChar: questiondown
Encoding: 191 191 128
Width: 335
GlyphClass: 2
Flags: W
LayerCount: 2
Fore
SplineSet
238 287 m 1,0,1
 257 220 257 220 257 175 c 128,-1,2
 257 130 257 130 230.5 100.5 c 128,-1,3
 204 71 204 71 172.5 54 c 128,-1,4
 141 37 141 37 114.5 9 c 128,-1,5
 88 -19 88 -19 88 -52.5 c 128,-1,6
 88 -86 88 -86 118 -109.5 c 128,-1,7
 148 -133 148 -133 220 -133 c 0,8,9
 253 -133 253 -133 285 -129 c 1,10,-1
 277 -195 l 1,11,12
 246 -198 246 -198 201 -198 c 128,-1,13
 156 -198 156 -198 110.5 -185 c 128,-1,14
 65 -172 65 -172 42 -150 c 0,15,16
 0 -108 0 -108 0 -60.5 c 128,-1,17
 0 -13 0 -13 19.5 18.5 c 128,-1,18
 39 50 39 50 67 69.5 c 128,-1,19
 95 89 95 89 122 106 c 1,20,21
 189 145 189 145 189 183 c 128,-1,22
 189 221 189 221 172 282 c 1,23,24
 236 287 236 287 238 287 c 1,0,1
197 461 m 128,-1,26
 219 461 219 461 234.5 445.5 c 128,-1,27
 250 430 250 430 250 407 c 128,-1,28
 250 384 250 384 234.5 368.5 c 128,-1,29
 219 353 219 353 197 353 c 128,-1,30
 175 353 175 353 159.5 368.5 c 128,-1,31
 144 384 144 384 144 407 c 128,-1,32
 144 430 144 430 159.5 445.5 c 128,-1,25
 175 461 175 461 197 461 c 128,-1,26
EndSplineSet
EndChar

StartChar: Agrave
Encoding: 192 192 129
Width: 623
GlyphClass: 2
Flags: W
LayerCount: 2
Fore
SplineSet
518 0 m 1,0,-1
 439 225 l 1,1,-1
 178 225 l 1,2,-1
 99 0 l 1,3,-1
 10 0 l 1,4,-1
 260 691 l 1,5,-1
 363 691 l 1,6,-1
 613 0 l 1,7,-1
 518 0 l 1,0,-1
414 298 m 1,8,-1
 327 547 l 1,9,-1
 311 603 l 1,10,-1
 307 603 l 1,11,-1
 291 547 l 1,12,-1
 204 298 l 1,13,-1
 414 298 l 1,8,-1
378 742 m 1,14,-1
 314 742 l 1,15,-1
 179 872 l 1,16,-1
 251 926 l 1,17,-1
 378 742 l 1,14,-1
EndSplineSet
EndChar

StartChar: Aacute
Encoding: 193 193 130
Width: 623
GlyphClass: 2
Flags: W
LayerCount: 2
Fore
SplineSet
518 0 m 1,0,-1
 439 225 l 1,1,-1
 178 225 l 1,2,-1
 99 0 l 1,3,-1
 10 0 l 1,4,-1
 260 691 l 1,5,-1
 363 691 l 1,6,-1
 613 0 l 1,7,-1
 518 0 l 1,0,-1
414 298 m 1,8,-1
 327 547 l 1,9,-1
 311 603 l 1,10,-1
 307 603 l 1,11,-1
 291 547 l 1,12,-1
 204 298 l 1,13,-1
 414 298 l 1,8,-1
276 742 m 1,14,-1
 212 742 l 1,15,-1
 339 926 l 1,16,-1
 411 872 l 1,17,-1
 276 742 l 1,14,-1
EndSplineSet
EndChar

StartChar: Acircumflex
Encoding: 194 194 131
Width: 623
GlyphClass: 2
Flags: W
LayerCount: 2
Fore
SplineSet
518 0 m 1,0,-1
 439 225 l 1,1,-1
 178 225 l 1,2,-1
 99 0 l 1,3,-1
 10 0 l 1,4,-1
 260 691 l 1,5,-1
 363 691 l 1,6,-1
 613 0 l 1,7,-1
 518 0 l 1,0,-1
414 298 m 1,8,-1
 327 547 l 1,9,-1
 311 603 l 1,10,-1
 307 603 l 1,11,-1
 291 547 l 1,12,-1
 204 298 l 1,13,-1
 414 298 l 1,8,-1
430 742 m 1,14,-1
 377 742 l 1,15,-1
 313 826 l 1,16,-1
 308 826 l 1,17,-1
 245 742 l 1,18,-1
 192 742 l 1,19,-1
 289 924 l 1,20,-1
 333 924 l 1,21,-1
 430 742 l 1,14,-1
EndSplineSet
EndChar

StartChar: Atilde
Encoding: 195 195 132
Width: 623
GlyphClass: 2
Flags: W
LayerCount: 2
Fore
SplineSet
518 0 m 1,0,-1
 439 225 l 1,1,-1
 178 225 l 1,2,-1
 99 0 l 1,3,-1
 10 0 l 1,4,-1
 260 691 l 1,5,-1
 363 691 l 1,6,-1
 613 0 l 1,7,-1
 518 0 l 1,0,-1
414 298 m 1,8,-1
 327 547 l 1,9,-1
 311 603 l 1,10,-1
 307 603 l 1,11,-1
 291 547 l 1,12,-1
 204 298 l 1,13,-1
 414 298 l 1,8,-1
377 780 m 0,14,15
 352 780 352 780 304 796 c 128,-1,16
 256 812 256 812 237 812 c 0,17,18
 203 812 203 812 188 775 c 1,19,-1
 149 792 l 1,20,21
 180 885 180 885 246 885 c 0,22,23
 271 885 271 885 319 869 c 128,-1,24
 367 853 367 853 386 853 c 0,25,26
 420 853 420 853 435 890 c 1,27,-1
 474 873 l 1,28,29
 443 780 443 780 377 780 c 0,14,15
EndSplineSet
EndChar

StartChar: Adieresis
Encoding: 196 196 133
Width: 623
GlyphClass: 2
Flags: W
LayerCount: 2
Fore
SplineSet
518 0 m 1,0,-1
 439 225 l 1,1,-1
 178 225 l 1,2,-1
 99 0 l 1,3,-1
 10 0 l 1,4,-1
 260 691 l 1,5,-1
 363 691 l 1,6,-1
 613 0 l 1,7,-1
 518 0 l 1,0,-1
414 298 m 1,8,-1
 327 547 l 1,9,-1
 311 603 l 1,10,-1
 307 603 l 1,11,-1
 291 547 l 1,12,-1
 204 298 l 1,13,-1
 414 298 l 1,8,-1
221 776 m 128,-1,15
 198 776 198 776 182 792.5 c 128,-1,16
 166 809 166 809 166 832.5 c 128,-1,17
 166 856 166 856 182 872 c 128,-1,18
 198 888 198 888 221 888 c 128,-1,19
 244 888 244 888 260 872 c 128,-1,20
 276 856 276 856 276 832.5 c 128,-1,21
 276 809 276 809 260 792.5 c 128,-1,14
 244 776 244 776 221 776 c 128,-1,15
401 776 m 128,-1,23
 378 776 378 776 362 792.5 c 128,-1,24
 346 809 346 809 346 832.5 c 128,-1,25
 346 856 346 856 362 872 c 128,-1,26
 378 888 378 888 401 888 c 128,-1,27
 424 888 424 888 440 872 c 128,-1,28
 456 856 456 856 456 832.5 c 128,-1,29
 456 809 456 809 440 792.5 c 128,-1,22
 424 776 424 776 401 776 c 128,-1,23
EndSplineSet
EndChar

StartChar: Aring
Encoding: 197 197 134
Width: 623
GlyphClass: 2
Flags: W
LayerCount: 2
Fore
SplineSet
518 0 m 1,0,-1
 439 225 l 1,1,-1
 178 225 l 1,2,-1
 99 0 l 1,3,-1
 10 0 l 1,4,-1
 260 691 l 1,5,-1
 363 691 l 1,6,-1
 613 0 l 1,7,-1
 518 0 l 1,0,-1
414 298 m 1,8,-1
 327 547 l 1,9,-1
 311 603 l 1,10,-1
 307 603 l 1,11,-1
 291 547 l 1,12,-1
 204 298 l 1,13,-1
 414 298 l 1,8,-1
311 781 m 0,14,15
 355 781 355 781 355 835.5 c 128,-1,16
 355 890 355 890 309.5 890 c 128,-1,17
 264 890 264 890 264 840 c 0,18,19
 264 815 264 815 276 798 c 128,-1,20
 288 781 288 781 311 781 c 0,14,15
207 835 m 128,-1,22
 207 878 207 878 237.5 909 c 128,-1,23
 268 940 268 940 311.5 940 c 128,-1,24
 355 940 355 940 385.5 909.5 c 128,-1,25
 416 879 416 879 416 835.5 c 128,-1,26
 416 792 416 792 386 761.5 c 128,-1,27
 356 731 356 731 312 731 c 128,-1,28
 268 731 268 731 237.5 761.5 c 128,-1,21
 207 792 207 792 207 835 c 128,-1,22
EndSplineSet
EndChar

StartChar: AE
Encoding: 198 198 135
Width: 886
GlyphClass: 2
Flags: W
LayerCount: 2
Fore
SplineSet
426 0 m 1,0,-1
 426 231 l 1,1,-1
 218 231 l 1,2,-1
 89 0 l 1,3,-1
 0 0 l 1,4,-1
 379 691 l 1,5,-1
 832 691 l 1,6,-1
 813 615 l 1,7,-1
 512 615 l 1,8,-1
 512 387 l 1,9,-1
 796 387 l 1,10,-1
 796 314 l 1,11,-1
 512 314 l 1,12,-1
 512 76 l 1,13,-1
 851 76 l 1,14,-1
 851 0 l 1,15,-1
 426 0 l 1,0,-1
426 304 m 1,16,-1
 426 623 l 1,17,-1
 258 304 l 1,18,-1
 426 304 l 1,16,-1
EndSplineSet
EndChar

StartChar: Ccedilla
Encoding: 199 199 136
Width: 612
GlyphClass: 2
Flags: W
LayerCount: 2
Fore
SplineSet
149 321 m 0,0,1
 149 463 149 463 218 545 c 128,-1,2
 287 627 287 627 409 627 c 0,3,4
 478 627 478 627 547 606 c 1,5,-1
 571 676 l 1,6,7
 484 703 484 703 409 703 c 0,8,9
 246 703 246 703 148 596 c 128,-1,10
 50 489 50 489 50 321 c 0,11,12
 50 233 50 233 83 159 c 128,-1,13
 116 85 116 85 187.5 36.5 c 128,-1,14
 259 -12 259 -12 367 -12 c 128,-1,15
 475 -12 475 -12 587 37 c 1,16,-1
 576 113 l 1,17,18
 477 62 477 62 373.5 62 c 128,-1,19
 270 62 270 62 209.5 134 c 128,-1,20
 149 206 149 206 149 321 c 0,0,1
455 -143 m 0,21,22
 455 -188 455 -188 423 -215 c 128,-1,23
 391 -242 391 -242 344.5 -242 c 128,-1,24
 298 -242 298 -242 254 -215 c 1,25,-1
 270 -175 l 1,26,27
 300 -195 300 -195 328.5 -195 c 128,-1,28
 357 -195 357 -195 374.5 -178.5 c 128,-1,29
 392 -162 392 -162 392 -140.5 c 128,-1,30
 392 -119 392 -119 373 -102.5 c 128,-1,31
 354 -86 354 -86 318 -83 c 1,32,-1
 309 -70 l 1,33,-1
 341 8 l 1,34,-1
 376 8 l 1,35,-1
 365 -47 l 1,36,37
 455 -77 455 -77 455 -143 c 0,21,22
EndSplineSet
EndChar

StartChar: Egrave
Encoding: 200 200 137
Width: 535
GlyphClass: 2
Flags: W
LayerCount: 2
Fore
SplineSet
75 0 m 1,0,-1
 75 691 l 1,1,-1
 481 691 l 1,2,-1
 462 615 l 1,3,-1
 161 615 l 1,4,-1
 161 387 l 1,5,-1
 445 387 l 1,6,-1
 445 314 l 1,7,-1
 161 314 l 1,8,-1
 161 76 l 1,9,-1
 500 76 l 1,10,-1
 500 0 l 1,11,-1
 75 0 l 1,0,-1
367 742 m 1,12,-1
 303 742 l 1,13,-1
 168 872 l 1,14,-1
 240 926 l 1,15,-1
 367 742 l 1,12,-1
EndSplineSet
EndChar

StartChar: Eacute
Encoding: 201 201 138
Width: 535
GlyphClass: 2
Flags: W
LayerCount: 2
Fore
SplineSet
75 0 m 1,0,-1
 75 691 l 1,1,-1
 481 691 l 1,2,-1
 462 615 l 1,3,-1
 161 615 l 1,4,-1
 161 387 l 1,5,-1
 445 387 l 1,6,-1
 445 314 l 1,7,-1
 161 314 l 1,8,-1
 161 76 l 1,9,-1
 500 76 l 1,10,-1
 500 0 l 1,11,-1
 75 0 l 1,0,-1
262 742 m 1,12,-1
 198 742 l 1,13,-1
 325 926 l 1,14,-1
 397 872 l 1,15,-1
 262 742 l 1,12,-1
EndSplineSet
EndChar

StartChar: Ecircumflex
Encoding: 202 202 139
Width: 535
GlyphClass: 2
Flags: W
LayerCount: 2
Fore
SplineSet
75 0 m 1,0,-1
 75 691 l 1,1,-1
 481 691 l 1,2,-1
 462 615 l 1,3,-1
 161 615 l 1,4,-1
 161 387 l 1,5,-1
 445 387 l 1,6,-1
 445 314 l 1,7,-1
 161 314 l 1,8,-1
 161 76 l 1,9,-1
 500 76 l 1,10,-1
 500 0 l 1,11,-1
 75 0 l 1,0,-1
406 742 m 1,12,-1
 353 742 l 1,13,-1
 289 826 l 1,14,-1
 284 826 l 1,15,-1
 221 742 l 1,16,-1
 168 742 l 1,17,-1
 265 924 l 1,18,-1
 309 924 l 1,19,-1
 406 742 l 1,12,-1
EndSplineSet
EndChar

StartChar: Edieresis
Encoding: 203 203 140
Width: 535
GlyphClass: 2
Flags: W
LayerCount: 2
Fore
SplineSet
75 0 m 1,0,-1
 75 691 l 1,1,-1
 481 691 l 1,2,-1
 462 615 l 1,3,-1
 161 615 l 1,4,-1
 161 387 l 1,5,-1
 445 387 l 1,6,-1
 445 314 l 1,7,-1
 161 314 l 1,8,-1
 161 76 l 1,9,-1
 500 76 l 1,10,-1
 500 0 l 1,11,-1
 75 0 l 1,0,-1
197 776 m 128,-1,13
 174 776 174 776 158 792.5 c 128,-1,14
 142 809 142 809 142 832.5 c 128,-1,15
 142 856 142 856 158 872 c 128,-1,16
 174 888 174 888 197 888 c 128,-1,17
 220 888 220 888 236 872 c 128,-1,18
 252 856 252 856 252 832.5 c 128,-1,19
 252 809 252 809 236 792.5 c 128,-1,12
 220 776 220 776 197 776 c 128,-1,13
377 776 m 128,-1,21
 354 776 354 776 338 792.5 c 128,-1,22
 322 809 322 809 322 832.5 c 128,-1,23
 322 856 322 856 338 872 c 128,-1,24
 354 888 354 888 377 888 c 128,-1,25
 400 888 400 888 416 872 c 128,-1,26
 432 856 432 856 432 832.5 c 128,-1,27
 432 809 432 809 416 792.5 c 128,-1,20
 400 776 400 776 377 776 c 128,-1,21
EndSplineSet
EndChar

StartChar: Igrave
Encoding: 204 204 141
Width: 256
GlyphClass: 2
Flags: W
LayerCount: 2
Fore
SplineSet
85 0 m 1,0,-1
 85 691 l 1,1,-1
 171 691 l 1,2,-1
 171 0 l 1,3,-1
 85 0 l 1,0,-1
227 742 m 1,4,-1
 163 742 l 1,5,-1
 28 872 l 1,6,-1
 100 926 l 1,7,-1
 227 742 l 1,4,-1
EndSplineSet
EndChar

StartChar: Iacute
Encoding: 205 205 142
Width: 256
GlyphClass: 2
Flags: W
LayerCount: 2
Fore
SplineSet
85 0 m 1,0,-1
 85 691 l 1,1,-1
 171 691 l 1,2,-1
 171 0 l 1,3,-1
 85 0 l 1,0,-1
93 742 m 1,4,-1
 29 742 l 1,5,-1
 156 926 l 1,6,-1
 228 872 l 1,7,-1
 93 742 l 1,4,-1
EndSplineSet
EndChar

StartChar: Icircumflex
Encoding: 206 206 143
Width: 256
GlyphClass: 2
Flags: W
LayerCount: 2
Fore
SplineSet
85 0 m 1,0,-1
 85 691 l 1,1,-1
 171 691 l 1,2,-1
 171 0 l 1,3,-1
 85 0 l 1,0,-1
247 742 m 1,4,-1
 194 742 l 1,5,-1
 130 826 l 1,6,-1
 125 826 l 1,7,-1
 62 742 l 1,8,-1
 9 742 l 1,9,-1
 106 924 l 1,10,-1
 150 924 l 1,11,-1
 247 742 l 1,4,-1
EndSplineSet
EndChar

StartChar: Idieresis
Encoding: 207 207 144
Width: 256
GlyphClass: 2
Flags: W
LayerCount: 2
Fore
SplineSet
85 0 m 1,0,-1
 85 691 l 1,1,-1
 171 691 l 1,2,-1
 171 0 l 1,3,-1
 85 0 l 1,0,-1
38 776 m 128,-1,5
 15 776 15 776 -1 792.5 c 128,-1,6
 -17 809 -17 809 -17 832.5 c 128,-1,7
 -17 856 -17 856 -0.5 872 c 128,-1,8
 16 888 16 888 38 888 c 128,-1,9
 60 888 60 888 76.5 872 c 128,-1,10
 93 856 93 856 93 832.5 c 128,-1,11
 93 809 93 809 77 792.5 c 128,-1,4
 61 776 61 776 38 776 c 128,-1,5
218 776 m 128,-1,13
 195 776 195 776 179 792.5 c 128,-1,14
 163 809 163 809 163 832.5 c 128,-1,15
 163 856 163 856 179.5 872 c 128,-1,16
 196 888 196 888 218 888 c 128,-1,17
 240 888 240 888 256.5 872 c 128,-1,18
 273 856 273 856 273 832.5 c 128,-1,19
 273 809 273 809 257 792.5 c 128,-1,12
 241 776 241 776 218 776 c 128,-1,13
EndSplineSet
EndChar

StartChar: Eth
Encoding: 208 208 145
Width: 693
GlyphClass: 2
Flags: W
LayerCount: 2
Fore
SplineSet
75 0 m 1,0,-1
 75 691 l 1,1,-1
 335 691 l 2,2,3
 410 691 410 691 470 664 c 128,-1,4
 530 637 530 637 567 592 c 0,5,6
 643 498 643 498 643 370 c 0,7,8
 643 208 643 208 545 104 c 128,-1,9
 447 0 447 0 284 0 c 2,10,-1
 75 0 l 1,0,-1
324 615 m 2,11,-1
 161 615 l 1,12,-1
 161 76 l 1,13,-1
 284 76 l 2,14,15
 408 76 408 76 476 154 c 128,-1,16
 544 232 544 232 544 370 c 0,17,18
 544 473 544 473 486.5 544 c 128,-1,19
 429 615 429 615 324 615 c 2,11,-1
382 315 m 1,20,-1
 0 315 l 1,21,-1
 0 369 l 1,22,-1
 382 369 l 1,23,-1
 382 315 l 1,20,-1
EndSplineSet
EndChar

StartChar: Ntilde
Encoding: 209 209 146
Width: 731
GlyphClass: 2
Flags: W
LayerCount: 2
Fore
SplineSet
570 155 m 1,0,-1
 570 691 l 1,1,-1
 656 691 l 1,2,-1
 656 0 l 1,3,-1
 573 0 l 1,4,-1
 166 537 l 1,5,-1
 161 537 l 1,6,-1
 161 0 l 1,7,-1
 75 0 l 1,8,-1
 75 691 l 1,9,-1
 158 691 l 1,10,-1
 565 155 l 1,11,-1
 570 155 l 1,0,-1
431 780 m 0,12,13
 406 780 406 780 358 796 c 128,-1,14
 310 812 310 812 291 812 c 0,15,16
 257 812 257 812 242 775 c 1,17,-1
 203 792 l 1,18,19
 234 885 234 885 300 885 c 0,20,21
 325 885 325 885 373 869 c 128,-1,22
 421 853 421 853 440 853 c 0,23,24
 474 853 474 853 489 890 c 1,25,-1
 528 873 l 1,26,27
 497 780 497 780 431 780 c 0,12,13
EndSplineSet
EndChar

StartChar: Ograve
Encoding: 210 210 147
Width: 759
GlyphClass: 2
Flags: W
LayerCount: 2
Fore
SplineSet
355 -12 m 0,0,1
 280 -12 280 -12 220.5 16 c 128,-1,2
 161 44 161 44 124 91 c 0,3,4
 50 187 50 187 50 321 c 0,5,6
 50 489 50 489 147 596 c 128,-1,7
 244 703 244 703 404 703 c 0,8,9
 479 703 479 703 538.5 675 c 128,-1,10
 598 647 598 647 634 600 c 0,11,12
 709 504 709 504 709 370 c 0,13,14
 709 202 709 202 612 95 c 128,-1,15
 515 -12 515 -12 355 -12 c 0,0,1
400 628 m 0,16,17
 276 628 276 628 209 547 c 128,-1,18
 142 466 142 466 142 320 c 0,19,20
 142 213 142 213 199.5 137 c 128,-1,21
 257 61 257 61 360 61 c 0,22,23
 484 61 484 61 550.5 142 c 128,-1,24
 617 223 617 223 617 369 c 0,25,26
 617 476 617 476 560 552 c 128,-1,27
 503 628 503 628 400 628 c 0,16,17
479 742 m 1,28,-1
 415 742 l 1,29,-1
 280 872 l 1,30,-1
 352 926 l 1,31,-1
 479 742 l 1,28,-1
EndSplineSet
EndChar

StartChar: Oacute
Encoding: 211 211 148
Width: 759
GlyphClass: 2
Flags: W
LayerCount: 2
Fore
SplineSet
355 -12 m 0,0,1
 280 -12 280 -12 220.5 16 c 128,-1,2
 161 44 161 44 124 91 c 0,3,4
 50 187 50 187 50 321 c 0,5,6
 50 489 50 489 147 596 c 128,-1,7
 244 703 244 703 404 703 c 0,8,9
 479 703 479 703 538.5 675 c 128,-1,10
 598 647 598 647 634 600 c 0,11,12
 709 504 709 504 709 370 c 0,13,14
 709 202 709 202 612 95 c 128,-1,15
 515 -12 515 -12 355 -12 c 0,0,1
400 628 m 0,16,17
 276 628 276 628 209 547 c 128,-1,18
 142 466 142 466 142 320 c 0,19,20
 142 213 142 213 199.5 137 c 128,-1,21
 257 61 257 61 360 61 c 0,22,23
 484 61 484 61 550.5 142 c 128,-1,24
 617 223 617 223 617 369 c 0,25,26
 617 476 617 476 560 552 c 128,-1,27
 503 628 503 628 400 628 c 0,16,17
374 742 m 1,28,-1
 310 742 l 1,29,-1
 437 926 l 1,30,-1
 509 872 l 1,31,-1
 374 742 l 1,28,-1
EndSplineSet
EndChar

StartChar: Ocircumflex
Encoding: 212 212 149
Width: 759
GlyphClass: 2
Flags: W
LayerCount: 2
Fore
SplineSet
355 -12 m 0,0,1
 280 -12 280 -12 220.5 16 c 128,-1,2
 161 44 161 44 124 91 c 0,3,4
 50 187 50 187 50 321 c 0,5,6
 50 489 50 489 147 596 c 128,-1,7
 244 703 244 703 404 703 c 0,8,9
 479 703 479 703 538.5 675 c 128,-1,10
 598 647 598 647 634 600 c 0,11,12
 709 504 709 504 709 370 c 0,13,14
 709 202 709 202 612 95 c 128,-1,15
 515 -12 515 -12 355 -12 c 0,0,1
400 628 m 0,16,17
 276 628 276 628 209 547 c 128,-1,18
 142 466 142 466 142 320 c 0,19,20
 142 213 142 213 199.5 137 c 128,-1,21
 257 61 257 61 360 61 c 0,22,23
 484 61 484 61 550.5 142 c 128,-1,24
 617 223 617 223 617 369 c 0,25,26
 617 476 617 476 560 552 c 128,-1,27
 503 628 503 628 400 628 c 0,16,17
498 742 m 1,28,-1
 445 742 l 1,29,-1
 381 826 l 1,30,-1
 376 826 l 1,31,-1
 313 742 l 1,32,-1
 260 742 l 1,33,-1
 357 924 l 1,34,-1
 401 924 l 1,35,-1
 498 742 l 1,28,-1
EndSplineSet
EndChar

StartChar: Otilde
Encoding: 213 213 150
Width: 759
GlyphClass: 2
Flags: W
LayerCount: 2
Fore
SplineSet
355 -12 m 0,0,1
 280 -12 280 -12 220.5 16 c 128,-1,2
 161 44 161 44 124 91 c 0,3,4
 50 187 50 187 50 321 c 0,5,6
 50 489 50 489 147 596 c 128,-1,7
 244 703 244 703 404 703 c 0,8,9
 479 703 479 703 538.5 675 c 128,-1,10
 598 647 598 647 634 600 c 0,11,12
 709 504 709 504 709 370 c 0,13,14
 709 202 709 202 612 95 c 128,-1,15
 515 -12 515 -12 355 -12 c 0,0,1
400 628 m 0,16,17
 276 628 276 628 209 547 c 128,-1,18
 142 466 142 466 142 320 c 0,19,20
 142 213 142 213 199.5 137 c 128,-1,21
 257 61 257 61 360 61 c 0,22,23
 484 61 484 61 550.5 142 c 128,-1,24
 617 223 617 223 617 369 c 0,25,26
 617 476 617 476 560 552 c 128,-1,27
 503 628 503 628 400 628 c 0,16,17
445 780 m 0,28,29
 420 780 420 780 372 796 c 128,-1,30
 324 812 324 812 305 812 c 0,31,32
 271 812 271 812 256 775 c 1,33,-1
 217 792 l 1,34,35
 248 885 248 885 314 885 c 0,36,37
 339 885 339 885 387 869 c 128,-1,38
 435 853 435 853 454 853 c 0,39,40
 488 853 488 853 503 890 c 1,41,-1
 542 873 l 1,42,43
 511 780 511 780 445 780 c 0,28,29
EndSplineSet
EndChar

StartChar: Odieresis
Encoding: 214 214 151
Width: 759
GlyphClass: 2
Flags: W
LayerCount: 2
Fore
SplineSet
355 -12 m 0,0,1
 280 -12 280 -12 220.5 16 c 128,-1,2
 161 44 161 44 124 91 c 0,3,4
 50 187 50 187 50 321 c 0,5,6
 50 489 50 489 147 596 c 128,-1,7
 244 703 244 703 404 703 c 0,8,9
 479 703 479 703 538.5 675 c 128,-1,10
 598 647 598 647 634 600 c 0,11,12
 709 504 709 504 709 370 c 0,13,14
 709 202 709 202 612 95 c 128,-1,15
 515 -12 515 -12 355 -12 c 0,0,1
400 628 m 0,16,17
 276 628 276 628 209 547 c 128,-1,18
 142 466 142 466 142 320 c 0,19,20
 142 213 142 213 199.5 137 c 128,-1,21
 257 61 257 61 360 61 c 0,22,23
 484 61 484 61 550.5 142 c 128,-1,24
 617 223 617 223 617 369 c 0,25,26
 617 476 617 476 560 552 c 128,-1,27
 503 628 503 628 400 628 c 0,16,17
289 776 m 128,-1,29
 266 776 266 776 250 792.5 c 128,-1,30
 234 809 234 809 234 832.5 c 128,-1,31
 234 856 234 856 250 872 c 128,-1,32
 266 888 266 888 289 888 c 128,-1,33
 312 888 312 888 328 872 c 128,-1,34
 344 856 344 856 344 832.5 c 128,-1,35
 344 809 344 809 328 792.5 c 128,-1,28
 312 776 312 776 289 776 c 128,-1,29
469 776 m 128,-1,37
 446 776 446 776 430 792.5 c 128,-1,38
 414 809 414 809 414 832.5 c 128,-1,39
 414 856 414 856 430 872 c 128,-1,40
 446 888 446 888 469 888 c 128,-1,41
 492 888 492 888 508 872 c 128,-1,42
 524 856 524 856 524 832.5 c 128,-1,43
 524 809 524 809 508 792.5 c 128,-1,36
 492 776 492 776 469 776 c 128,-1,37
EndSplineSet
EndChar

StartChar: multiply
Encoding: 215 215 152
Width: 523
GlyphClass: 2
Flags: W
LayerCount: 2
Fore
SplineSet
443 529 m 1,0,-1
 487 486 l 1,1,-1
 305 304 l 1,2,-1
 486 123 l 1,3,-1
 443 79 l 1,4,-1
 261 260 l 1,5,-1
 81 80 l 1,6,-1
 37 123 l 1,7,-1
 218 304 l 1,8,-1
 37 485 l 1,9,-1
 80 529 l 1,10,-1
 261 347 l 1,11,-1
 443 529 l 1,0,-1
EndSplineSet
EndChar

StartChar: Oslash
Encoding: 216 216 153
Width: 759
GlyphClass: 2
Flags: W
LayerCount: 2
Fore
SplineSet
48 -81 m 1,0,-1
 644 760 l 1,1,-1
 709 760 l 1,2,-1
 113 -81 l 1,3,-1
 48 -81 l 1,0,-1
355 -12 m 0,4,5
 280 -12 280 -12 220.5 16 c 128,-1,6
 161 44 161 44 124 91 c 0,7,8
 50 187 50 187 50 321 c 0,9,10
 50 489 50 489 147 596 c 128,-1,11
 244 703 244 703 404 703 c 0,12,13
 479 703 479 703 538.5 675 c 128,-1,14
 598 647 598 647 634 600 c 0,15,16
 709 504 709 504 709 370 c 0,17,18
 709 202 709 202 612 95 c 128,-1,19
 515 -12 515 -12 355 -12 c 0,4,5
400 628 m 0,20,21
 276 628 276 628 209 547 c 128,-1,22
 142 466 142 466 142 320 c 0,23,24
 142 213 142 213 199.5 137 c 128,-1,25
 257 61 257 61 360 61 c 0,26,27
 484 61 484 61 550.5 142 c 128,-1,28
 617 223 617 223 617 369 c 0,29,30
 617 476 617 476 560 552 c 128,-1,31
 503 628 503 628 400 628 c 0,20,21
EndSplineSet
EndChar

StartChar: Ugrave
Encoding: 217 217 154
Width: 660
GlyphClass: 2
Flags: W
LayerCount: 2
Fore
SplineSet
156 691 m 1,0,-1
 156 222 l 2,1,2
 156 146 156 146 209 99 c 0,3,4
 251 61 251 61 330 61 c 0,5,6
 439 61 439 61 482 138 c 0,7,8
 504 176 504 176 504 222 c 2,9,-1
 504 691 l 1,10,-1
 590 691 l 1,11,-1
 590 222 l 2,12,13
 590 119 590 119 522.5 53.5 c 128,-1,14
 455 -12 455 -12 330 -12 c 128,-1,15
 205 -12 205 -12 137.5 53.5 c 128,-1,16
 70 119 70 119 70 222 c 2,17,-1
 70 691 l 1,18,-1
 156 691 l 1,0,-1
409 742 m 1,19,-1
 345 742 l 1,20,-1
 210 872 l 1,21,-1
 282 926 l 1,22,-1
 409 742 l 1,19,-1
EndSplineSet
EndChar

StartChar: Uacute
Encoding: 218 218 155
Width: 660
GlyphClass: 2
Flags: W
LayerCount: 2
Fore
SplineSet
156 691 m 1,0,-1
 156 222 l 2,1,2
 156 146 156 146 209 99 c 0,3,4
 251 61 251 61 330 61 c 0,5,6
 439 61 439 61 482 138 c 0,7,8
 504 176 504 176 504 222 c 2,9,-1
 504 691 l 1,10,-1
 590 691 l 1,11,-1
 590 222 l 2,12,13
 590 119 590 119 522.5 53.5 c 128,-1,14
 455 -12 455 -12 330 -12 c 128,-1,15
 205 -12 205 -12 137.5 53.5 c 128,-1,16
 70 119 70 119 70 222 c 2,17,-1
 70 691 l 1,18,-1
 156 691 l 1,0,-1
334 742 m 1,19,-1
 270 742 l 1,20,-1
 397 926 l 1,21,-1
 469 872 l 1,22,-1
 334 742 l 1,19,-1
EndSplineSet
EndChar

StartChar: Ucircumflex
Encoding: 219 219 156
Width: 660
GlyphClass: 2
Flags: W
LayerCount: 2
Fore
SplineSet
156 691 m 1,0,-1
 156 222 l 2,1,2
 156 146 156 146 209 99 c 0,3,4
 251 61 251 61 330 61 c 0,5,6
 439 61 439 61 482 138 c 0,7,8
 504 176 504 176 504 222 c 2,9,-1
 504 691 l 1,10,-1
 590 691 l 1,11,-1
 590 222 l 2,12,13
 590 119 590 119 522.5 53.5 c 128,-1,14
 455 -12 455 -12 330 -12 c 128,-1,15
 205 -12 205 -12 137.5 53.5 c 128,-1,16
 70 119 70 119 70 222 c 2,17,-1
 70 691 l 1,18,-1
 156 691 l 1,0,-1
449 742 m 1,19,-1
 396 742 l 1,20,-1
 332 826 l 1,21,-1
 327 826 l 1,22,-1
 264 742 l 1,23,-1
 211 742 l 1,24,-1
 308 924 l 1,25,-1
 352 924 l 1,26,-1
 449 742 l 1,19,-1
EndSplineSet
EndChar

StartChar: Udieresis
Encoding: 220 220 157
Width: 660
GlyphClass: 2
Flags: W
LayerCount: 2
Fore
SplineSet
156 691 m 1,0,-1
 156 222 l 2,1,2
 156 146 156 146 209 99 c 0,3,4
 251 61 251 61 330 61 c 0,5,6
 439 61 439 61 482 138 c 0,7,8
 504 176 504 176 504 222 c 2,9,-1
 504 691 l 1,10,-1
 590 691 l 1,11,-1
 590 222 l 2,12,13
 590 119 590 119 522.5 53.5 c 128,-1,14
 455 -12 455 -12 330 -12 c 128,-1,15
 205 -12 205 -12 137.5 53.5 c 128,-1,16
 70 119 70 119 70 222 c 2,17,-1
 70 691 l 1,18,-1
 156 691 l 1,0,-1
240 776 m 128,-1,20
 217 776 217 776 201 792.5 c 128,-1,21
 185 809 185 809 185 832.5 c 128,-1,22
 185 856 185 856 201.5 872 c 128,-1,23
 218 888 218 888 240 888 c 128,-1,24
 262 888 262 888 278.5 872 c 128,-1,25
 295 856 295 856 295 832.5 c 128,-1,26
 295 809 295 809 279 792.5 c 128,-1,19
 263 776 263 776 240 776 c 128,-1,20
420 776 m 128,-1,28
 397 776 397 776 381 792.5 c 128,-1,29
 365 809 365 809 365 832.5 c 128,-1,30
 365 856 365 856 381.5 872 c 128,-1,31
 398 888 398 888 420 888 c 128,-1,32
 442 888 442 888 458.5 872 c 128,-1,33
 475 856 475 856 475 832.5 c 128,-1,34
 475 809 475 809 459 792.5 c 128,-1,27
 443 776 443 776 420 776 c 128,-1,28
EndSplineSet
EndChar

StartChar: Yacute
Encoding: 221 221 158
Width: 558
GlyphClass: 2
Flags: W
LayerCount: 2
Fore
SplineSet
318 0 m 1,0,-1
 232 0 l 1,1,-1
 232 247 l 1,2,-1
 5 691 l 1,3,-1
 100 691 l 1,4,-1
 276 342 l 1,5,-1
 281 342 l 1,6,-1
 459 691 l 1,7,-1
 553 691 l 1,8,-1
 318 247 l 1,9,-1
 318 0 l 1,0,-1
284 742 m 1,10,-1
 220 742 l 1,11,-1
 347 926 l 1,12,-1
 419 872 l 1,13,-1
 284 742 l 1,10,-1
EndSplineSet
EndChar

StartChar: Thorn
Encoding: 222 222 159
Width: 523
GlyphClass: 2
Flags: W
LayerCount: 2
Fore
SplineSet
75 0 m 1,0,-1
 75 691 l 1,1,-1
 161 691 l 1,2,-1
 161 557 l 1,3,-1
 257 557 l 2,4,5
 363 557 363 557 428 501 c 128,-1,6
 493 445 493 445 493 345 c 128,-1,7
 493 245 493 245 428 189 c 128,-1,8
 363 133 363 133 257 133 c 2,9,-1
 161 133 l 1,10,-1
 161 0 l 1,11,-1
 75 0 l 1,0,-1
161 209 m 1,12,-1
 257 209 l 2,13,14
 401 209 401 209 401 345 c 128,-1,15
 401 481 401 481 257 481 c 2,16,-1
 161 481 l 1,17,-1
 161 209 l 1,12,-1
EndSplineSet
EndChar

StartChar: germandbls
Encoding: 223 223 160
Width: 552
GlyphClass: 2
Flags: W
LayerCount: 2
Fore
SplineSet
455 580 m 0,0,1
 455 538 455 538 434.5 501 c 128,-1,2
 414 464 414 464 394 434.5 c 128,-1,3
 374 405 374 405 374 382.5 c 128,-1,4
 374 360 374 360 391 337 c 128,-1,5
 408 314 408 314 432 292.5 c 128,-1,6
 456 271 456 271 480 248 c 0,7,8
 537 192 537 192 537 128 c 0,9,10
 537 87 537 87 519 57.5 c 128,-1,11
 501 28 501 28 472 14 c 0,12,13
 355 -42 355 -42 211 22 c 1,14,-1
 237 86 l 1,15,16
 299 56 299 56 356 56 c 0,17,18
 456 56 456 56 456 127 c 0,19,20
 456 162 456 162 398 215 c 0,21,22
 374 237 374 237 350 261 c 0,23,24
 293 320 293 320 293 383 c 0,25,26
 293 420 293 420 313.5 454.5 c 128,-1,27
 334 489 334 489 354 518.5 c 128,-1,28
 374 548 374 548 374 570 c 0,29,30
 374 609 374 609 343.5 633.5 c 128,-1,31
 313 658 313 658 273.5 658 c 128,-1,32
 234 658 234 658 205.5 631.5 c 128,-1,33
 177 605 177 605 177 554 c 2,34,-1
 177 0 l 1,35,-1
 95 0 l 1,36,-1
 95 393 l 1,37,-1
 27 393 l 1,38,-1
 27 456 l 1,39,-1
 95 456 l 1,40,-1
 95 554 l 2,41,42
 95 637 95 637 149 683.5 c 128,-1,43
 203 730 203 730 276 730 c 128,-1,44
 349 730 349 730 402 691.5 c 128,-1,45
 455 653 455 653 455 580 c 0,0,1
EndSplineSet
EndChar

StartChar: agrave
Encoding: 224 224 161
Width: 475
GlyphClass: 2
Flags: W
LayerCount: 2
Fore
SplineSet
322 273 m 1,0,-1
 322 317 l 2,1,2
 322 398 322 398 238 398 c 0,3,4
 172 398 172 398 100 355 c 1,5,-1
 71 415 l 1,6,7
 155 468 155 468 252 468 c 0,8,9
 320 468 320 468 363.5 433.5 c 128,-1,10
 407 399 407 399 407 327 c 2,11,-1
 407 0 l 1,12,-1
 353 0 l 1,13,-1
 328 60 l 1,14,15
 296 27 296 27 252 7.5 c 128,-1,16
 208 -12 208 -12 172 -12 c 0,17,18
 110 -12 110 -12 73 22 c 128,-1,19
 36 56 36 56 36 111 c 0,20,21
 36 273 36 273 322 273 c 1,0,-1
130.5 145.5 m 128,-1,23
 124 132 124 132 124 110.5 c 128,-1,24
 124 89 124 89 142.5 73.5 c 128,-1,25
 161 58 161 58 191 58 c 0,26,27
 254 58 254 58 322 114 c 1,28,-1
 322 214 l 1,29,30
 196 212 196 212 156 176 c 0,31,22
 137 159 137 159 130.5 145.5 c 128,-1,23
322 513 m 1,32,-1
 258 513 l 1,33,-1
 123 643 l 1,34,-1
 195 697 l 1,35,-1
 322 513 l 1,32,-1
EndSplineSet
EndChar

StartChar: aacute
Encoding: 225 225 162
Width: 475
GlyphClass: 2
Flags: W
LayerCount: 2
Fore
SplineSet
322 273 m 1,0,-1
 322 317 l 2,1,2
 322 398 322 398 238 398 c 0,3,4
 172 398 172 398 100 355 c 1,5,-1
 71 415 l 1,6,7
 155 468 155 468 252 468 c 0,8,9
 320 468 320 468 363.5 433.5 c 128,-1,10
 407 399 407 399 407 327 c 2,11,-1
 407 0 l 1,12,-1
 353 0 l 1,13,-1
 328 60 l 1,14,15
 296 27 296 27 252 7.5 c 128,-1,16
 208 -12 208 -12 172 -12 c 0,17,18
 110 -12 110 -12 73 22 c 128,-1,19
 36 56 36 56 36 111 c 0,20,21
 36 273 36 273 322 273 c 1,0,-1
130.5 145.5 m 128,-1,23
 124 132 124 132 124 110.5 c 128,-1,24
 124 89 124 89 142.5 73.5 c 128,-1,25
 161 58 161 58 191 58 c 0,26,27
 254 58 254 58 322 114 c 1,28,-1
 322 214 l 1,29,30
 196 212 196 212 156 176 c 0,31,22
 137 159 137 159 130.5 145.5 c 128,-1,23
259 513 m 1,32,-1
 195 513 l 1,33,-1
 322 697 l 1,34,-1
 394 643 l 1,35,-1
 259 513 l 1,32,-1
EndSplineSet
EndChar

StartChar: acircumflex
Encoding: 226 226 163
Width: 475
GlyphClass: 2
Flags: W
LayerCount: 2
Fore
SplineSet
322 273 m 1,0,-1
 322 317 l 2,1,2
 322 398 322 398 238 398 c 0,3,4
 172 398 172 398 100 355 c 1,5,-1
 71 415 l 1,6,7
 155 468 155 468 252 468 c 0,8,9
 320 468 320 468 363.5 433.5 c 128,-1,10
 407 399 407 399 407 327 c 2,11,-1
 407 0 l 1,12,-1
 353 0 l 1,13,-1
 328 60 l 1,14,15
 296 27 296 27 252 7.5 c 128,-1,16
 208 -12 208 -12 172 -12 c 0,17,18
 110 -12 110 -12 73 22 c 128,-1,19
 36 56 36 56 36 111 c 0,20,21
 36 273 36 273 322 273 c 1,0,-1
130.5 145.5 m 128,-1,23
 124 132 124 132 124 110.5 c 128,-1,24
 124 89 124 89 142.5 73.5 c 128,-1,25
 161 58 161 58 191 58 c 0,26,27
 254 58 254 58 322 114 c 1,28,-1
 322 214 l 1,29,30
 196 212 196 212 156 176 c 0,31,22
 137 159 137 159 130.5 145.5 c 128,-1,23
366 513 m 1,32,-1
 313 513 l 1,33,-1
 249 597 l 1,34,-1
 244 597 l 1,35,-1
 181 513 l 1,36,-1
 128 513 l 1,37,-1
 225 695 l 1,38,-1
 269 695 l 1,39,-1
 366 513 l 1,32,-1
EndSplineSet
EndChar

StartChar: atilde
Encoding: 227 227 164
Width: 475
GlyphClass: 2
Flags: W
LayerCount: 2
Fore
SplineSet
322 273 m 1,0,-1
 322 317 l 2,1,2
 322 398 322 398 238 398 c 0,3,4
 172 398 172 398 100 355 c 1,5,-1
 71 415 l 1,6,7
 155 468 155 468 252 468 c 0,8,9
 320 468 320 468 363.5 433.5 c 128,-1,10
 407 399 407 399 407 327 c 2,11,-1
 407 0 l 1,12,-1
 353 0 l 1,13,-1
 328 60 l 1,14,15
 296 27 296 27 252 7.5 c 128,-1,16
 208 -12 208 -12 172 -12 c 0,17,18
 110 -12 110 -12 73 22 c 128,-1,19
 36 56 36 56 36 111 c 0,20,21
 36 273 36 273 322 273 c 1,0,-1
130.5 145.5 m 128,-1,23
 124 132 124 132 124 110.5 c 128,-1,24
 124 89 124 89 142.5 73.5 c 128,-1,25
 161 58 161 58 191 58 c 0,26,27
 254 58 254 58 322 114 c 1,28,-1
 322 214 l 1,29,30
 196 212 196 212 156 176 c 0,31,22
 137 159 137 159 130.5 145.5 c 128,-1,23
312 551 m 0,32,33
 287 551 287 551 239 567 c 128,-1,34
 191 583 191 583 172 583 c 0,35,36
 138 583 138 583 123 546 c 1,37,-1
 84 563 l 1,38,39
 115 656 115 656 181 656 c 0,40,41
 206 656 206 656 254 640 c 128,-1,42
 302 624 302 624 321 624 c 0,43,44
 355 624 355 624 370 661 c 1,45,-1
 409 644 l 1,46,47
 378 551 378 551 312 551 c 0,32,33
EndSplineSet
EndChar

StartChar: adieresis
Encoding: 228 228 165
Width: 475
GlyphClass: 2
Flags: W
LayerCount: 2
Fore
SplineSet
322 273 m 1,0,-1
 322 317 l 2,1,2
 322 398 322 398 238 398 c 0,3,4
 172 398 172 398 100 355 c 1,5,-1
 71 415 l 1,6,7
 155 468 155 468 252 468 c 0,8,9
 320 468 320 468 363.5 433.5 c 128,-1,10
 407 399 407 399 407 327 c 2,11,-1
 407 0 l 1,12,-1
 353 0 l 1,13,-1
 328 60 l 1,14,15
 296 27 296 27 252 7.5 c 128,-1,16
 208 -12 208 -12 172 -12 c 0,17,18
 110 -12 110 -12 73 22 c 128,-1,19
 36 56 36 56 36 111 c 0,20,21
 36 273 36 273 322 273 c 1,0,-1
130.5 145.5 m 128,-1,23
 124 132 124 132 124 110.5 c 128,-1,24
 124 89 124 89 142.5 73.5 c 128,-1,25
 161 58 161 58 191 58 c 0,26,27
 254 58 254 58 322 114 c 1,28,-1
 322 214 l 1,29,30
 196 212 196 212 156 176 c 0,31,22
 137 159 137 159 130.5 145.5 c 128,-1,23
158 547 m 128,-1,33
 135 547 135 547 119 563.5 c 128,-1,34
 103 580 103 580 103 603 c 128,-1,35
 103 626 103 626 119.5 642.5 c 128,-1,36
 136 659 136 659 158 659 c 128,-1,37
 180 659 180 659 196.5 642.5 c 128,-1,38
 213 626 213 626 213 603 c 128,-1,39
 213 580 213 580 197 563.5 c 128,-1,32
 181 547 181 547 158 547 c 128,-1,33
338 547 m 128,-1,41
 315 547 315 547 299 563.5 c 128,-1,42
 283 580 283 580 283 603 c 128,-1,43
 283 626 283 626 299.5 642.5 c 128,-1,44
 316 659 316 659 338 659 c 128,-1,45
 360 659 360 659 376.5 642.5 c 128,-1,46
 393 626 393 626 393 603 c 128,-1,47
 393 580 393 580 377 563.5 c 128,-1,40
 361 547 361 547 338 547 c 128,-1,41
EndSplineSet
EndChar

StartChar: aring
Encoding: 229 229 166
Width: 475
GlyphClass: 2
Flags: W
LayerCount: 2
Fore
SplineSet
322 273 m 1,0,-1
 322 317 l 2,1,2
 322 398 322 398 238 398 c 0,3,4
 172 398 172 398 100 355 c 1,5,-1
 71 415 l 1,6,7
 155 468 155 468 252 468 c 0,8,9
 320 468 320 468 363.5 433.5 c 128,-1,10
 407 399 407 399 407 327 c 2,11,-1
 407 0 l 1,12,-1
 353 0 l 1,13,-1
 328 60 l 1,14,15
 296 27 296 27 252 7.5 c 128,-1,16
 208 -12 208 -12 172 -12 c 0,17,18
 110 -12 110 -12 73 22 c 128,-1,19
 36 56 36 56 36 111 c 0,20,21
 36 273 36 273 322 273 c 1,0,-1
130.5 145.5 m 128,-1,23
 124 132 124 132 124 110.5 c 128,-1,24
 124 89 124 89 142.5 73.5 c 128,-1,25
 161 58 161 58 191 58 c 0,26,27
 254 58 254 58 322 114 c 1,28,-1
 322 214 l 1,29,30
 196 212 196 212 156 176 c 0,31,22
 137 159 137 159 130.5 145.5 c 128,-1,23
248 552 m 0,32,33
 292 552 292 552 292 606.5 c 128,-1,34
 292 661 292 661 246.5 661 c 128,-1,35
 201 661 201 661 201 611 c 0,36,37
 201 586 201 586 213 569 c 128,-1,38
 225 552 225 552 248 552 c 0,32,33
174.5 532.5 m 128,-1,40
 144 563 144 563 144 606.5 c 128,-1,41
 144 650 144 650 175 680.5 c 128,-1,42
 206 711 206 711 249 711 c 128,-1,43
 292 711 292 711 322.5 680.5 c 128,-1,44
 353 650 353 650 353 606 c 128,-1,45
 353 562 353 562 322.5 532 c 128,-1,46
 292 502 292 502 248.5 502 c 128,-1,39
 205 502 205 502 174.5 532.5 c 128,-1,40
EndSplineSet
EndChar

StartChar: ae
Encoding: 230 230 167
Width: 754
GlyphClass: 2
Flags: W
LayerCount: 2
Fore
SplineSet
536 58 m 0,0,1
 608 58 608 58 680 101 c 1,2,-1
 709 41 l 1,3,4
 625 -12 625 -12 528 -12 c 0,5,6
 413 -12 413 -12 361 71 c 1,7,8
 316 26 316 26 264 7 c 128,-1,9
 212 -12 212 -12 172 -12 c 0,10,11
 110 -12 110 -12 73 22 c 128,-1,12
 36 56 36 56 36 111 c 0,13,14
 36 273 36 273 322 273 c 1,15,-1
 322 317 l 2,16,17
 322 398 322 398 238 398 c 0,18,19
 172 398 172 398 100 355 c 1,20,-1
 71 415 l 1,21,22
 155 468 155 468 250.5 468 c 128,-1,23
 346 468 346 468 386 408 c 1,24,25
 443 468 443 468 534 468 c 0,26,27
 621 468 621 468 672 414 c 0,28,29
 692 392 692 392 706.5 350 c 128,-1,30
 721 308 721 308 721 251 c 1,31,-1
 690 216 l 1,32,-1
 407 216 l 1,33,34
 410 58 410 58 536 58 c 0,0,1
130.5 145.5 m 128,-1,36
 124 132 124 132 124 110.5 c 128,-1,37
 124 89 124 89 142.5 73.5 c 128,-1,38
 161 58 161 58 191 58 c 0,39,40
 254 58 254 58 322 114 c 1,41,-1
 322 214 l 1,42,43
 196 212 196 212 156 176 c 0,44,35
 137 159 137 159 130.5 145.5 c 128,-1,36
608 369 m 128,-1,46
 579 403 579 403 531.5 403 c 128,-1,47
 484 403 484 403 451 369.5 c 128,-1,48
 418 336 418 336 411 279 c 1,49,-1
 637 279 l 1,50,45
 637 335 637 335 608 369 c 128,-1,46
EndSplineSet
EndChar

StartChar: ccedilla
Encoding: 231 231 168
Width: 412
GlyphClass: 2
Flags: W
LayerCount: 2
Fore
SplineSet
251 468 m 0,0,1
 318 468 318 468 387 438 c 1,2,-1
 362 376 l 1,3,4
 311 398 311 398 253.5 398 c 128,-1,5
 196 398 196 398 162.5 355 c 128,-1,6
 129 312 129 312 129 229 c 128,-1,7
 129 146 129 146 164 102 c 128,-1,8
 199 58 199 58 256 58 c 128,-1,9
 313 58 313 58 374 86 c 1,10,-1
 393 20 l 1,11,12
 323 -12 323 -12 251 -12 c 0,13,14
 158 -12 158 -12 99.5 55.5 c 128,-1,15
 41 123 41 123 41 229.5 c 128,-1,16
 41 336 41 336 99.5 402 c 128,-1,17
 158 468 158 468 251 468 c 0,0,1
309 -143 m 0,18,19
 309 -188 309 -188 277 -215 c 128,-1,20
 245 -242 245 -242 198.5 -242 c 128,-1,21
 152 -242 152 -242 108 -215 c 1,22,-1
 124 -175 l 1,23,24
 154 -195 154 -195 182.5 -195 c 128,-1,25
 211 -195 211 -195 228.5 -178.5 c 128,-1,26
 246 -162 246 -162 246 -140.5 c 128,-1,27
 246 -119 246 -119 227 -102.5 c 128,-1,28
 208 -86 208 -86 172 -83 c 1,29,-1
 163 -70 l 1,30,-1
 195 8 l 1,31,-1
 230 8 l 1,32,-1
 219 -47 l 1,33,34
 309 -77 309 -77 309 -143 c 0,18,19
EndSplineSet
EndChar

StartChar: egrave
Encoding: 232 232 169
Width: 473
GlyphClass: 2
Flags: W
LayerCount: 2
Fore
SplineSet
255 58 m 0,0,1
 327 58 327 58 399 101 c 1,2,-1
 428 41 l 1,3,4
 344 -12 344 -12 248.5 -12 c 128,-1,5
 153 -12 153 -12 97 48.5 c 128,-1,6
 41 109 41 109 41 223 c 128,-1,7
 41 337 41 337 99 402.5 c 128,-1,8
 157 468 157 468 253 468 c 0,9,10
 340 468 340 468 390 414 c 0,11,12
 411 392 411 392 425.5 350 c 128,-1,13
 440 308 440 308 440 251 c 1,14,-1
 409 216 l 1,15,-1
 126 216 l 1,16,17
 129 58 129 58 255 58 c 0,0,1
327 369 m 128,-1,19
 298 403 298 403 250.5 403 c 128,-1,20
 203 403 203 403 170 369.5 c 128,-1,21
 137 336 137 336 130 279 c 1,22,-1
 356 279 l 1,23,18
 356 335 356 335 327 369 c 128,-1,19
324 513 m 1,24,-1
 260 513 l 1,25,-1
 125 643 l 1,26,-1
 197 697 l 1,27,-1
 324 513 l 1,24,-1
EndSplineSet
EndChar

StartChar: eacute
Encoding: 233 233 170
Width: 473
GlyphClass: 2
Flags: W
LayerCount: 2
Fore
SplineSet
255 58 m 0,0,1
 327 58 327 58 399 101 c 1,2,-1
 428 41 l 1,3,4
 344 -12 344 -12 248.5 -12 c 128,-1,5
 153 -12 153 -12 97 48.5 c 128,-1,6
 41 109 41 109 41 223 c 128,-1,7
 41 337 41 337 99 402.5 c 128,-1,8
 157 468 157 468 253 468 c 0,9,10
 340 468 340 468 390 414 c 0,11,12
 411 392 411 392 425.5 350 c 128,-1,13
 440 308 440 308 440 251 c 1,14,-1
 409 216 l 1,15,-1
 126 216 l 1,16,17
 129 58 129 58 255 58 c 0,0,1
327 369 m 128,-1,19
 298 403 298 403 250.5 403 c 128,-1,20
 203 403 203 403 170 369.5 c 128,-1,21
 137 336 137 336 130 279 c 1,22,-1
 356 279 l 1,23,18
 356 335 356 335 327 369 c 128,-1,19
256 513 m 1,24,-1
 192 513 l 1,25,-1
 319 697 l 1,26,-1
 391 643 l 1,27,-1
 256 513 l 1,24,-1
EndSplineSet
EndChar

StartChar: ecircumflex
Encoding: 234 234 171
Width: 473
GlyphClass: 2
Flags: W
LayerCount: 2
Fore
SplineSet
255 58 m 0,0,1
 327 58 327 58 399 101 c 1,2,-1
 428 41 l 1,3,4
 344 -12 344 -12 248.5 -12 c 128,-1,5
 153 -12 153 -12 97 48.5 c 128,-1,6
 41 109 41 109 41 223 c 128,-1,7
 41 337 41 337 99 402.5 c 128,-1,8
 157 468 157 468 253 468 c 0,9,10
 340 468 340 468 390 414 c 0,11,12
 411 392 411 392 425.5 350 c 128,-1,13
 440 308 440 308 440 251 c 1,14,-1
 409 216 l 1,15,-1
 126 216 l 1,16,17
 129 58 129 58 255 58 c 0,0,1
327 369 m 128,-1,19
 298 403 298 403 250.5 403 c 128,-1,20
 203 403 203 403 170 369.5 c 128,-1,21
 137 336 137 336 130 279 c 1,22,-1
 356 279 l 1,23,18
 356 335 356 335 327 369 c 128,-1,19
361 513 m 1,24,-1
 308 513 l 1,25,-1
 244 597 l 1,26,-1
 239 597 l 1,27,-1
 176 513 l 1,28,-1
 123 513 l 1,29,-1
 220 695 l 1,30,-1
 264 695 l 1,31,-1
 361 513 l 1,24,-1
EndSplineSet
EndChar

StartChar: edieresis
Encoding: 235 235 172
Width: 473
GlyphClass: 2
Flags: W
LayerCount: 2
Fore
SplineSet
255 58 m 0,0,1
 327 58 327 58 399 101 c 1,2,-1
 428 41 l 1,3,4
 344 -12 344 -12 248.5 -12 c 128,-1,5
 153 -12 153 -12 97 48.5 c 128,-1,6
 41 109 41 109 41 223 c 128,-1,7
 41 337 41 337 99 402.5 c 128,-1,8
 157 468 157 468 253 468 c 0,9,10
 340 468 340 468 390 414 c 0,11,12
 411 392 411 392 425.5 350 c 128,-1,13
 440 308 440 308 440 251 c 1,14,-1
 409 216 l 1,15,-1
 126 216 l 1,16,17
 129 58 129 58 255 58 c 0,0,1
327 369 m 128,-1,19
 298 403 298 403 250.5 403 c 128,-1,20
 203 403 203 403 170 369.5 c 128,-1,21
 137 336 137 336 130 279 c 1,22,-1
 356 279 l 1,23,18
 356 335 356 335 327 369 c 128,-1,19
152 547 m 128,-1,25
 129 547 129 547 113 563.5 c 128,-1,26
 97 580 97 580 97 603 c 128,-1,27
 97 626 97 626 113.5 642.5 c 128,-1,28
 130 659 130 659 152 659 c 128,-1,29
 174 659 174 659 190.5 642.5 c 128,-1,30
 207 626 207 626 207 603 c 128,-1,31
 207 580 207 580 191 563.5 c 128,-1,24
 175 547 175 547 152 547 c 128,-1,25
332 547 m 128,-1,33
 309 547 309 547 293 563.5 c 128,-1,34
 277 580 277 580 277 603 c 128,-1,35
 277 626 277 626 293.5 642.5 c 128,-1,36
 310 659 310 659 332 659 c 128,-1,37
 354 659 354 659 370.5 642.5 c 128,-1,38
 387 626 387 626 387 603 c 128,-1,39
 387 580 387 580 371 563.5 c 128,-1,32
 355 547 355 547 332 547 c 128,-1,33
EndSplineSet
EndChar

StartChar: igrave
Encoding: 236 236 173
Width: 245
GlyphClass: 2
Flags: W
LayerCount: 2
Fore
SplineSet
80 456 m 1,0,-1
 165 456 l 1,1,-1
 165 0 l 1,2,-1
 80 0 l 1,3,-1
 80 456 l 1,0,-1
182 513 m 1,4,-1
 118 513 l 1,5,-1
 -17 643 l 1,6,-1
 55 697 l 1,7,-1
 182 513 l 1,4,-1
EndSplineSet
EndChar

StartChar: iacute
Encoding: 237 237 174
Width: 245
GlyphClass: 2
Flags: W
LayerCount: 2
Fore
SplineSet
139 513 m 1,0,-1
 75 513 l 1,1,-1
 202 697 l 1,2,-1
 274 643 l 1,3,-1
 139 513 l 1,0,-1
80 456 m 1,4,-1
 165 456 l 1,5,-1
 165 0 l 1,6,-1
 80 0 l 1,7,-1
 80 456 l 1,4,-1
EndSplineSet
EndChar

StartChar: icircumflex
Encoding: 238 238 175
Width: 245
GlyphClass: 2
Flags: W
LayerCount: 2
Fore
SplineSet
80 456 m 1,0,-1
 165 456 l 1,1,-1
 165 0 l 1,2,-1
 80 0 l 1,3,-1
 80 456 l 1,0,-1
241 513 m 1,4,-1
 188 513 l 1,5,-1
 124 597 l 1,6,-1
 119 597 l 1,7,-1
 56 513 l 1,8,-1
 3 513 l 1,9,-1
 100 695 l 1,10,-1
 144 695 l 1,11,-1
 241 513 l 1,4,-1
EndSplineSet
EndChar

StartChar: idieresis
Encoding: 239 239 176
Width: 245
GlyphClass: 2
Flags: W
LayerCount: 2
Fore
SplineSet
80 456 m 1,0,-1
 165 456 l 1,1,-1
 165 0 l 1,2,-1
 80 0 l 1,3,-1
 80 456 l 1,0,-1
32 547 m 128,-1,5
 9 547 9 547 -7 563.5 c 128,-1,6
 -23 580 -23 580 -23 603 c 128,-1,7
 -23 626 -23 626 -6.5 642.5 c 128,-1,8
 10 659 10 659 32 659 c 128,-1,9
 54 659 54 659 70.5 642.5 c 128,-1,10
 87 626 87 626 87 603 c 128,-1,11
 87 580 87 580 71 563.5 c 128,-1,4
 55 547 55 547 32 547 c 128,-1,5
212 547 m 128,-1,13
 189 547 189 547 173 563.5 c 128,-1,14
 157 580 157 580 157 603 c 128,-1,15
 157 626 157 626 173.5 642.5 c 128,-1,16
 190 659 190 659 212 659 c 128,-1,17
 234 659 234 659 250.5 642.5 c 128,-1,18
 267 626 267 626 267 603 c 128,-1,19
 267 580 267 580 251 563.5 c 128,-1,12
 235 547 235 547 212 547 c 128,-1,13
EndSplineSet
EndChar

StartChar: eth
Encoding: 240 240 177
Width: 513
GlyphClass: 2
Flags: W
LayerCount: 2
Fore
SplineSet
259 403 m 0,0,1
 221 403 221 403 193.5 386 c 128,-1,2
 166 369 166 369 153 342 c 0,3,4
 129 291 129 291 129 233 c 0,5,6
 129 53 129 53 254 53 c 0,7,8
 292 53 292 53 319 70 c 128,-1,9
 346 87 346 87 360 114 c 0,10,11
 384 164 384 164 384 223 c 0,12,13
 384 403 384 403 259 403 c 0,0,1
472 219 m 0,14,15
 472 139 472 139 430 71 c 0,16,17
 407 34 407 34 361 11 c 128,-1,18
 315 -12 315 -12 251 -12 c 0,19,20
 141 -12 141 -12 91 54 c 128,-1,21
 41 120 41 120 41 231 c 0,22,23
 41 296 41 296 61.5 341 c 128,-1,24
 82 386 82 386 105 410.5 c 128,-1,25
 128 435 128 435 168 451.5 c 128,-1,26
 208 468 208 468 252.5 468 c 128,-1,27
 297 468 297 468 324 456 c 1,28,-1
 329 460 l 1,29,30
 284 528 284 528 213.5 588 c 128,-1,31
 143 648 143 648 66 687 c 1,32,-1
 92 730 l 1,33,34
 261 643 261 643 366.5 510 c 128,-1,35
 472 377 472 377 472 219 c 0,14,15
323 673 m 1,36,-1
 105 509 l 1,37,-1
 105 566 l 1,38,-1
 323 730 l 1,39,-1
 323 673 l 1,36,-1
EndSplineSet
EndChar

StartChar: ntilde
Encoding: 241 241 178
Width: 532
GlyphClass: 2
Flags: W
LayerCount: 2
Fore
SplineSet
464 345 m 2,0,-1
 464 0 l 1,1,-1
 379 0 l 1,2,-1
 379 341 l 2,3,4
 379 367 379 367 358.5 381 c 128,-1,5
 338 395 338 395 304 395 c 0,6,7
 233 395 233 395 157 344 c 1,8,-1
 157 0 l 1,9,-1
 72 0 l 1,10,-1
 72 456 l 1,11,-1
 126 456 l 1,12,-1
 151 404 l 1,13,14
 228 468 228 468 318 468 c 0,15,16
 385 468 385 468 424.5 434 c 128,-1,17
 464 400 464 400 464 345 c 2,0,-1
341 551 m 0,18,19
 316 551 316 551 268 567 c 128,-1,20
 220 583 220 583 201 583 c 0,21,22
 167 583 167 583 152 546 c 1,23,-1
 113 563 l 1,24,25
 144 656 144 656 210 656 c 0,26,27
 235 656 235 656 283 640 c 128,-1,28
 331 624 331 624 350 624 c 0,29,30
 384 624 384 624 399 661 c 1,31,-1
 438 644 l 1,32,33
 407 551 407 551 341 551 c 0,18,19
EndSplineSet
EndChar

StartChar: ograve
Encoding: 242 242 179
Width: 513
GlyphClass: 2
Flags: W
LayerCount: 2
Fore
SplineSet
259 403 m 0,0,1
 221 403 221 403 193.5 386 c 128,-1,2
 166 369 166 369 153 342 c 0,3,4
 129 291 129 291 129 233 c 0,5,6
 129 53 129 53 254 53 c 0,7,8
 292 53 292 53 319 70 c 128,-1,9
 346 87 346 87 360 114 c 0,10,11
 384 164 384 164 384 223 c 0,12,13
 384 403 384 403 259 403 c 0,0,1
259 468 m 0,14,15
 370 468 370 468 421 399 c 128,-1,16
 472 330 472 330 472 219 c 0,17,18
 472 139 472 139 430 71 c 0,19,20
 407 34 407 34 361 11 c 128,-1,21
 315 -12 315 -12 251 -12 c 0,22,23
 141 -12 141 -12 91 54 c 128,-1,24
 41 120 41 120 41 231 c 0,25,26
 41 296 41 296 61.5 341 c 128,-1,27
 82 386 82 386 105 410.5 c 128,-1,28
 128 435 128 435 168 451.5 c 128,-1,29
 208 468 208 468 259 468 c 0,14,15
314 513 m 1,30,-1
 250 513 l 1,31,-1
 115 643 l 1,32,-1
 187 697 l 1,33,-1
 314 513 l 1,30,-1
EndSplineSet
EndChar

StartChar: oacute
Encoding: 243 243 180
Width: 513
GlyphClass: 2
Flags: W
LayerCount: 2
Fore
SplineSet
259 403 m 0,0,1
 221 403 221 403 193.5 386 c 128,-1,2
 166 369 166 369 153 342 c 0,3,4
 129 291 129 291 129 233 c 0,5,6
 129 53 129 53 254 53 c 0,7,8
 292 53 292 53 319 70 c 128,-1,9
 346 87 346 87 360 114 c 0,10,11
 384 164 384 164 384 223 c 0,12,13
 384 403 384 403 259 403 c 0,0,1
259 468 m 0,14,15
 370 468 370 468 421 399 c 128,-1,16
 472 330 472 330 472 219 c 0,17,18
 472 139 472 139 430 71 c 0,19,20
 407 34 407 34 361 11 c 128,-1,21
 315 -12 315 -12 251 -12 c 0,22,23
 141 -12 141 -12 91 54 c 128,-1,24
 41 120 41 120 41 231 c 0,25,26
 41 296 41 296 61.5 341 c 128,-1,27
 82 386 82 386 105 410.5 c 128,-1,28
 128 435 128 435 168 451.5 c 128,-1,29
 208 468 208 468 259 468 c 0,14,15
251 513 m 1,30,-1
 187 513 l 1,31,-1
 314 697 l 1,32,-1
 386 643 l 1,33,-1
 251 513 l 1,30,-1
EndSplineSet
EndChar

StartChar: ocircumflex
Encoding: 244 244 181
Width: 513
GlyphClass: 2
Flags: W
LayerCount: 2
Fore
SplineSet
259 403 m 0,0,1
 221 403 221 403 193.5 386 c 128,-1,2
 166 369 166 369 153 342 c 0,3,4
 129 291 129 291 129 233 c 0,5,6
 129 53 129 53 254 53 c 0,7,8
 292 53 292 53 319 70 c 128,-1,9
 346 87 346 87 360 114 c 0,10,11
 384 164 384 164 384 223 c 0,12,13
 384 403 384 403 259 403 c 0,0,1
259 468 m 0,14,15
 370 468 370 468 421 399 c 128,-1,16
 472 330 472 330 472 219 c 0,17,18
 472 139 472 139 430 71 c 0,19,20
 407 34 407 34 361 11 c 128,-1,21
 315 -12 315 -12 251 -12 c 0,22,23
 141 -12 141 -12 91 54 c 128,-1,24
 41 120 41 120 41 231 c 0,25,26
 41 296 41 296 61.5 341 c 128,-1,27
 82 386 82 386 105 410.5 c 128,-1,28
 128 435 128 435 168 451.5 c 128,-1,29
 208 468 208 468 259 468 c 0,14,15
375 513 m 1,30,-1
 322 513 l 1,31,-1
 258 597 l 1,32,-1
 253 597 l 1,33,-1
 190 513 l 1,34,-1
 137 513 l 1,35,-1
 234 695 l 1,36,-1
 278 695 l 1,37,-1
 375 513 l 1,30,-1
EndSplineSet
EndChar

StartChar: otilde
Encoding: 245 245 182
Width: 513
GlyphClass: 2
Flags: W
LayerCount: 2
Fore
SplineSet
259 403 m 0,0,1
 221 403 221 403 193.5 386 c 128,-1,2
 166 369 166 369 153 342 c 0,3,4
 129 291 129 291 129 233 c 0,5,6
 129 53 129 53 254 53 c 0,7,8
 292 53 292 53 319 70 c 128,-1,9
 346 87 346 87 360 114 c 0,10,11
 384 164 384 164 384 223 c 0,12,13
 384 403 384 403 259 403 c 0,0,1
259 468 m 0,14,15
 370 468 370 468 421 399 c 128,-1,16
 472 330 472 330 472 219 c 0,17,18
 472 139 472 139 430 71 c 0,19,20
 407 34 407 34 361 11 c 128,-1,21
 315 -12 315 -12 251 -12 c 0,22,23
 141 -12 141 -12 91 54 c 128,-1,24
 41 120 41 120 41 231 c 0,25,26
 41 296 41 296 61.5 341 c 128,-1,27
 82 386 82 386 105 410.5 c 128,-1,28
 128 435 128 435 168 451.5 c 128,-1,29
 208 468 208 468 259 468 c 0,14,15
322 551 m 0,30,31
 297 551 297 551 249 567 c 128,-1,32
 201 583 201 583 182 583 c 0,33,34
 148 583 148 583 133 546 c 1,35,-1
 94 563 l 1,36,37
 125 656 125 656 191 656 c 0,38,39
 216 656 216 656 264 640 c 128,-1,40
 312 624 312 624 331 624 c 0,41,42
 365 624 365 624 380 661 c 1,43,-1
 419 644 l 1,44,45
 388 551 388 551 322 551 c 0,30,31
EndSplineSet
EndChar

StartChar: odieresis
Encoding: 246 246 183
Width: 513
GlyphClass: 2
Flags: W
LayerCount: 2
Fore
SplineSet
259 403 m 0,0,1
 221 403 221 403 193.5 386 c 128,-1,2
 166 369 166 369 153 342 c 0,3,4
 129 291 129 291 129 233 c 0,5,6
 129 53 129 53 254 53 c 0,7,8
 292 53 292 53 319 70 c 128,-1,9
 346 87 346 87 360 114 c 0,10,11
 384 164 384 164 384 223 c 0,12,13
 384 403 384 403 259 403 c 0,0,1
259 468 m 0,14,15
 370 468 370 468 421 399 c 128,-1,16
 472 330 472 330 472 219 c 0,17,18
 472 139 472 139 430 71 c 0,19,20
 407 34 407 34 361 11 c 128,-1,21
 315 -12 315 -12 251 -12 c 0,22,23
 141 -12 141 -12 91 54 c 128,-1,24
 41 120 41 120 41 231 c 0,25,26
 41 296 41 296 61.5 341 c 128,-1,27
 82 386 82 386 105 410.5 c 128,-1,28
 128 435 128 435 168 451.5 c 128,-1,29
 208 468 208 468 259 468 c 0,14,15
166 547 m 128,-1,31
 143 547 143 547 127 563.5 c 128,-1,32
 111 580 111 580 111 603 c 128,-1,33
 111 626 111 626 127.5 642.5 c 128,-1,34
 144 659 144 659 166 659 c 128,-1,35
 188 659 188 659 204.5 642.5 c 128,-1,36
 221 626 221 626 221 603 c 128,-1,37
 221 580 221 580 205 563.5 c 128,-1,30
 189 547 189 547 166 547 c 128,-1,31
346 547 m 128,-1,39
 323 547 323 547 307 563.5 c 128,-1,40
 291 580 291 580 291 603 c 128,-1,41
 291 626 291 626 307.5 642.5 c 128,-1,42
 324 659 324 659 346 659 c 128,-1,43
 368 659 368 659 384.5 642.5 c 128,-1,44
 401 626 401 626 401 603 c 128,-1,45
 401 580 401 580 385 563.5 c 128,-1,38
 369 547 369 547 346 547 c 128,-1,39
EndSplineSet
EndChar

StartChar: divide
Encoding: 247 247 184
Width: 523
GlyphClass: 2
Flags: W
LayerCount: 2
Fore
SplineSet
24 273 m 1,0,-1
 24 334 l 1,1,-1
 499 334 l 1,2,-1
 499 273 l 1,3,-1
 24 273 l 1,0,-1
261 398 m 128,-1,5
 239 398 239 398 224 413.5 c 128,-1,6
 209 429 209 429 209 452 c 128,-1,7
 209 475 209 475 224 490 c 128,-1,8
 239 505 239 505 261 505 c 128,-1,9
 283 505 283 505 298.5 490 c 128,-1,10
 314 475 314 475 314 452 c 128,-1,11
 314 429 314 429 298.5 413.5 c 128,-1,4
 283 398 283 398 261 398 c 128,-1,5
261 101 m 128,-1,13
 239 101 239 101 224 116.5 c 128,-1,14
 209 132 209 132 209 155 c 128,-1,15
 209 178 209 178 224 193 c 128,-1,16
 239 208 239 208 261 208 c 128,-1,17
 283 208 283 208 298.5 193 c 128,-1,18
 314 178 314 178 314 155 c 128,-1,19
 314 132 314 132 298.5 116.5 c 128,-1,12
 283 101 283 101 261 101 c 128,-1,13
EndSplineSet
EndChar

StartChar: oslash
Encoding: 248 248 185
Width: 513
GlyphClass: 2
Flags: W
LayerCount: 2
Fore
SplineSet
39 -69 m 1,0,-1
 425 520 l 1,1,-1
 490 520 l 1,2,-1
 104 -69 l 1,3,-1
 39 -69 l 1,0,-1
259 403 m 0,4,5
 221 403 221 403 193.5 386 c 128,-1,6
 166 369 166 369 153 342 c 0,7,8
 129 291 129 291 129 233 c 0,9,10
 129 53 129 53 254 53 c 0,11,12
 292 53 292 53 319 70 c 128,-1,13
 346 87 346 87 360 114 c 0,14,15
 384 164 384 164 384 223 c 0,16,17
 384 403 384 403 259 403 c 0,4,5
259 468 m 0,18,19
 370 468 370 468 421 399 c 128,-1,20
 472 330 472 330 472 219 c 0,21,22
 472 139 472 139 430 71 c 0,23,24
 407 34 407 34 361 11 c 128,-1,25
 315 -12 315 -12 251 -12 c 0,26,27
 141 -12 141 -12 91 54 c 128,-1,28
 41 120 41 120 41 231 c 0,29,30
 41 296 41 296 61.5 341 c 128,-1,31
 82 386 82 386 105 410.5 c 128,-1,32
 128 435 128 435 168 451.5 c 128,-1,33
 208 468 208 468 259 468 c 0,18,19
EndSplineSet
EndChar

StartChar: ugrave
Encoding: 249 249 186
Width: 530
GlyphClass: 2
Flags: W
LayerCount: 2
Fore
SplineSet
153 456 m 1,0,-1
 153 117 l 2,1,2
 153 89 153 89 173.5 73.5 c 128,-1,3
 194 58 194 58 227 58 c 0,4,5
 298 58 298 58 373 114 c 1,6,-1
 373 456 l 1,7,-1
 458 456 l 1,8,-1
 458 0 l 1,9,-1
 404 0 l 1,10,-1
 379 60 l 1,11,12
 302 -12 302 -12 208 -12 c 0,13,14
 148 -12 148 -12 108 20 c 128,-1,15
 68 52 68 52 68 113 c 2,16,-1
 68 456 l 1,17,-1
 153 456 l 1,0,-1
318 513 m 1,18,-1
 254 513 l 1,19,-1
 119 643 l 1,20,-1
 191 697 l 1,21,-1
 318 513 l 1,18,-1
EndSplineSet
EndChar

StartChar: uacute
Encoding: 250 250 187
Width: 530
GlyphClass: 2
Flags: W
LayerCount: 2
Fore
SplineSet
153 456 m 1,0,-1
 153 117 l 2,1,2
 153 89 153 89 173.5 73.5 c 128,-1,3
 194 58 194 58 227 58 c 0,4,5
 298 58 298 58 373 114 c 1,6,-1
 373 456 l 1,7,-1
 458 456 l 1,8,-1
 458 0 l 1,9,-1
 404 0 l 1,10,-1
 379 60 l 1,11,12
 302 -12 302 -12 208 -12 c 0,13,14
 148 -12 148 -12 108 20 c 128,-1,15
 68 52 68 52 68 113 c 2,16,-1
 68 456 l 1,17,-1
 153 456 l 1,0,-1
274 513 m 1,18,-1
 210 513 l 1,19,-1
 337 697 l 1,20,-1
 409 643 l 1,21,-1
 274 513 l 1,18,-1
EndSplineSet
EndChar

StartChar: ucircumflex
Encoding: 251 251 188
Width: 530
GlyphClass: 2
Flags: W
LayerCount: 2
Fore
SplineSet
153 456 m 1,0,-1
 153 117 l 2,1,2
 153 89 153 89 173.5 73.5 c 128,-1,3
 194 58 194 58 227 58 c 0,4,5
 298 58 298 58 373 114 c 1,6,-1
 373 456 l 1,7,-1
 458 456 l 1,8,-1
 458 0 l 1,9,-1
 404 0 l 1,10,-1
 379 60 l 1,11,12
 302 -12 302 -12 208 -12 c 0,13,14
 148 -12 148 -12 108 20 c 128,-1,15
 68 52 68 52 68 113 c 2,16,-1
 68 456 l 1,17,-1
 153 456 l 1,0,-1
384 513 m 1,18,-1
 331 513 l 1,19,-1
 267 597 l 1,20,-1
 262 597 l 1,21,-1
 199 513 l 1,22,-1
 146 513 l 1,23,-1
 243 695 l 1,24,-1
 287 695 l 1,25,-1
 384 513 l 1,18,-1
EndSplineSet
EndChar

StartChar: udieresis
Encoding: 252 252 189
Width: 530
GlyphClass: 2
Flags: W
LayerCount: 2
Fore
SplineSet
153 456 m 1,0,-1
 153 117 l 2,1,2
 153 89 153 89 173.5 73.5 c 128,-1,3
 194 58 194 58 227 58 c 0,4,5
 298 58 298 58 373 114 c 1,6,-1
 373 456 l 1,7,-1
 458 456 l 1,8,-1
 458 0 l 1,9,-1
 404 0 l 1,10,-1
 379 60 l 1,11,12
 302 -12 302 -12 208 -12 c 0,13,14
 148 -12 148 -12 108 20 c 128,-1,15
 68 52 68 52 68 113 c 2,16,-1
 68 456 l 1,17,-1
 153 456 l 1,0,-1
175 547 m 128,-1,19
 152 547 152 547 136 563.5 c 128,-1,20
 120 580 120 580 120 603 c 128,-1,21
 120 626 120 626 136 642.5 c 128,-1,22
 152 659 152 659 175 659 c 128,-1,23
 198 659 198 659 214 642.5 c 128,-1,24
 230 626 230 626 230 603 c 128,-1,25
 230 580 230 580 214 563.5 c 128,-1,18
 198 547 198 547 175 547 c 128,-1,19
355 547 m 128,-1,27
 332 547 332 547 316 563.5 c 128,-1,28
 300 580 300 580 300 603 c 128,-1,29
 300 626 300 626 316 642.5 c 128,-1,30
 332 659 332 659 355 659 c 128,-1,31
 378 659 378 659 394 642.5 c 128,-1,32
 410 626 410 626 410 603 c 128,-1,33
 410 580 410 580 394 563.5 c 128,-1,26
 378 547 378 547 355 547 c 128,-1,27
EndSplineSet
EndChar

StartChar: yacute
Encoding: 253 253 190
Width: 424
GlyphClass: 2
Flags: W
LayerCount: 2
Fore
SplineSet
171.5 -209.5 m 128,-1,1
 144 -242 144 -242 90 -242 c 128,-1,2
 36 -242 36 -242 -29 -212 c 1,3,-1
 2 -147 l 1,4,5
 45 -170 45 -170 76 -170 c 0,6,7
 103 -170 103 -170 112 -161 c 2,8,-1
 125 -148 l 2,9,10
 138 -135 138 -135 148 -103 c 128,-1,11
 158 -71 158 -71 164 -53.5 c 128,-1,12
 170 -36 170 -36 173 -26 c 1,13,-1
 6 456 l 1,14,-1
 92 456 l 1,15,-1
 210 91 l 1,16,-1
 214 91 l 1,17,-1
 332 456 l 1,18,-1
 418 456 l 1,19,-1
 232 -81 l 2,20,0
 199 -177 199 -177 171.5 -209.5 c 128,-1,1
237 513 m 1,21,-1
 173 513 l 1,22,-1
 300 697 l 1,23,-1
 372 643 l 1,24,-1
 237 513 l 1,21,-1
EndSplineSet
EndChar

StartChar: thorn
Encoding: 254 254 191
Width: 532
GlyphClass: 2
Flags: W
LayerCount: 2
Fore
SplineSet
72 718 m 1,0,-1
 155 718 l 1,1,-1
 155 409 l 1,2,3
 225 468 225 468 305.5 468 c 128,-1,4
 386 468 386 468 438 404 c 128,-1,5
 490 340 490 340 490 237.5 c 128,-1,6
 490 135 490 135 429.5 61.5 c 128,-1,7
 369 -12 369 -12 257 -12 c 0,8,9
 207 -12 207 -12 155 2 c 1,10,-1
 155 -230 l 1,11,-1
 72 -230 l 1,12,-1
 72 718 l 1,0,-1
247 56 m 0,13,14
 322 56 322 56 363 107 c 128,-1,15
 404 158 404 158 404 231.5 c 128,-1,16
 404 305 404 305 368.5 350 c 128,-1,17
 333 395 333 395 271 395 c 0,18,19
 247 395 247 395 214 381 c 128,-1,20
 181 367 181 367 155 344 c 1,21,-1
 155 74 l 1,22,23
 202 56 202 56 247 56 c 0,13,14
EndSplineSet
EndChar

StartChar: ydieresis
Encoding: 255 255 192
Width: 424
GlyphClass: 2
Flags: W
LayerCount: 2
Fore
SplineSet
171.5 -209.5 m 128,-1,1
 144 -242 144 -242 90 -242 c 128,-1,2
 36 -242 36 -242 -29 -212 c 1,3,-1
 2 -147 l 1,4,5
 45 -170 45 -170 76 -170 c 0,6,7
 103 -170 103 -170 112 -161 c 2,8,-1
 125 -148 l 2,9,10
 138 -135 138 -135 148 -103 c 128,-1,11
 158 -71 158 -71 164 -53.5 c 128,-1,12
 170 -36 170 -36 173 -26 c 1,13,-1
 6 456 l 1,14,-1
 92 456 l 1,15,-1
 210 91 l 1,16,-1
 214 91 l 1,17,-1
 332 456 l 1,18,-1
 418 456 l 1,19,-1
 232 -81 l 2,20,0
 199 -177 199 -177 171.5 -209.5 c 128,-1,1
122 547 m 128,-1,22
 99 547 99 547 83 563.5 c 128,-1,23
 67 580 67 580 67 603 c 128,-1,24
 67 626 67 626 83.5 642.5 c 128,-1,25
 100 659 100 659 122 659 c 128,-1,26
 144 659 144 659 160.5 642.5 c 128,-1,27
 177 626 177 626 177 603 c 128,-1,28
 177 580 177 580 161 563.5 c 128,-1,21
 145 547 145 547 122 547 c 128,-1,22
302 547 m 128,-1,30
 279 547 279 547 263 563.5 c 128,-1,31
 247 580 247 580 247 603 c 128,-1,32
 247 626 247 626 263.5 642.5 c 128,-1,33
 280 659 280 659 302 659 c 128,-1,34
 324 659 324 659 340.5 642.5 c 128,-1,35
 357 626 357 626 357 603 c 128,-1,36
 357 580 357 580 341 563.5 c 128,-1,29
 325 547 325 547 302 547 c 128,-1,30
EndSplineSet
EndChar

StartChar: Amacron
Encoding: 256 256 193
Width: 623
GlyphClass: 2
Flags: W
LayerCount: 2
Fore
SplineSet
518 0 m 1,0,-1
 439 225 l 1,1,-1
 178 225 l 1,2,-1
 99 0 l 1,3,-1
 10 0 l 1,4,-1
 260 691 l 1,5,-1
 363 691 l 1,6,-1
 613 0 l 1,7,-1
 518 0 l 1,0,-1
414 298 m 1,8,-1
 327 547 l 1,9,-1
 311 603 l 1,10,-1
 307 603 l 1,11,-1
 291 547 l 1,12,-1
 204 298 l 1,13,-1
 414 298 l 1,8,-1
451 864 m 1,14,-1
 451 797 l 1,15,-1
 171 797 l 1,16,-1
 171 864 l 1,17,-1
 451 864 l 1,14,-1
EndSplineSet
EndChar

StartChar: amacron
Encoding: 257 257 194
Width: 475
GlyphClass: 2
Flags: W
LayerCount: 2
Fore
SplineSet
322 273 m 1,0,-1
 322 317 l 2,1,2
 322 398 322 398 238 398 c 0,3,4
 172 398 172 398 100 355 c 1,5,-1
 71 415 l 1,6,7
 155 468 155 468 252 468 c 0,8,9
 320 468 320 468 363.5 433.5 c 128,-1,10
 407 399 407 399 407 327 c 2,11,-1
 407 0 l 1,12,-1
 353 0 l 1,13,-1
 328 60 l 1,14,15
 296 27 296 27 252 7.5 c 128,-1,16
 208 -12 208 -12 172 -12 c 0,17,18
 110 -12 110 -12 73 22 c 128,-1,19
 36 56 36 56 36 111 c 0,20,21
 36 273 36 273 322 273 c 1,0,-1
130.5 145.5 m 128,-1,23
 124 132 124 132 124 110.5 c 128,-1,24
 124 89 124 89 142.5 73.5 c 128,-1,25
 161 58 161 58 191 58 c 0,26,27
 254 58 254 58 322 114 c 1,28,-1
 322 214 l 1,29,30
 196 212 196 212 156 176 c 0,31,22
 137 159 137 159 130.5 145.5 c 128,-1,23
377 635 m 1,32,-1
 377 568 l 1,33,-1
 97 568 l 1,34,-1
 97 635 l 1,35,-1
 377 635 l 1,32,-1
EndSplineSet
EndChar

StartChar: Abreve
Encoding: 258 258 195
Width: 623
GlyphClass: 2
Flags: W
LayerCount: 2
Fore
SplineSet
518 0 m 1,0,-1
 439 225 l 1,1,-1
 178 225 l 1,2,-1
 99 0 l 1,3,-1
 10 0 l 1,4,-1
 260 691 l 1,5,-1
 363 691 l 1,6,-1
 613 0 l 1,7,-1
 518 0 l 1,0,-1
414 298 m 1,8,-1
 327 547 l 1,9,-1
 311 603 l 1,10,-1
 307 603 l 1,11,-1
 291 547 l 1,12,-1
 204 298 l 1,13,-1
 414 298 l 1,8,-1
405.5 796.5 m 128,-1,15
 367 759 367 759 312.5 759 c 128,-1,16
 258 759 258 759 219 796.5 c 128,-1,17
 180 834 180 834 176 886 c 1,18,-1
 247 886 l 1,19,20
 257 825 257 825 312 825 c 128,-1,21
 367 825 367 825 377 886 c 1,22,-1
 447 886 l 1,23,14
 444 834 444 834 405.5 796.5 c 128,-1,15
EndSplineSet
EndChar

StartChar: abreve
Encoding: 259 259 196
Width: 475
GlyphClass: 2
Flags: W
LayerCount: 2
Fore
SplineSet
322 273 m 1,0,-1
 322 317 l 2,1,2
 322 398 322 398 238 398 c 0,3,4
 172 398 172 398 100 355 c 1,5,-1
 71 415 l 1,6,7
 155 468 155 468 252 468 c 0,8,9
 320 468 320 468 363.5 433.5 c 128,-1,10
 407 399 407 399 407 327 c 2,11,-1
 407 0 l 1,12,-1
 353 0 l 1,13,-1
 328 60 l 1,14,15
 296 27 296 27 252 7.5 c 128,-1,16
 208 -12 208 -12 172 -12 c 0,17,18
 110 -12 110 -12 73 22 c 128,-1,19
 36 56 36 56 36 111 c 0,20,21
 36 273 36 273 322 273 c 1,0,-1
130.5 145.5 m 128,-1,23
 124 132 124 132 124 110.5 c 128,-1,24
 124 89 124 89 142.5 73.5 c 128,-1,25
 161 58 161 58 191 58 c 0,26,27
 254 58 254 58 322 114 c 1,28,-1
 322 214 l 1,29,30
 196 212 196 212 156 176 c 0,31,22
 137 159 137 159 130.5 145.5 c 128,-1,23
331.5 567.5 m 128,-1,33
 293 530 293 530 238.5 530 c 128,-1,34
 184 530 184 530 145 567.5 c 128,-1,35
 106 605 106 605 102 657 c 1,36,-1
 173 657 l 1,37,38
 183 596 183 596 238 596 c 128,-1,39
 293 596 293 596 303 657 c 1,40,-1
 373 657 l 1,41,32
 370 605 370 605 331.5 567.5 c 128,-1,33
EndSplineSet
EndChar

StartChar: Aogonek
Encoding: 260 260 197
Width: 623
GlyphClass: 2
Flags: W
LayerCount: 2
Fore
SplineSet
518 0 m 1,0,-1
 439 225 l 1,1,-1
 178 225 l 1,2,-1
 99 0 l 1,3,-1
 10 0 l 1,4,-1
 260 691 l 1,5,-1
 363 691 l 1,6,-1
 613 0 l 1,7,-1
 518 0 l 1,0,-1
414 298 m 1,8,-1
 327 547 l 1,9,-1
 311 603 l 1,10,-1
 307 603 l 1,11,-1
 291 547 l 1,12,-1
 204 298 l 1,13,-1
 414 298 l 1,8,-1
496 -109 m 0,14,15
 496 -137 496 -137 511.5 -151 c 128,-1,16
 527 -165 527 -165 557 -165 c 128,-1,17
 587 -165 587 -165 617 -143 c 1,18,-1
 643 -187 l 1,19,20
 581 -230 581 -230 534 -230 c 128,-1,21
 487 -230 487 -230 461.5 -202.5 c 128,-1,22
 436 -175 436 -175 436 -133 c 0,23,24
 436 -59 436 -59 518 0 c 1,25,-1
 572 0 l 1,26,27
 496 -53 496 -53 496 -109 c 0,14,15
EndSplineSet
EndChar

StartChar: aogonek
Encoding: 261 261 198
Width: 475
GlyphClass: 2
Flags: W
LayerCount: 2
Fore
SplineSet
322 273 m 1,0,-1
 322 317 l 2,1,2
 322 398 322 398 238 398 c 0,3,4
 172 398 172 398 100 355 c 1,5,-1
 71 415 l 1,6,7
 155 468 155 468 252 468 c 0,8,9
 320 468 320 468 363.5 433.5 c 128,-1,10
 407 399 407 399 407 327 c 2,11,-1
 407 0 l 1,12,-1
 353 0 l 1,13,-1
 328 60 l 1,14,15
 296 27 296 27 252 7.5 c 128,-1,16
 208 -12 208 -12 172 -12 c 0,17,18
 110 -12 110 -12 73 22 c 128,-1,19
 36 56 36 56 36 111 c 0,20,21
 36 273 36 273 322 273 c 1,0,-1
130.5 145.5 m 128,-1,23
 124 132 124 132 124 110.5 c 128,-1,24
 124 89 124 89 142.5 73.5 c 128,-1,25
 161 58 161 58 191 58 c 0,26,27
 254 58 254 58 322 114 c 1,28,-1
 322 214 l 1,29,30
 196 212 196 212 156 176 c 0,31,22
 137 159 137 159 130.5 145.5 c 128,-1,23
331 -109 m 0,32,33
 331 -137 331 -137 346.5 -151 c 128,-1,34
 362 -165 362 -165 392 -165 c 128,-1,35
 422 -165 422 -165 452 -143 c 1,36,-1
 478 -187 l 1,37,38
 416 -230 416 -230 369 -230 c 128,-1,39
 322 -230 322 -230 296.5 -202.5 c 128,-1,40
 271 -175 271 -175 271 -133 c 0,41,42
 271 -59 271 -59 353 0 c 1,43,-1
 407 0 l 1,44,45
 331 -53 331 -53 331 -109 c 0,32,33
EndSplineSet
EndChar

StartChar: Cacute
Encoding: 262 262 199
Width: 612
GlyphClass: 2
Flags: W
LayerCount: 2
Fore
SplineSet
149 321 m 0,0,1
 149 206 149 206 209.5 134 c 128,-1,2
 270 62 270 62 373.5 62 c 128,-1,3
 477 62 477 62 576 113 c 1,4,-1
 587 37 l 1,5,6
 475 -12 475 -12 367 -12 c 128,-1,7
 259 -12 259 -12 187.5 36.5 c 128,-1,8
 116 85 116 85 83 159 c 128,-1,9
 50 233 50 233 50 321 c 0,10,11
 50 489 50 489 148 596 c 128,-1,12
 246 703 246 703 409 703 c 0,13,14
 484 703 484 703 571 676 c 1,15,-1
 547 606 l 1,16,17
 478 627 478 627 409 627 c 0,18,19
 287 627 287 627 218 545 c 128,-1,20
 149 463 149 463 149 321 c 0,0,1
353 742 m 1,21,-1
 289 742 l 1,22,-1
 416 926 l 1,23,-1
 488 872 l 1,24,-1
 353 742 l 1,21,-1
EndSplineSet
EndChar

StartChar: cacute
Encoding: 263 263 200
Width: 412
GlyphClass: 2
Flags: W
LayerCount: 2
Fore
SplineSet
251 468 m 0,0,1
 318 468 318 468 387 438 c 1,2,-1
 362 376 l 1,3,4
 311 398 311 398 253.5 398 c 128,-1,5
 196 398 196 398 162.5 355 c 128,-1,6
 129 312 129 312 129 229 c 128,-1,7
 129 146 129 146 164 102 c 128,-1,8
 199 58 199 58 256 58 c 128,-1,9
 313 58 313 58 374 86 c 1,10,-1
 393 20 l 1,11,12
 323 -12 323 -12 251 -12 c 0,13,14
 158 -12 158 -12 99.5 55.5 c 128,-1,15
 41 123 41 123 41 229.5 c 128,-1,16
 41 336 41 336 99.5 402 c 128,-1,17
 158 468 158 468 251 468 c 0,0,1
230 513 m 1,18,-1
 166 513 l 1,19,-1
 293 697 l 1,20,-1
 365 643 l 1,21,-1
 230 513 l 1,18,-1
EndSplineSet
EndChar

StartChar: Ccircumflex
Encoding: 264 264 201
Width: 612
GlyphClass: 2
Flags: W
LayerCount: 2
Fore
SplineSet
149 321 m 0,0,1
 149 206 149 206 209.5 134 c 128,-1,2
 270 62 270 62 373.5 62 c 128,-1,3
 477 62 477 62 576 113 c 1,4,-1
 587 37 l 1,5,6
 475 -12 475 -12 367 -12 c 128,-1,7
 259 -12 259 -12 187.5 36.5 c 128,-1,8
 116 85 116 85 83 159 c 128,-1,9
 50 233 50 233 50 321 c 0,10,11
 50 489 50 489 148 596 c 128,-1,12
 246 703 246 703 409 703 c 0,13,14
 484 703 484 703 571 676 c 1,15,-1
 547 606 l 1,16,17
 478 627 478 627 409 627 c 0,18,19
 287 627 287 627 218 545 c 128,-1,20
 149 463 149 463 149 321 c 0,0,1
507 742 m 1,21,-1
 454 742 l 1,22,-1
 390 826 l 1,23,-1
 385 826 l 1,24,-1
 322 742 l 1,25,-1
 269 742 l 1,26,-1
 366 924 l 1,27,-1
 410 924 l 1,28,-1
 507 742 l 1,21,-1
EndSplineSet
EndChar

StartChar: ccircumflex
Encoding: 265 265 202
Width: 412
GlyphClass: 2
Flags: W
LayerCount: 2
Fore
SplineSet
251 468 m 0,0,1
 318 468 318 468 387 438 c 1,2,-1
 362 376 l 1,3,4
 311 398 311 398 253.5 398 c 128,-1,5
 196 398 196 398 162.5 355 c 128,-1,6
 129 312 129 312 129 229 c 128,-1,7
 129 146 129 146 164 102 c 128,-1,8
 199 58 199 58 256 58 c 128,-1,9
 313 58 313 58 374 86 c 1,10,-1
 393 20 l 1,11,12
 323 -12 323 -12 251 -12 c 0,13,14
 158 -12 158 -12 99.5 55.5 c 128,-1,15
 41 123 41 123 41 229.5 c 128,-1,16
 41 336 41 336 99.5 402 c 128,-1,17
 158 468 158 468 251 468 c 0,0,1
359 513 m 1,18,-1
 306 513 l 1,19,-1
 242 597 l 1,20,-1
 237 597 l 1,21,-1
 174 513 l 1,22,-1
 121 513 l 1,23,-1
 218 695 l 1,24,-1
 262 695 l 1,25,-1
 359 513 l 1,18,-1
EndSplineSet
EndChar

StartChar: Cdotaccent
Encoding: 266 266 203
Width: 612
GlyphClass: 2
Flags: W
LayerCount: 2
Fore
SplineSet
149 321 m 0,0,1
 149 206 149 206 209.5 134 c 128,-1,2
 270 62 270 62 373.5 62 c 128,-1,3
 477 62 477 62 576 113 c 1,4,-1
 587 37 l 1,5,6
 475 -12 475 -12 367 -12 c 128,-1,7
 259 -12 259 -12 187.5 36.5 c 128,-1,8
 116 85 116 85 83 159 c 128,-1,9
 50 233 50 233 50 321 c 0,10,11
 50 489 50 489 148 596 c 128,-1,12
 246 703 246 703 409 703 c 0,13,14
 484 703 484 703 571 676 c 1,15,-1
 547 606 l 1,16,17
 478 627 478 627 409 627 c 0,18,19
 287 627 287 627 218 545 c 128,-1,20
 149 463 149 463 149 321 c 0,0,1
387 776 m 128,-1,22
 364 776 364 776 348 792.5 c 128,-1,23
 332 809 332 809 332 832.5 c 128,-1,24
 332 856 332 856 348 872 c 128,-1,25
 364 888 364 888 387 888 c 128,-1,26
 410 888 410 888 426 872 c 128,-1,27
 442 856 442 856 442 832.5 c 128,-1,28
 442 809 442 809 426 792.5 c 128,-1,21
 410 776 410 776 387 776 c 128,-1,22
EndSplineSet
EndChar

StartChar: cdotaccent
Encoding: 267 267 204
Width: 412
GlyphClass: 2
Flags: W
LayerCount: 2
Fore
SplineSet
251 468 m 0,0,1
 318 468 318 468 387 438 c 1,2,-1
 362 376 l 1,3,4
 311 398 311 398 253.5 398 c 128,-1,5
 196 398 196 398 162.5 355 c 128,-1,6
 129 312 129 312 129 229 c 128,-1,7
 129 146 129 146 164 102 c 128,-1,8
 199 58 199 58 256 58 c 128,-1,9
 313 58 313 58 374 86 c 1,10,-1
 393 20 l 1,11,12
 323 -12 323 -12 251 -12 c 0,13,14
 158 -12 158 -12 99.5 55.5 c 128,-1,15
 41 123 41 123 41 229.5 c 128,-1,16
 41 336 41 336 99.5 402 c 128,-1,17
 158 468 158 468 251 468 c 0,0,1
255 547 m 128,-1,19
 232 547 232 547 216 563.5 c 128,-1,20
 200 580 200 580 200 603 c 128,-1,21
 200 626 200 626 216 642.5 c 128,-1,22
 232 659 232 659 255 659 c 128,-1,23
 278 659 278 659 294 642.5 c 128,-1,24
 310 626 310 626 310 603 c 128,-1,25
 310 580 310 580 294 563.5 c 128,-1,18
 278 547 278 547 255 547 c 128,-1,19
EndSplineSet
EndChar

StartChar: Ccaron
Encoding: 268 268 205
Width: 612
GlyphClass: 2
Flags: W
LayerCount: 2
Fore
SplineSet
149 321 m 0,0,1
 149 206 149 206 209.5 134 c 128,-1,2
 270 62 270 62 373.5 62 c 128,-1,3
 477 62 477 62 576 113 c 1,4,-1
 587 37 l 1,5,6
 475 -12 475 -12 367 -12 c 128,-1,7
 259 -12 259 -12 187.5 36.5 c 128,-1,8
 116 85 116 85 83 159 c 128,-1,9
 50 233 50 233 50 321 c 0,10,11
 50 489 50 489 148 596 c 128,-1,12
 246 703 246 703 409 703 c 0,13,14
 484 703 484 703 571 676 c 1,15,-1
 547 606 l 1,16,17
 478 627 478 627 409 627 c 0,18,19
 287 627 287 627 218 545 c 128,-1,20
 149 463 149 463 149 321 c 0,0,1
389 836 m 1,21,-1
 453 920 l 1,22,-1
 506 920 l 1,23,-1
 409 738 l 1,24,-1
 365 738 l 1,25,-1
 268 920 l 1,26,-1
 321 920 l 1,27,-1
 384 836 l 1,28,-1
 389 836 l 1,21,-1
EndSplineSet
EndChar

StartChar: ccaron
Encoding: 269 269 206
Width: 412
GlyphClass: 2
Flags: W
LayerCount: 2
Fore
SplineSet
251 468 m 0,0,1
 318 468 318 468 387 438 c 1,2,-1
 362 376 l 1,3,4
 311 398 311 398 253.5 398 c 128,-1,5
 196 398 196 398 162.5 355 c 128,-1,6
 129 312 129 312 129 229 c 128,-1,7
 129 146 129 146 164 102 c 128,-1,8
 199 58 199 58 256 58 c 128,-1,9
 313 58 313 58 374 86 c 1,10,-1
 393 20 l 1,11,12
 323 -12 323 -12 251 -12 c 0,13,14
 158 -12 158 -12 99.5 55.5 c 128,-1,15
 41 123 41 123 41 229.5 c 128,-1,16
 41 336 41 336 99.5 402 c 128,-1,17
 158 468 158 468 251 468 c 0,0,1
259 607 m 1,18,-1
 323 691 l 1,19,-1
 376 691 l 1,20,-1
 279 509 l 1,21,-1
 235 509 l 1,22,-1
 138 691 l 1,23,-1
 191 691 l 1,24,-1
 254 607 l 1,25,-1
 259 607 l 1,18,-1
EndSplineSet
EndChar

StartChar: Dcaron
Encoding: 270 270 207
Width: 693
GlyphClass: 2
Flags: W
LayerCount: 2
Fore
SplineSet
75 0 m 1,0,-1
 75 691 l 1,1,-1
 335 691 l 2,2,3
 410 691 410 691 470 664 c 128,-1,4
 530 637 530 637 567 592 c 0,5,6
 643 498 643 498 643 370 c 0,7,8
 643 208 643 208 545 104 c 128,-1,9
 447 0 447 0 284 0 c 2,10,-1
 75 0 l 1,0,-1
324 615 m 2,11,-1
 161 615 l 1,12,-1
 161 76 l 1,13,-1
 284 76 l 2,14,15
 408 76 408 76 476 154 c 128,-1,16
 544 232 544 232 544 370 c 0,17,18
 544 473 544 473 486.5 544 c 128,-1,19
 429 615 429 615 324 615 c 2,11,-1
318 836 m 1,20,-1
 382 920 l 1,21,-1
 435 920 l 1,22,-1
 338 738 l 1,23,-1
 294 738 l 1,24,-1
 197 920 l 1,25,-1
 250 920 l 1,26,-1
 313 836 l 1,27,-1
 318 836 l 1,20,-1
EndSplineSet
EndChar

StartChar: dcaron
Encoding: 271 271 208
Width: 529
GlyphClass: 2
Flags: W
LayerCount: 2
Fore
SplineSet
379 718 m 1,0,-1
 461 718 l 1,1,-1
 461 0 l 1,2,-1
 407 0 l 1,3,-1
 382 60 l 1,4,5
 307 -12 307 -12 227.5 -12 c 128,-1,6
 148 -12 148 -12 96 49.5 c 128,-1,7
 44 111 44 111 44 216 c 128,-1,8
 44 321 44 321 106 391.5 c 128,-1,9
 168 462 168 462 266 462 c 0,10,11
 319 462 319 462 379 438 c 1,12,-1
 379 718 l 1,0,-1
287 394 m 0,13,14
 212 394 212 394 171 343 c 128,-1,15
 130 292 130 292 130 219 c 128,-1,16
 130 146 130 146 164 102 c 128,-1,17
 198 58 198 58 252 58 c 0,18,19
 282 58 282 58 316.5 74.5 c 128,-1,20
 351 91 351 91 379 120 c 1,21,-1
 379 376 l 1,22,23
 332 394 332 394 287 394 c 0,13,14
548 516 m 1,24,-1
 501 526 l 1,25,-1
 542 730 l 1,26,-1
 638 740 l 1,27,-1
 548 516 l 1,24,-1
EndSplineSet
EndChar

StartChar: Dcroat
Encoding: 272 272 209
Width: 693
GlyphClass: 2
Flags: W
LayerCount: 2
Fore
SplineSet
75 0 m 1,0,-1
 75 691 l 1,1,-1
 335 691 l 2,2,3
 410 691 410 691 470 664 c 128,-1,4
 530 637 530 637 567 592 c 0,5,6
 643 498 643 498 643 370 c 0,7,8
 643 208 643 208 545 104 c 128,-1,9
 447 0 447 0 284 0 c 2,10,-1
 75 0 l 1,0,-1
324 615 m 2,11,-1
 161 615 l 1,12,-1
 161 76 l 1,13,-1
 284 76 l 2,14,15
 408 76 408 76 476 154 c 128,-1,16
 544 232 544 232 544 370 c 0,17,18
 544 473 544 473 486.5 544 c 128,-1,19
 429 615 429 615 324 615 c 2,11,-1
382 315 m 1,20,-1
 0 315 l 1,21,-1
 0 369 l 1,22,-1
 382 369 l 1,23,-1
 382 315 l 1,20,-1
EndSplineSet
EndChar

StartChar: dcroat
Encoding: 273 273 210
Width: 529
GlyphClass: 2
Flags: W
LayerCount: 2
Fore
SplineSet
379 718 m 1,0,-1
 461 718 l 1,1,-1
 461 0 l 1,2,-1
 407 0 l 1,3,-1
 382 60 l 1,4,5
 307 -12 307 -12 227.5 -12 c 128,-1,6
 148 -12 148 -12 96 49.5 c 128,-1,7
 44 111 44 111 44 216 c 128,-1,8
 44 321 44 321 106 391.5 c 128,-1,9
 168 462 168 462 266 462 c 0,10,11
 319 462 319 462 379 438 c 1,12,-1
 379 718 l 1,0,-1
287 394 m 0,13,14
 212 394 212 394 171 343 c 128,-1,15
 130 292 130 292 130 219 c 128,-1,16
 130 146 130 146 164 102 c 128,-1,17
 198 58 198 58 252 58 c 0,18,19
 282 58 282 58 316.5 74.5 c 128,-1,20
 351 91 351 91 379 120 c 1,21,-1
 379 376 l 1,22,23
 332 394 332 394 287 394 c 0,13,14
522 577 m 1,24,-1
 236 577 l 1,25,-1
 236 631 l 1,26,-1
 522 631 l 1,27,-1
 522 577 l 1,24,-1
EndSplineSet
EndChar

StartChar: Emacron
Encoding: 274 274 211
Width: 535
GlyphClass: 2
Flags: W
LayerCount: 2
Fore
SplineSet
75 0 m 1,0,-1
 75 691 l 1,1,-1
 481 691 l 1,2,-1
 462 615 l 1,3,-1
 161 615 l 1,4,-1
 161 387 l 1,5,-1
 445 387 l 1,6,-1
 445 314 l 1,7,-1
 161 314 l 1,8,-1
 161 76 l 1,9,-1
 500 76 l 1,10,-1
 500 0 l 1,11,-1
 75 0 l 1,0,-1
417 864 m 1,12,-1
 417 797 l 1,13,-1
 137 797 l 1,14,-1
 137 864 l 1,15,-1
 417 864 l 1,12,-1
EndSplineSet
EndChar

StartChar: emacron
Encoding: 275 275 212
Width: 473
GlyphClass: 2
Flags: W
LayerCount: 2
Fore
SplineSet
255 58 m 0,0,1
 327 58 327 58 399 101 c 1,2,-1
 428 41 l 1,3,4
 344 -12 344 -12 248.5 -12 c 128,-1,5
 153 -12 153 -12 97 48.5 c 128,-1,6
 41 109 41 109 41 223 c 128,-1,7
 41 337 41 337 99 402.5 c 128,-1,8
 157 468 157 468 253 468 c 0,9,10
 340 468 340 468 390 414 c 0,11,12
 411 392 411 392 425.5 350 c 128,-1,13
 440 308 440 308 440 251 c 1,14,-1
 409 216 l 1,15,-1
 126 216 l 1,16,17
 129 58 129 58 255 58 c 0,0,1
327 369 m 128,-1,19
 298 403 298 403 250.5 403 c 128,-1,20
 203 403 203 403 170 369.5 c 128,-1,21
 137 336 137 336 130 279 c 1,22,-1
 356 279 l 1,23,18
 356 335 356 335 327 369 c 128,-1,19
397 635 m 1,24,-1
 397 568 l 1,25,-1
 117 568 l 1,26,-1
 117 635 l 1,27,-1
 397 635 l 1,24,-1
EndSplineSet
EndChar

StartChar: Ebreve
Encoding: 276 276 213
Width: 535
GlyphClass: 2
Flags: W
LayerCount: 2
Fore
SplineSet
75 0 m 1,0,-1
 75 691 l 1,1,-1
 481 691 l 1,2,-1
 462 615 l 1,3,-1
 161 615 l 1,4,-1
 161 387 l 1,5,-1
 445 387 l 1,6,-1
 445 314 l 1,7,-1
 161 314 l 1,8,-1
 161 76 l 1,9,-1
 500 76 l 1,10,-1
 500 0 l 1,11,-1
 75 0 l 1,0,-1
371.5 796.5 m 128,-1,13
 333 759 333 759 278.5 759 c 128,-1,14
 224 759 224 759 185 796.5 c 128,-1,15
 146 834 146 834 142 886 c 1,16,-1
 213 886 l 1,17,18
 223 825 223 825 278 825 c 128,-1,19
 333 825 333 825 343 886 c 1,20,-1
 413 886 l 1,21,12
 410 834 410 834 371.5 796.5 c 128,-1,13
EndSplineSet
EndChar

StartChar: ebreve
Encoding: 277 277 214
Width: 473
GlyphClass: 2
Flags: W
LayerCount: 2
Fore
SplineSet
255 58 m 0,0,1
 327 58 327 58 399 101 c 1,2,-1
 428 41 l 1,3,4
 344 -12 344 -12 248.5 -12 c 128,-1,5
 153 -12 153 -12 97 48.5 c 128,-1,6
 41 109 41 109 41 223 c 128,-1,7
 41 337 41 337 99 402.5 c 128,-1,8
 157 468 157 468 253 468 c 0,9,10
 340 468 340 468 390 414 c 0,11,12
 411 392 411 392 425.5 350 c 128,-1,13
 440 308 440 308 440 251 c 1,14,-1
 409 216 l 1,15,-1
 126 216 l 1,16,17
 129 58 129 58 255 58 c 0,0,1
327 369 m 128,-1,19
 298 403 298 403 250.5 403 c 128,-1,20
 203 403 203 403 170 369.5 c 128,-1,21
 137 336 137 336 130 279 c 1,22,-1
 356 279 l 1,23,18
 356 335 356 335 327 369 c 128,-1,19
352.5 567.5 m 128,-1,25
 314 530 314 530 259.5 530 c 128,-1,26
 205 530 205 530 166 567.5 c 128,-1,27
 127 605 127 605 123 657 c 1,28,-1
 194 657 l 1,29,30
 204 596 204 596 259 596 c 128,-1,31
 314 596 314 596 324 657 c 1,32,-1
 394 657 l 1,33,24
 391 605 391 605 352.5 567.5 c 128,-1,25
EndSplineSet
EndChar

StartChar: Edotaccent
Encoding: 278 278 215
Width: 535
GlyphClass: 2
Flags: W
LayerCount: 2
Fore
SplineSet
75 0 m 1,0,-1
 75 691 l 1,1,-1
 481 691 l 1,2,-1
 462 615 l 1,3,-1
 161 615 l 1,4,-1
 161 387 l 1,5,-1
 445 387 l 1,6,-1
 445 314 l 1,7,-1
 161 314 l 1,8,-1
 161 76 l 1,9,-1
 500 76 l 1,10,-1
 500 0 l 1,11,-1
 75 0 l 1,0,-1
277 776 m 128,-1,13
 254 776 254 776 238 792.5 c 128,-1,14
 222 809 222 809 222 832.5 c 128,-1,15
 222 856 222 856 238 872 c 128,-1,16
 254 888 254 888 277 888 c 128,-1,17
 300 888 300 888 316 872 c 128,-1,18
 332 856 332 856 332 832.5 c 128,-1,19
 332 809 332 809 316 792.5 c 128,-1,12
 300 776 300 776 277 776 c 128,-1,13
EndSplineSet
EndChar

StartChar: edotaccent
Encoding: 279 279 216
Width: 473
GlyphClass: 2
Flags: W
LayerCount: 2
Fore
SplineSet
255 58 m 0,0,1
 327 58 327 58 399 101 c 1,2,-1
 428 41 l 1,3,4
 344 -12 344 -12 248.5 -12 c 128,-1,5
 153 -12 153 -12 97 48.5 c 128,-1,6
 41 109 41 109 41 223 c 128,-1,7
 41 337 41 337 99 402.5 c 128,-1,8
 157 468 157 468 253 468 c 0,9,10
 340 468 340 468 390 414 c 0,11,12
 411 392 411 392 425.5 350 c 128,-1,13
 440 308 440 308 440 251 c 1,14,-1
 409 216 l 1,15,-1
 126 216 l 1,16,17
 129 58 129 58 255 58 c 0,0,1
327 369 m 128,-1,19
 298 403 298 403 250.5 403 c 128,-1,20
 203 403 203 403 170 369.5 c 128,-1,21
 137 336 137 336 130 279 c 1,22,-1
 356 279 l 1,23,18
 356 335 356 335 327 369 c 128,-1,19
256 547 m 128,-1,25
 233 547 233 547 217 563.5 c 128,-1,26
 201 580 201 580 201 603 c 128,-1,27
 201 626 201 626 217.5 642.5 c 128,-1,28
 234 659 234 659 256 659 c 128,-1,29
 278 659 278 659 294.5 642.5 c 128,-1,30
 311 626 311 626 311 603 c 128,-1,31
 311 580 311 580 295 563.5 c 128,-1,24
 279 547 279 547 256 547 c 128,-1,25
EndSplineSet
EndChar

StartChar: Eogonek
Encoding: 280 280 217
Width: 535
GlyphClass: 2
Flags: W
LayerCount: 2
Fore
SplineSet
75 0 m 1,0,-1
 75 691 l 1,1,-1
 481 691 l 1,2,-1
 462 615 l 1,3,-1
 161 615 l 1,4,-1
 161 387 l 1,5,-1
 445 387 l 1,6,-1
 445 314 l 1,7,-1
 161 314 l 1,8,-1
 161 76 l 1,9,-1
 500 76 l 1,10,-1
 500 0 l 1,11,-1
 75 0 l 1,0,-1
424 -109 m 0,12,13
 424 -137 424 -137 439.5 -151 c 128,-1,14
 455 -165 455 -165 485 -165 c 128,-1,15
 515 -165 515 -165 545 -143 c 1,16,-1
 571 -187 l 1,17,18
 509 -230 509 -230 462 -230 c 128,-1,19
 415 -230 415 -230 389.5 -202.5 c 128,-1,20
 364 -175 364 -175 364 -133 c 0,21,22
 364 -59 364 -59 446 0 c 1,23,-1
 500 0 l 1,24,25
 424 -53 424 -53 424 -109 c 0,12,13
EndSplineSet
EndChar

StartChar: eogonek
Encoding: 281 281 218
Width: 473
GlyphClass: 2
Flags: W
LayerCount: 2
Fore
SplineSet
255 58 m 0,0,1
 327 58 327 58 399 101 c 1,2,-1
 428 41 l 1,3,4
 344 -12 344 -12 248.5 -12 c 128,-1,5
 153 -12 153 -12 97 48.5 c 128,-1,6
 41 109 41 109 41 223 c 128,-1,7
 41 337 41 337 99 402.5 c 128,-1,8
 157 468 157 468 253 468 c 0,9,10
 340 468 340 468 390 414 c 0,11,12
 411 392 411 392 425.5 350 c 128,-1,13
 440 308 440 308 440 251 c 1,14,-1
 409 216 l 1,15,-1
 126 216 l 1,16,17
 129 58 129 58 255 58 c 0,0,1
327 369 m 128,-1,19
 298 403 298 403 250.5 403 c 128,-1,20
 203 403 203 403 170 369.5 c 128,-1,21
 137 336 137 336 130 279 c 1,22,-1
 356 279 l 1,23,18
 356 335 356 335 327 369 c 128,-1,19
257 -109 m 0,24,25
 257 -137 257 -137 272.5 -151 c 128,-1,26
 288 -165 288 -165 318 -165 c 128,-1,27
 348 -165 348 -165 378 -143 c 1,28,-1
 404 -187 l 1,29,30
 342 -230 342 -230 295 -230 c 128,-1,31
 248 -230 248 -230 222.5 -202.5 c 128,-1,32
 197 -175 197 -175 197 -133 c 0,33,34
 197 -59 197 -59 279 0 c 1,35,-1
 333 0 l 1,36,37
 257 -53 257 -53 257 -109 c 0,24,25
EndSplineSet
EndChar

StartChar: Ecaron
Encoding: 282 282 219
Width: 535
GlyphClass: 2
Flags: W
LayerCount: 2
Fore
SplineSet
75 0 m 1,0,-1
 75 691 l 1,1,-1
 481 691 l 1,2,-1
 462 615 l 1,3,-1
 161 615 l 1,4,-1
 161 387 l 1,5,-1
 445 387 l 1,6,-1
 445 314 l 1,7,-1
 161 314 l 1,8,-1
 161 76 l 1,9,-1
 500 76 l 1,10,-1
 500 0 l 1,11,-1
 75 0 l 1,0,-1
279 836 m 1,12,-1
 343 920 l 1,13,-1
 396 920 l 1,14,-1
 299 738 l 1,15,-1
 255 738 l 1,16,-1
 158 920 l 1,17,-1
 211 920 l 1,18,-1
 274 836 l 1,19,-1
 279 836 l 1,12,-1
EndSplineSet
EndChar

StartChar: ecaron
Encoding: 283 283 220
Width: 473
GlyphClass: 2
Flags: W
LayerCount: 2
Fore
SplineSet
255 58 m 0,0,1
 327 58 327 58 399 101 c 1,2,-1
 428 41 l 1,3,4
 344 -12 344 -12 248.5 -12 c 128,-1,5
 153 -12 153 -12 97 48.5 c 128,-1,6
 41 109 41 109 41 223 c 128,-1,7
 41 337 41 337 99 402.5 c 128,-1,8
 157 468 157 468 253 468 c 0,9,10
 340 468 340 468 390 414 c 0,11,12
 411 392 411 392 425.5 350 c 128,-1,13
 440 308 440 308 440 251 c 1,14,-1
 409 216 l 1,15,-1
 126 216 l 1,16,17
 129 58 129 58 255 58 c 0,0,1
327 369 m 128,-1,19
 298 403 298 403 250.5 403 c 128,-1,20
 203 403 203 403 170 369.5 c 128,-1,21
 137 336 137 336 130 279 c 1,22,-1
 356 279 l 1,23,18
 356 335 356 335 327 369 c 128,-1,19
261 607 m 1,24,-1
 325 691 l 1,25,-1
 378 691 l 1,26,-1
 281 509 l 1,27,-1
 237 509 l 1,28,-1
 140 691 l 1,29,-1
 193 691 l 1,30,-1
 256 607 l 1,31,-1
 261 607 l 1,24,-1
EndSplineSet
EndChar

StartChar: Gcircumflex
Encoding: 284 284 221
Width: 675
GlyphClass: 2
Flags: W
LayerCount: 2
Fore
SplineSet
409 627 m 0,0,1
 287 627 287 627 218 545 c 128,-1,2
 149 463 149 463 149 321 c 0,3,4
 149 206 149 206 209.5 134 c 128,-1,5
 270 62 270 62 364.5 62 c 128,-1,6
 459 62 459 62 540 98 c 1,7,-1
 540 276 l 1,8,-1
 392 276 l 1,9,-1
 392 349 l 1,10,-1
 625 349 l 1,11,-1
 625 55 l 1,12,13
 494 -12 494 -12 358 -12 c 0,14,15
 259 -12 259 -12 187.5 36.5 c 128,-1,16
 116 85 116 85 83 159 c 128,-1,17
 50 233 50 233 50 321 c 0,18,19
 50 489 50 489 148 596 c 128,-1,20
 246 703 246 703 409 703 c 0,21,22
 489 703 489 703 587 671 c 1,23,-1
 562 601 l 1,24,25
 481 627 481 627 409 627 c 0,0,1
511 742 m 1,26,-1
 458 742 l 1,27,-1
 394 826 l 1,28,-1
 389 826 l 1,29,-1
 326 742 l 1,30,-1
 273 742 l 1,31,-1
 370 924 l 1,32,-1
 414 924 l 1,33,-1
 511 742 l 1,26,-1
EndSplineSet
EndChar

StartChar: gcircumflex
Encoding: 285 285 222
Width: 469
GlyphClass: 2
Flags: W
LayerCount: 2
Fore
SplineSet
221 129 m 0,0,1
 198 129 198 129 177 132 c 1,2,3
 152 84 152 84 152 69 c 0,4,5
 152 62 152 62 170 57 c 2,6,-1
 292 30 l 2,7,8
 377 11 377 11 413 -14.5 c 128,-1,9
 449 -40 449 -40 449 -90 c 128,-1,10
 449 -140 449 -140 414 -174 c 0,11,12
 346 -242 346 -242 214 -242 c 0,13,14
 133 -242 133 -242 74 -212 c 128,-1,15
 15 -182 15 -182 15 -126 c 128,-1,16
 15 -70 15 -70 95 3 c 1,17,18
 65 14 65 14 65 36 c 128,-1,19
 65 58 65 58 124 145 c 1,20,21
 38 182 38 182 38 300 c 0,22,23
 38 366 38 366 84.5 415.5 c 128,-1,24
 131 465 131 465 221 465 c 0,25,26
 273 465 273 465 312 450 c 1,27,-1
 452 466 l 1,28,-1
 452 399 l 1,29,-1
 377 399 l 1,30,31
 403 357 403 357 403 292.5 c 128,-1,32
 403 228 403 228 357 178.5 c 128,-1,33
 311 129 311 129 221 129 c 0,0,1
323 285 m 0,34,35
 323 409 323 409 222 409 c 0,36,37
 182 409 182 409 157 388 c 0,38,39
 118 354 118 354 118 303.5 c 128,-1,40
 118 253 118 253 142 219 c 128,-1,41
 166 185 166 185 219 185 c 128,-1,42
 272 185 272 185 297.5 217.5 c 128,-1,43
 323 250 323 250 323 285 c 0,34,35
95 -113 m 0,44,45
 95 -145 95 -145 130 -162 c 128,-1,46
 165 -179 165 -179 221 -179 c 128,-1,47
 277 -179 277 -179 325 -156.5 c 128,-1,48
 373 -134 373 -134 373 -95 c 0,49,50
 373 -75 373 -75 350 -62.5 c 128,-1,51
 327 -50 327 -50 270 -38 c 2,52,-1
 153 -12 l 1,53,54
 95 -70 95 -70 95 -113 c 0,44,45
353 513 m 1,55,-1
 300 513 l 1,56,-1
 236 597 l 1,57,-1
 231 597 l 1,58,-1
 168 513 l 1,59,-1
 115 513 l 1,60,-1
 212 695 l 1,61,-1
 256 695 l 1,62,-1
 353 513 l 1,55,-1
EndSplineSet
EndChar

StartChar: Gbreve
Encoding: 286 286 223
Width: 675
GlyphClass: 2
Flags: W
LayerCount: 2
Fore
SplineSet
409 627 m 0,0,1
 287 627 287 627 218 545 c 128,-1,2
 149 463 149 463 149 321 c 0,3,4
 149 206 149 206 209.5 134 c 128,-1,5
 270 62 270 62 364.5 62 c 128,-1,6
 459 62 459 62 540 98 c 1,7,-1
 540 276 l 1,8,-1
 392 276 l 1,9,-1
 392 349 l 1,10,-1
 625 349 l 1,11,-1
 625 55 l 1,12,13
 494 -12 494 -12 358 -12 c 0,14,15
 259 -12 259 -12 187.5 36.5 c 128,-1,16
 116 85 116 85 83 159 c 128,-1,17
 50 233 50 233 50 321 c 0,18,19
 50 489 50 489 148 596 c 128,-1,20
 246 703 246 703 409 703 c 0,21,22
 489 703 489 703 587 671 c 1,23,-1
 562 601 l 1,24,25
 481 627 481 627 409 627 c 0,0,1
485.5 796.5 m 128,-1,27
 447 759 447 759 392.5 759 c 128,-1,28
 338 759 338 759 299 796.5 c 128,-1,29
 260 834 260 834 256 886 c 1,30,-1
 327 886 l 1,31,32
 337 825 337 825 392 825 c 128,-1,33
 447 825 447 825 457 886 c 1,34,-1
 527 886 l 1,35,26
 524 834 524 834 485.5 796.5 c 128,-1,27
EndSplineSet
EndChar

StartChar: gbreve
Encoding: 287 287 224
Width: 469
GlyphClass: 2
Flags: W
LayerCount: 2
Fore
SplineSet
221 129 m 0,0,1
 198 129 198 129 177 132 c 1,2,3
 152 84 152 84 152 69 c 0,4,5
 152 62 152 62 170 57 c 2,6,-1
 292 30 l 2,7,8
 377 11 377 11 413 -14.5 c 128,-1,9
 449 -40 449 -40 449 -90 c 128,-1,10
 449 -140 449 -140 414 -174 c 0,11,12
 346 -242 346 -242 214 -242 c 0,13,14
 133 -242 133 -242 74 -212 c 128,-1,15
 15 -182 15 -182 15 -126 c 128,-1,16
 15 -70 15 -70 95 3 c 1,17,18
 65 14 65 14 65 36 c 128,-1,19
 65 58 65 58 124 145 c 1,20,21
 38 182 38 182 38 300 c 0,22,23
 38 366 38 366 84.5 415.5 c 128,-1,24
 131 465 131 465 221 465 c 0,25,26
 273 465 273 465 312 450 c 1,27,-1
 452 466 l 1,28,-1
 452 399 l 1,29,-1
 377 399 l 1,30,31
 403 357 403 357 403 292.5 c 128,-1,32
 403 228 403 228 357 178.5 c 128,-1,33
 311 129 311 129 221 129 c 0,0,1
323 285 m 0,34,35
 323 409 323 409 222 409 c 0,36,37
 182 409 182 409 157 388 c 0,38,39
 118 354 118 354 118 303.5 c 128,-1,40
 118 253 118 253 142 219 c 128,-1,41
 166 185 166 185 219 185 c 128,-1,42
 272 185 272 185 297.5 217.5 c 128,-1,43
 323 250 323 250 323 285 c 0,34,35
95 -113 m 0,44,45
 95 -145 95 -145 130 -162 c 128,-1,46
 165 -179 165 -179 221 -179 c 128,-1,47
 277 -179 277 -179 325 -156.5 c 128,-1,48
 373 -134 373 -134 373 -95 c 0,49,50
 373 -75 373 -75 350 -62.5 c 128,-1,51
 327 -50 327 -50 270 -38 c 2,52,-1
 153 -12 l 1,53,54
 95 -70 95 -70 95 -113 c 0,44,45
328.5 567.5 m 128,-1,56
 290 530 290 530 235.5 530 c 128,-1,57
 181 530 181 530 142 567.5 c 128,-1,58
 103 605 103 605 99 657 c 1,59,-1
 170 657 l 1,60,61
 180 596 180 596 235 596 c 128,-1,62
 290 596 290 596 300 657 c 1,63,-1
 370 657 l 1,64,55
 367 605 367 605 328.5 567.5 c 128,-1,56
EndSplineSet
EndChar

StartChar: Gdotaccent
Encoding: 288 288 225
Width: 675
GlyphClass: 2
Flags: W
LayerCount: 2
Fore
SplineSet
409 627 m 0,0,1
 287 627 287 627 218 545 c 128,-1,2
 149 463 149 463 149 321 c 0,3,4
 149 206 149 206 209.5 134 c 128,-1,5
 270 62 270 62 364.5 62 c 128,-1,6
 459 62 459 62 540 98 c 1,7,-1
 540 276 l 1,8,-1
 392 276 l 1,9,-1
 392 349 l 1,10,-1
 625 349 l 1,11,-1
 625 55 l 1,12,13
 494 -12 494 -12 358 -12 c 0,14,15
 259 -12 259 -12 187.5 36.5 c 128,-1,16
 116 85 116 85 83 159 c 128,-1,17
 50 233 50 233 50 321 c 0,18,19
 50 489 50 489 148 596 c 128,-1,20
 246 703 246 703 409 703 c 0,21,22
 489 703 489 703 587 671 c 1,23,-1
 562 601 l 1,24,25
 481 627 481 627 409 627 c 0,0,1
392 776 m 128,-1,27
 369 776 369 776 353 792.5 c 128,-1,28
 337 809 337 809 337 832.5 c 128,-1,29
 337 856 337 856 353.5 872 c 128,-1,30
 370 888 370 888 392 888 c 128,-1,31
 414 888 414 888 430.5 872 c 128,-1,32
 447 856 447 856 447 832.5 c 128,-1,33
 447 809 447 809 431 792.5 c 128,-1,26
 415 776 415 776 392 776 c 128,-1,27
EndSplineSet
EndChar

StartChar: gdotaccent
Encoding: 289 289 226
Width: 469
GlyphClass: 2
Flags: W
LayerCount: 2
Fore
SplineSet
221 129 m 0,0,1
 198 129 198 129 177 132 c 1,2,3
 152 84 152 84 152 69 c 0,4,5
 152 62 152 62 170 57 c 2,6,-1
 292 30 l 2,7,8
 377 11 377 11 413 -14.5 c 128,-1,9
 449 -40 449 -40 449 -90 c 128,-1,10
 449 -140 449 -140 414 -174 c 0,11,12
 346 -242 346 -242 214 -242 c 0,13,14
 133 -242 133 -242 74 -212 c 128,-1,15
 15 -182 15 -182 15 -126 c 128,-1,16
 15 -70 15 -70 95 3 c 1,17,18
 65 14 65 14 65 36 c 128,-1,19
 65 58 65 58 124 145 c 1,20,21
 38 182 38 182 38 300 c 0,22,23
 38 366 38 366 84.5 415.5 c 128,-1,24
 131 465 131 465 221 465 c 0,25,26
 273 465 273 465 312 450 c 1,27,-1
 452 466 l 1,28,-1
 452 399 l 1,29,-1
 377 399 l 1,30,31
 403 357 403 357 403 292.5 c 128,-1,32
 403 228 403 228 357 178.5 c 128,-1,33
 311 129 311 129 221 129 c 0,0,1
323 285 m 0,34,35
 323 409 323 409 222 409 c 0,36,37
 182 409 182 409 157 388 c 0,38,39
 118 354 118 354 118 303.5 c 128,-1,40
 118 253 118 253 142 219 c 128,-1,41
 166 185 166 185 219 185 c 128,-1,42
 272 185 272 185 297.5 217.5 c 128,-1,43
 323 250 323 250 323 285 c 0,34,35
95 -113 m 0,44,45
 95 -145 95 -145 130 -162 c 128,-1,46
 165 -179 165 -179 221 -179 c 128,-1,47
 277 -179 277 -179 325 -156.5 c 128,-1,48
 373 -134 373 -134 373 -95 c 0,49,50
 373 -75 373 -75 350 -62.5 c 128,-1,51
 327 -50 327 -50 270 -38 c 2,52,-1
 153 -12 l 1,53,54
 95 -70 95 -70 95 -113 c 0,44,45
234 547 m 128,-1,56
 211 547 211 547 195 563.5 c 128,-1,57
 179 580 179 580 179 603 c 128,-1,58
 179 626 179 626 195.5 642.5 c 128,-1,59
 212 659 212 659 234 659 c 128,-1,60
 256 659 256 659 272.5 642.5 c 128,-1,61
 289 626 289 626 289 603 c 128,-1,62
 289 580 289 580 273 563.5 c 128,-1,55
 257 547 257 547 234 547 c 128,-1,56
EndSplineSet
EndChar

StartChar: uni0122
Encoding: 290 290 227
Width: 675
GlyphClass: 2
Flags: W
LayerCount: 2
Fore
SplineSet
409 627 m 0,0,1
 287 627 287 627 218 545 c 128,-1,2
 149 463 149 463 149 321 c 0,3,4
 149 206 149 206 209.5 134 c 128,-1,5
 270 62 270 62 364.5 62 c 128,-1,6
 459 62 459 62 540 98 c 1,7,-1
 540 276 l 1,8,-1
 392 276 l 1,9,-1
 392 349 l 1,10,-1
 625 349 l 1,11,-1
 625 55 l 1,12,13
 494 -12 494 -12 358 -12 c 0,14,15
 259 -12 259 -12 187.5 36.5 c 128,-1,16
 116 85 116 85 83 159 c 128,-1,17
 50 233 50 233 50 321 c 0,18,19
 50 489 50 489 148 596 c 128,-1,20
 246 703 246 703 409 703 c 0,21,22
 489 703 489 703 587 671 c 1,23,-1
 562 601 l 1,24,25
 481 627 481 627 409 627 c 0,0,1
316 -269 m 1,26,-1
 269 -259 l 1,27,-1
 310 -55 l 1,28,-1
 406 -45 l 1,29,-1
 316 -269 l 1,26,-1
EndSplineSet
EndChar

StartChar: uni0123
Encoding: 291 291 228
Width: 462
GlyphClass: 2
Flags: W
LayerCount: 2
Fore
SplineSet
221 129 m 0,0,1
 198 129 198 129 177 132 c 1,2,3
 152 84 152 84 152 69 c 0,4,5
 152 62 152 62 170 57 c 2,6,-1
 292 30 l 2,7,8
 377 11 377 11 413 -14.5 c 128,-1,9
 449 -40 449 -40 449 -90 c 128,-1,10
 449 -140 449 -140 414 -174 c 0,11,12
 346 -242 346 -242 214 -242 c 0,13,14
 133 -242 133 -242 74 -212 c 128,-1,15
 15 -182 15 -182 15 -126 c 128,-1,16
 15 -70 15 -70 95 3 c 1,17,18
 65 14 65 14 65 36 c 128,-1,19
 65 58 65 58 124 145 c 1,20,21
 38 182 38 182 38 300 c 0,22,23
 38 366 38 366 84.5 415.5 c 128,-1,24
 131 465 131 465 221 465 c 0,25,26
 273 465 273 465 312 450 c 1,27,-1
 452 466 l 1,28,-1
 452 399 l 1,29,-1
 377 399 l 1,30,31
 403 357 403 357 403 292.5 c 128,-1,32
 403 228 403 228 357 178.5 c 128,-1,33
 311 129 311 129 221 129 c 0,0,1
323 285 m 0,34,35
 323 409 323 409 222 409 c 0,36,37
 182 409 182 409 157 388 c 0,38,39
 118 354 118 354 118 303.5 c 128,-1,40
 118 253 118 253 142 219 c 128,-1,41
 166 185 166 185 219 185 c 128,-1,42
 272 185 272 185 297.5 217.5 c 128,-1,43
 323 250 323 250 323 285 c 0,34,35
95 -113 m 0,44,45
 95 -145 95 -145 130 -162 c 128,-1,46
 165 -179 165 -179 221 -179 c 128,-1,47
 277 -179 277 -179 325 -156.5 c 128,-1,48
 373 -134 373 -134 373 -95 c 0,49,50
 373 -75 373 -75 350 -62.5 c 128,-1,51
 327 -50 327 -50 270 -38 c 2,52,-1
 153 -12 l 1,53,54
 95 -70 95 -70 95 -113 c 0,44,45
257 730 m 1,55,-1
 304 720 l 1,56,-1
 263 516 l 1,57,-1
 167 506 l 1,58,-1
 257 730 l 1,55,-1
EndSplineSet
EndChar

StartChar: Hcircumflex
Encoding: 292 292 229
Width: 695
GlyphClass: 2
Flags: W
LayerCount: 2
Fore
SplineSet
534 0 m 1,0,-1
 534 314 l 1,1,-1
 161 314 l 1,2,-1
 161 0 l 1,3,-1
 75 0 l 1,4,-1
 75 691 l 1,5,-1
 161 691 l 1,6,-1
 161 387 l 1,7,-1
 534 387 l 1,8,-1
 534 691 l 1,9,-1
 620 691 l 1,10,-1
 620 0 l 1,11,-1
 534 0 l 1,0,-1
466 742 m 1,12,-1
 413 742 l 1,13,-1
 349 826 l 1,14,-1
 344 826 l 1,15,-1
 281 742 l 1,16,-1
 228 742 l 1,17,-1
 325 924 l 1,18,-1
 369 924 l 1,19,-1
 466 742 l 1,12,-1
EndSplineSet
EndChar

StartChar: hcircumflex
Encoding: 293 293 230
Width: 528
GlyphClass: 2
Flags: W
LayerCount: 2
Fore
SplineSet
153 718 m 1,0,-1
 153 409 l 1,1,2
 228 468 228 468 314 468 c 0,3,4
 381 468 381 468 420.5 434.5 c 128,-1,5
 460 401 460 401 460 347 c 2,6,-1
 460 0 l 1,7,-1
 375 0 l 1,8,-1
 375 341 l 2,9,10
 375 367 375 367 354.5 381 c 128,-1,11
 334 395 334 395 300 395 c 0,12,13
 229 395 229 395 153 344 c 1,14,-1
 153 0 l 1,15,-1
 68 0 l 1,16,-1
 68 718 l 1,17,-1
 153 718 l 1,0,-1
230 741 m 1,18,-1
 177 741 l 1,19,-1
 113 825 l 1,20,-1
 108 825 l 1,21,-1
 45 741 l 1,22,-1
 -8 741 l 1,23,-1
 89 923 l 1,24,-1
 133 923 l 1,25,-1
 230 741 l 1,18,-1
EndSplineSet
EndChar

StartChar: Hbar
Encoding: 294 294 231
Width: 695
GlyphClass: 2
Flags: W
LayerCount: 2
Fore
SplineSet
534 0 m 1,0,-1
 534 314 l 1,1,-1
 161 314 l 1,2,-1
 161 0 l 1,3,-1
 75 0 l 1,4,-1
 75 691 l 1,5,-1
 161 691 l 1,6,-1
 161 387 l 1,7,-1
 534 387 l 1,8,-1
 534 691 l 1,9,-1
 620 691 l 1,10,-1
 620 0 l 1,11,-1
 534 0 l 1,0,-1
691 521 m 1,12,-1
 3 521 l 1,13,-1
 3 575 l 1,14,-1
 691 575 l 1,15,-1
 691 521 l 1,12,-1
EndSplineSet
EndChar

StartChar: hbar
Encoding: 295 295 232
Width: 528
GlyphClass: 2
Flags: W
LayerCount: 2
Fore
SplineSet
153 718 m 1,0,-1
 153 409 l 1,1,2
 228 468 228 468 314 468 c 0,3,4
 381 468 381 468 420.5 434.5 c 128,-1,5
 460 401 460 401 460 347 c 2,6,-1
 460 0 l 1,7,-1
 375 0 l 1,8,-1
 375 341 l 2,9,10
 375 367 375 367 354.5 381 c 128,-1,11
 334 395 334 395 300 395 c 0,12,13
 229 395 229 395 153 344 c 1,14,-1
 153 0 l 1,15,-1
 68 0 l 1,16,-1
 68 718 l 1,17,-1
 153 718 l 1,0,-1
295 577 m 1,18,-1
 9 577 l 1,19,-1
 9 631 l 1,20,-1
 295 631 l 1,21,-1
 295 577 l 1,18,-1
EndSplineSet
EndChar

StartChar: Itilde
Encoding: 296 296 233
Width: 256
GlyphClass: 2
Flags: W
LayerCount: 2
Fore
SplineSet
85 0 m 1,0,-1
 85 691 l 1,1,-1
 171 691 l 1,2,-1
 171 0 l 1,3,-1
 85 0 l 1,0,-1
194 780 m 0,4,5
 169 780 169 780 121 796 c 128,-1,6
 73 812 73 812 54 812 c 0,7,8
 20 812 20 812 5 775 c 1,9,-1
 -34 792 l 1,10,11
 -3 885 -3 885 63 885 c 0,12,13
 88 885 88 885 136 869 c 128,-1,14
 184 853 184 853 203 853 c 0,15,16
 237 853 237 853 252 890 c 1,17,-1
 291 873 l 1,18,19
 260 780 260 780 194 780 c 0,4,5
EndSplineSet
EndChar

StartChar: itilde
Encoding: 297 297 234
Width: 245
GlyphClass: 2
Flags: W
LayerCount: 2
Fore
SplineSet
80 456 m 1,0,-1
 165 456 l 1,1,-1
 165 0 l 1,2,-1
 80 0 l 1,3,-1
 80 456 l 1,0,-1
188 551 m 0,4,5
 163 551 163 551 115 567 c 128,-1,6
 67 583 67 583 48 583 c 0,7,8
 14 583 14 583 -1 546 c 1,9,-1
 -40 563 l 1,10,11
 -9 656 -9 656 57 656 c 0,12,13
 82 656 82 656 130 640 c 128,-1,14
 178 624 178 624 197 624 c 0,15,16
 231 624 231 624 246 661 c 1,17,-1
 285 644 l 1,18,19
 254 551 254 551 188 551 c 0,4,5
EndSplineSet
EndChar

StartChar: Imacron
Encoding: 298 298 235
Width: 256
GlyphClass: 2
Flags: W
LayerCount: 2
Fore
SplineSet
85 0 m 1,0,-1
 85 691 l 1,1,-1
 171 691 l 1,2,-1
 171 0 l 1,3,-1
 85 0 l 1,0,-1
268 864 m 1,4,-1
 268 797 l 1,5,-1
 -12 797 l 1,6,-1
 -12 864 l 1,7,-1
 268 864 l 1,4,-1
EndSplineSet
EndChar

StartChar: imacron
Encoding: 299 299 236
Width: 245
GlyphClass: 2
Flags: W
LayerCount: 2
Fore
SplineSet
80 456 m 1,0,-1
 165 456 l 1,1,-1
 165 0 l 1,2,-1
 80 0 l 1,3,-1
 80 456 l 1,0,-1
263 635 m 1,4,-1
 263 568 l 1,5,-1
 -17 568 l 1,6,-1
 -17 635 l 1,7,-1
 263 635 l 1,4,-1
EndSplineSet
EndChar

StartChar: Ibreve
Encoding: 300 300 237
Width: 256
GlyphClass: 2
Flags: W
LayerCount: 2
Fore
SplineSet
85 0 m 1,0,-1
 85 691 l 1,1,-1
 171 691 l 1,2,-1
 171 0 l 1,3,-1
 85 0 l 1,0,-1
222.5 796.5 m 128,-1,5
 184 759 184 759 129.5 759 c 128,-1,6
 75 759 75 759 36 796.5 c 128,-1,7
 -3 834 -3 834 -7 886 c 1,8,-1
 64 886 l 1,9,10
 74 825 74 825 129 825 c 128,-1,11
 184 825 184 825 194 886 c 1,12,-1
 264 886 l 1,13,4
 261 834 261 834 222.5 796.5 c 128,-1,5
EndSplineSet
EndChar

StartChar: ibreve
Encoding: 301 301 238
Width: 245
GlyphClass: 2
Flags: W
LayerCount: 2
Fore
SplineSet
80 456 m 1,0,-1
 165 456 l 1,1,-1
 165 0 l 1,2,-1
 80 0 l 1,3,-1
 80 456 l 1,0,-1
216.5 567.5 m 128,-1,5
 178 530 178 530 123.5 530 c 128,-1,6
 69 530 69 530 30 567.5 c 128,-1,7
 -9 605 -9 605 -13 657 c 1,8,-1
 58 657 l 1,9,10
 68 596 68 596 123 596 c 128,-1,11
 178 596 178 596 188 657 c 1,12,-1
 258 657 l 1,13,4
 255 605 255 605 216.5 567.5 c 128,-1,5
EndSplineSet
EndChar

StartChar: Iogonek
Encoding: 302 302 239
Width: 256
GlyphClass: 2
Flags: W
LayerCount: 2
Fore
SplineSet
85 0 m 1,0,-1
 85 691 l 1,1,-1
 171 691 l 1,2,-1
 171 0 l 1,3,-1
 85 0 l 1,0,-1
63 -109 m 0,4,5
 63 -137 63 -137 78.5 -151 c 128,-1,6
 94 -165 94 -165 124 -165 c 128,-1,7
 154 -165 154 -165 184 -143 c 1,8,-1
 210 -187 l 1,9,10
 148 -230 148 -230 101 -230 c 128,-1,11
 54 -230 54 -230 28.5 -202.5 c 128,-1,12
 3 -175 3 -175 3 -133 c 0,13,14
 3 -59 3 -59 85 0 c 1,15,-1
 139 0 l 1,16,17
 63 -53 63 -53 63 -109 c 0,4,5
EndSplineSet
EndChar

StartChar: iogonek
Encoding: 303 303 240
Width: 245
GlyphClass: 2
Flags: W
LayerCount: 2
Fore
SplineSet
122 547 m 128,-1,1
 99 547 99 547 83 563.5 c 128,-1,2
 67 580 67 580 67 603 c 128,-1,3
 67 626 67 626 83.5 642.5 c 128,-1,4
 100 659 100 659 122 659 c 128,-1,5
 144 659 144 659 160.5 642.5 c 128,-1,6
 177 626 177 626 177 603 c 128,-1,7
 177 580 177 580 161 563.5 c 128,-1,0
 145 547 145 547 122 547 c 128,-1,1
80 456 m 1,8,-1
 165 456 l 1,9,-1
 165 0 l 1,10,-1
 80 0 l 1,11,-1
 80 456 l 1,8,-1
58 -109 m 0,12,13
 58 -137 58 -137 73.5 -151 c 128,-1,14
 89 -165 89 -165 119 -165 c 128,-1,15
 149 -165 149 -165 179 -143 c 1,16,-1
 205 -187 l 1,17,18
 143 -230 143 -230 96 -230 c 128,-1,19
 49 -230 49 -230 23.5 -202.5 c 128,-1,20
 -2 -175 -2 -175 -2 -133 c 0,21,22
 -2 -59 -2 -59 80 0 c 1,23,-1
 134 0 l 1,24,25
 58 -53 58 -53 58 -109 c 0,12,13
EndSplineSet
EndChar

StartChar: Idotaccent
Encoding: 304 304 241
Width: 256
GlyphClass: 2
Flags: W
LayerCount: 2
Fore
SplineSet
85 0 m 1,0,-1
 85 691 l 1,1,-1
 171 691 l 1,2,-1
 171 0 l 1,3,-1
 85 0 l 1,0,-1
128 776 m 128,-1,5
 105 776 105 776 89 792.5 c 128,-1,6
 73 809 73 809 73 832.5 c 128,-1,7
 73 856 73 856 89.5 872 c 128,-1,8
 106 888 106 888 128 888 c 128,-1,9
 150 888 150 888 166.5 872 c 128,-1,10
 183 856 183 856 183 832.5 c 128,-1,11
 183 809 183 809 167 792.5 c 128,-1,4
 151 776 151 776 128 776 c 128,-1,5
EndSplineSet
EndChar

StartChar: dotlessi
Encoding: 305 305 242
Width: 245
GlyphClass: 2
Flags: W
LayerCount: 2
Fore
SplineSet
80 456 m 1,0,-1
 165 456 l 1,1,-1
 165 0 l 1,2,-1
 80 0 l 1,3,-1
 80 456 l 1,0,-1
EndSplineSet
EndChar

StartChar: IJ
Encoding: 306 306 243
Width: 527
GlyphClass: 2
Flags: W
LayerCount: 2
Fore
SplineSet
85 0 m 1,0,-1
 85 691 l 1,1,-1
 171 691 l 1,2,-1
 171 0 l 1,3,-1
 85 0 l 1,0,-1
442 691 m 1,4,-1
 442 -1 l 2,5,6
 442 -100 442 -100 404.5 -150.5 c 128,-1,7
 367 -201 367 -201 273 -201 c 0,8,9
 234 -201 234 -201 203 -190 c 1,10,-1
 220 -121 l 1,11,12
 241 -129 241 -129 274 -129 c 0,13,14
 321 -129 321 -129 338.5 -95 c 128,-1,15
 356 -61 356 -61 356 7 c 2,16,-1
 356 691 l 1,17,-1
 442 691 l 1,4,-1
EndSplineSet
EndChar

StartChar: ij
Encoding: 307 307 244
Width: 487
GlyphClass: 2
Flags: W
LayerCount: 2
Fore
SplineSet
122 547 m 128,-1,1
 99 547 99 547 83 563.5 c 128,-1,2
 67 580 67 580 67 603 c 128,-1,3
 67 626 67 626 83.5 642.5 c 128,-1,4
 100 659 100 659 122 659 c 128,-1,5
 144 659 144 659 160.5 642.5 c 128,-1,6
 177 626 177 626 177 603 c 128,-1,7
 177 580 177 580 161 563.5 c 128,-1,0
 145 547 145 547 122 547 c 128,-1,1
80 456 m 1,8,-1
 165 456 l 1,9,-1
 165 0 l 1,10,-1
 80 0 l 1,11,-1
 80 456 l 1,8,-1
367 547 m 128,-1,13
 344 547 344 547 328 563.5 c 128,-1,14
 312 580 312 580 312 603 c 128,-1,15
 312 626 312 626 328 642.5 c 128,-1,16
 344 659 344 659 367 659 c 128,-1,17
 390 659 390 659 406 642.5 c 128,-1,18
 422 626 422 626 422 603 c 128,-1,19
 422 580 422 580 406 563.5 c 128,-1,12
 390 547 390 547 367 547 c 128,-1,13
407 456 m 1,20,-1
 407 -89 l 2,21,22
 407 -163 407 -163 372 -202.5 c 128,-1,23
 337 -242 337 -242 280.5 -242 c 128,-1,24
 224 -242 224 -242 160 -212 c 1,25,-1
 189 -152 l 1,26,27
 233 -170 233 -170 265 -170 c 0,28,29
 325 -170 325 -170 325 -90 c 2,30,-1
 325 456 l 1,31,-1
 407 456 l 1,20,-1
EndSplineSet
EndChar

StartChar: Jcircumflex
Encoding: 308 308 245
Width: 271
GlyphClass: 2
Flags: W
LayerCount: 2
Fore
SplineSet
186 691 m 1,0,-1
 186 -1 l 2,1,2
 186 -100 186 -100 148.5 -150.5 c 128,-1,3
 111 -201 111 -201 17 -201 c 0,4,5
 -22 -201 -22 -201 -53 -190 c 1,6,-1
 -36 -121 l 1,7,8
 -15 -129 -15 -129 18 -129 c 0,9,10
 65 -129 65 -129 82.5 -95 c 128,-1,11
 100 -61 100 -61 100 7 c 2,12,-1
 100 691 l 1,13,-1
 186 691 l 1,0,-1
255 742 m 1,14,-1
 202 742 l 1,15,-1
 138 826 l 1,16,-1
 133 826 l 1,17,-1
 70 742 l 1,18,-1
 17 742 l 1,19,-1
 114 924 l 1,20,-1
 158 924 l 1,21,-1
 255 742 l 1,14,-1
EndSplineSet
EndChar

StartChar: jcircumflex
Encoding: 309 309 246
Width: 242
GlyphClass: 2
Flags: W
LayerCount: 2
Fore
SplineSet
162 456 m 1,0,-1
 162 -89 l 2,1,2
 162 -163 162 -163 127 -202.5 c 128,-1,3
 92 -242 92 -242 36 -242 c 128,-1,4
 -20 -242 -20 -242 -85 -212 c 1,5,-1
 -56 -152 l 1,6,7
 -12 -170 -12 -170 20 -170 c 0,8,9
 80 -170 80 -170 80 -90 c 2,10,-1
 80 456 l 1,11,-1
 162 456 l 1,0,-1
240 513 m 1,12,-1
 187 513 l 1,13,-1
 123 597 l 1,14,-1
 118 597 l 1,15,-1
 55 513 l 1,16,-1
 2 513 l 1,17,-1
 99 695 l 1,18,-1
 143 695 l 1,19,-1
 240 513 l 1,12,-1
EndSplineSet
EndChar

StartChar: uni0136
Encoding: 310 310 247
Width: 571
GlyphClass: 2
Flags: W
LayerCount: 2
Fore
SplineSet
161 0 m 1,0,-1
 75 0 l 1,1,-1
 75 691 l 1,2,-1
 161 691 l 1,3,-1
 161 399 l 1,4,-1
 434 691 l 1,5,-1
 541 691 l 1,6,-1
 269 407 l 1,7,-1
 566 0 l 1,8,-1
 456 0 l 1,9,-1
 207 342 l 1,10,-1
 161 294 l 1,11,-1
 161 0 l 1,0,-1
244 -269 m 1,12,-1
 197 -259 l 1,13,-1
 238 -55 l 1,14,-1
 334 -45 l 1,15,-1
 244 -269 l 1,12,-1
EndSplineSet
EndChar

StartChar: uni0137
Encoding: 311 311 248
Width: 459
GlyphClass: 2
Flags: W
LayerCount: 2
Fore
SplineSet
150 0 m 1,0,-1
 68 0 l 1,1,-1
 68 718 l 1,2,-1
 150 718 l 1,3,-1
 150 294 l 1,4,-1
 328 456 l 1,5,-1
 441 456 l 1,6,-1
 240 283 l 1,7,-1
 462 0 l 1,8,-1
 354 0 l 1,9,-1
 178 230 l 1,10,-1
 150 206 l 1,11,-1
 150 0 l 1,0,-1
208 -269 m 1,12,-1
 161 -259 l 1,13,-1
 202 -55 l 1,14,-1
 298 -45 l 1,15,-1
 208 -269 l 1,12,-1
EndSplineSet
EndChar

StartChar: kgreenlandic
Encoding: 312 312 249
Width: 459
GlyphClass: 2
Flags: W
LayerCount: 2
Fore
SplineSet
150 0 m 1,0,-1
 68 0 l 1,1,-1
 68 455 l 1,2,-1
 150 455 l 1,3,-1
 150 269 l 1,4,-1
 328 456 l 1,5,-1
 441 456 l 1,6,-1
 242 258 l 1,7,-1
 462 0 l 1,8,-1
 354 0 l 1,9,-1
 184 201 l 1,10,-1
 150 167 l 1,11,-1
 150 0 l 1,0,-1
EndSplineSet
EndChar

StartChar: Lacute
Encoding: 313 313 250
Width: 459
GlyphClass: 2
Flags: W
LayerCount: 2
Fore
SplineSet
75 0 m 1,0,-1
 75 691 l 1,1,-1
 161 691 l 1,2,-1
 161 76 l 1,3,-1
 454 76 l 1,4,-1
 454 0 l 1,5,-1
 75 0 l 1,0,-1
126 742 m 1,6,-1
 62 742 l 1,7,-1
 189 926 l 1,8,-1
 261 872 l 1,9,-1
 126 742 l 1,6,-1
EndSplineSet
EndChar

StartChar: lacute
Encoding: 314 314 251
Width: 218
GlyphClass: 2
Flags: W
LayerCount: 2
Fore
SplineSet
68 718 m 1,0,-1
 150 718 l 1,1,-1
 150 0 l 1,2,-1
 68 0 l 1,3,-1
 68 718 l 1,0,-1
74 742 m 1,4,-1
 10 742 l 1,5,-1
 137 926 l 1,6,-1
 209 872 l 1,7,-1
 74 742 l 1,4,-1
EndSplineSet
EndChar

StartChar: uni013B
Encoding: 315 315 252
Width: 459
GlyphClass: 2
Flags: W
LayerCount: 2
Fore
SplineSet
75 0 m 1,0,-1
 75 691 l 1,1,-1
 161 691 l 1,2,-1
 161 76 l 1,3,-1
 454 76 l 1,4,-1
 454 0 l 1,5,-1
 75 0 l 1,0,-1
230 -269 m 1,6,-1
 183 -259 l 1,7,-1
 224 -55 l 1,8,-1
 320 -45 l 1,9,-1
 230 -269 l 1,6,-1
EndSplineSet
EndChar

StartChar: uni013C
Encoding: 316 316 253
Width: 218
GlyphClass: 2
Flags: W
LayerCount: 2
Fore
SplineSet
68 718 m 1,0,-1
 150 718 l 1,1,-1
 150 0 l 1,2,-1
 68 0 l 1,3,-1
 68 718 l 1,0,-1
68 -269 m 1,4,-1
 21 -259 l 1,5,-1
 62 -55 l 1,6,-1
 158 -45 l 1,7,-1
 68 -269 l 1,4,-1
EndSplineSet
EndChar

StartChar: Lcaron
Encoding: 317 317 254
Width: 459
GlyphClass: 2
Flags: W
LayerCount: 2
Fore
SplineSet
75 0 m 1,0,-1
 75 691 l 1,1,-1
 161 691 l 1,2,-1
 161 76 l 1,3,-1
 454 76 l 1,4,-1
 454 0 l 1,5,-1
 75 0 l 1,0,-1
288 516 m 1,6,-1
 241 526 l 1,7,-1
 282 730 l 1,8,-1
 378 740 l 1,9,-1
 288 516 l 1,6,-1
EndSplineSet
EndChar

StartChar: lcaron
Encoding: 318 318 255
Width: 218
GlyphClass: 2
Flags: W
LayerCount: 2
Fore
SplineSet
68 718 m 1,0,-1
 150 718 l 1,1,-1
 150 0 l 1,2,-1
 68 0 l 1,3,-1
 68 718 l 1,0,-1
237 516 m 1,4,-1
 190 526 l 1,5,-1
 231 730 l 1,6,-1
 327 740 l 1,7,-1
 237 516 l 1,4,-1
EndSplineSet
EndChar

StartChar: Ldot
Encoding: 319 319 256
Width: 459
GlyphClass: 2
Flags: W
LayerCount: 2
Fore
SplineSet
75 0 m 1,0,-1
 75 691 l 1,1,-1
 161 691 l 1,2,-1
 161 76 l 1,3,-1
 454 76 l 1,4,-1
 454 0 l 1,5,-1
 75 0 l 1,0,-1
303 309 m 128,-1,7
 281 309 281 309 266 324.5 c 128,-1,8
 251 340 251 340 251 363 c 128,-1,9
 251 386 251 386 266 401 c 128,-1,10
 281 416 281 416 303 416 c 128,-1,11
 325 416 325 416 340.5 401 c 128,-1,12
 356 386 356 386 356 363 c 128,-1,13
 356 340 356 340 340.5 324.5 c 128,-1,6
 325 309 325 309 303 309 c 128,-1,7
EndSplineSet
EndChar

StartChar: ldot
Encoding: 320 320 257
Width: 285
GlyphClass: 2
Flags: W
LayerCount: 2
Fore
SplineSet
68 718 m 1,0,-1
 150 718 l 1,1,-1
 150 0 l 1,2,-1
 68 0 l 1,3,-1
 68 718 l 1,0,-1
232 309 m 128,-1,5
 210 309 210 309 195 324.5 c 128,-1,6
 180 340 180 340 180 363 c 128,-1,7
 180 386 180 386 195 401 c 128,-1,8
 210 416 210 416 232 416 c 128,-1,9
 254 416 254 416 269.5 401 c 128,-1,10
 285 386 285 386 285 363 c 128,-1,11
 285 340 285 340 269.5 324.5 c 128,-1,4
 254 309 254 309 232 309 c 128,-1,5
EndSplineSet
EndChar

StartChar: Lslash
Encoding: 321 321 258
Width: 459
GlyphClass: 2
Flags: W
LayerCount: 2
Fore
SplineSet
75 0 m 1,0,-1
 75 691 l 1,1,-1
 161 691 l 1,2,-1
 161 76 l 1,3,-1
 454 76 l 1,4,-1
 454 0 l 1,5,-1
 75 0 l 1,0,-1
228 426 m 1,6,-1
 10 262 l 1,7,-1
 10 319 l 1,8,-1
 228 483 l 1,9,-1
 228 426 l 1,6,-1
EndSplineSet
EndChar

StartChar: lslash
Encoding: 322 322 259
Width: 218
GlyphClass: 2
Flags: W
LayerCount: 2
Fore
SplineSet
68 718 m 1,0,-1
 150 718 l 1,1,-1
 150 0 l 1,2,-1
 68 0 l 1,3,-1
 68 718 l 1,0,-1
218 426 m 1,4,-1
 0 262 l 1,5,-1
 0 319 l 1,6,-1
 218 483 l 1,7,-1
 218 426 l 1,4,-1
EndSplineSet
EndChar

StartChar: Nacute
Encoding: 323 323 260
Width: 731
GlyphClass: 2
Flags: W
LayerCount: 2
Fore
SplineSet
570 155 m 1,0,-1
 570 691 l 1,1,-1
 656 691 l 1,2,-1
 656 0 l 1,3,-1
 573 0 l 1,4,-1
 166 537 l 1,5,-1
 161 537 l 1,6,-1
 161 0 l 1,7,-1
 75 0 l 1,8,-1
 75 691 l 1,9,-1
 158 691 l 1,10,-1
 565 155 l 1,11,-1
 570 155 l 1,0,-1
380 742 m 1,12,-1
 316 742 l 1,13,-1
 443 926 l 1,14,-1
 515 872 l 1,15,-1
 380 742 l 1,12,-1
EndSplineSet
EndChar

StartChar: nacute
Encoding: 324 324 261
Width: 532
GlyphClass: 2
Flags: W
LayerCount: 2
Fore
SplineSet
464 345 m 2,0,-1
 464 0 l 1,1,-1
 379 0 l 1,2,-1
 379 341 l 2,3,4
 379 367 379 367 358.5 381 c 128,-1,5
 338 395 338 395 304 395 c 0,6,7
 233 395 233 395 157 344 c 1,8,-1
 157 0 l 1,9,-1
 72 0 l 1,10,-1
 72 456 l 1,11,-1
 126 456 l 1,12,-1
 151 404 l 1,13,14
 228 468 228 468 318 468 c 0,15,16
 385 468 385 468 424.5 434 c 128,-1,17
 464 400 464 400 464 345 c 2,0,-1
250 513 m 1,18,-1
 186 513 l 1,19,-1
 313 697 l 1,20,-1
 385 643 l 1,21,-1
 250 513 l 1,18,-1
EndSplineSet
EndChar

StartChar: uni0145
Encoding: 325 325 262
Width: 731
GlyphClass: 2
Flags: W
LayerCount: 2
Fore
SplineSet
570 155 m 1,0,-1
 570 691 l 1,1,-1
 656 691 l 1,2,-1
 656 0 l 1,3,-1
 573 0 l 1,4,-1
 166 537 l 1,5,-1
 161 537 l 1,6,-1
 161 0 l 1,7,-1
 75 0 l 1,8,-1
 75 691 l 1,9,-1
 158 691 l 1,10,-1
 565 155 l 1,11,-1
 570 155 l 1,0,-1
342 -269 m 1,12,-1
 295 -259 l 1,13,-1
 336 -55 l 1,14,-1
 432 -45 l 1,15,-1
 342 -269 l 1,12,-1
EndSplineSet
EndChar

StartChar: uni0146
Encoding: 326 326 263
Width: 532
GlyphClass: 2
Flags: W
LayerCount: 2
Fore
SplineSet
464 345 m 2,0,-1
 464 0 l 1,1,-1
 379 0 l 1,2,-1
 379 341 l 2,3,4
 379 367 379 367 358.5 381 c 128,-1,5
 338 395 338 395 304 395 c 0,6,7
 233 395 233 395 157 344 c 1,8,-1
 157 0 l 1,9,-1
 72 0 l 1,10,-1
 72 456 l 1,11,-1
 126 456 l 1,12,-1
 151 404 l 1,13,14
 228 468 228 468 318 468 c 0,15,16
 385 468 385 468 424.5 434 c 128,-1,17
 464 400 464 400 464 345 c 2,0,-1
243 -269 m 1,18,-1
 196 -259 l 1,19,-1
 237 -55 l 1,20,-1
 333 -45 l 1,21,-1
 243 -269 l 1,18,-1
EndSplineSet
EndChar

StartChar: Ncaron
Encoding: 327 327 264
Width: 731
GlyphClass: 2
Flags: W
LayerCount: 2
Fore
SplineSet
570 155 m 1,0,-1
 570 691 l 1,1,-1
 656 691 l 1,2,-1
 656 0 l 1,3,-1
 573 0 l 1,4,-1
 166 537 l 1,5,-1
 161 537 l 1,6,-1
 161 0 l 1,7,-1
 75 0 l 1,8,-1
 75 691 l 1,9,-1
 158 691 l 1,10,-1
 565 155 l 1,11,-1
 570 155 l 1,0,-1
367 836 m 1,12,-1
 431 920 l 1,13,-1
 484 920 l 1,14,-1
 387 738 l 1,15,-1
 343 738 l 1,16,-1
 246 920 l 1,17,-1
 299 920 l 1,18,-1
 362 836 l 1,19,-1
 367 836 l 1,12,-1
EndSplineSet
EndChar

StartChar: ncaron
Encoding: 328 328 265
Width: 532
GlyphClass: 2
Flags: W
LayerCount: 2
Fore
SplineSet
464 345 m 2,0,-1
 464 0 l 1,1,-1
 379 0 l 1,2,-1
 379 341 l 2,3,4
 379 367 379 367 358.5 381 c 128,-1,5
 338 395 338 395 304 395 c 0,6,7
 233 395 233 395 157 344 c 1,8,-1
 157 0 l 1,9,-1
 72 0 l 1,10,-1
 72 456 l 1,11,-1
 126 456 l 1,12,-1
 151 404 l 1,13,14
 228 468 228 468 318 468 c 0,15,16
 385 468 385 468 424.5 434 c 128,-1,17
 464 400 464 400 464 345 c 2,0,-1
268 607 m 1,18,-1
 332 691 l 1,19,-1
 385 691 l 1,20,-1
 288 509 l 1,21,-1
 244 509 l 1,22,-1
 147 691 l 1,23,-1
 200 691 l 1,24,-1
 263 607 l 1,25,-1
 268 607 l 1,18,-1
EndSplineSet
EndChar

StartChar: napostrophe
Encoding: 329 329 266
Width: 532
GlyphClass: 2
Flags: W
LayerCount: 2
Fore
SplineSet
464 345 m 2,0,-1
 464 0 l 1,1,-1
 379 0 l 1,2,-1
 379 341 l 2,3,4
 379 367 379 367 358.5 381 c 128,-1,5
 338 395 338 395 304 395 c 0,6,7
 233 395 233 395 157 344 c 1,8,-1
 157 0 l 1,9,-1
 72 0 l 1,10,-1
 72 456 l 1,11,-1
 126 456 l 1,12,-1
 151 404 l 1,13,14
 228 468 228 468 318 468 c 0,15,16
 385 468 385 468 424.5 434 c 128,-1,17
 464 400 464 400 464 345 c 2,0,-1
11 516 m 1,18,-1
 -36 526 l 1,19,-1
 5 730 l 1,20,-1
 101 740 l 1,21,-1
 11 516 l 1,18,-1
EndSplineSet
EndChar

StartChar: Eng
Encoding: 330 330 267
Width: 731
GlyphClass: 2
Flags: W
LayerCount: 2
Fore
SplineSet
570 155 m 1,0,-1
 570 691 l 1,1,-1
 656 691 l 1,2,-1
 656 -1 l 2,3,4
 656 -100 656 -100 618.5 -150.5 c 128,-1,5
 581 -201 581 -201 487 -201 c 0,6,7
 448 -201 448 -201 417 -190 c 1,8,-1
 434 -121 l 1,9,10
 455 -129 455 -129 494.5 -129 c 128,-1,11
 534 -129 534 -129 551.5 -96 c 128,-1,12
 569 -63 569 -63 570 4 c 1,13,-1
 166 537 l 1,14,-1
 161 537 l 1,15,-1
 161 0 l 1,16,-1
 75 0 l 1,17,-1
 75 691 l 1,18,-1
 158 691 l 1,19,-1
 565 155 l 1,20,-1
 570 155 l 1,0,-1
EndSplineSet
EndChar

StartChar: eng
Encoding: 331 331 268
Width: 532
GlyphClass: 2
Flags: W
LayerCount: 2
Fore
SplineSet
464 345 m 2,0,-1
 464 -89 l 2,1,2
 464 -163 464 -163 429 -202.5 c 128,-1,3
 394 -242 394 -242 338 -242 c 128,-1,4
 282 -242 282 -242 217 -212 c 1,5,-1
 246 -152 l 1,6,7
 290 -170 290 -170 319 -170 c 0,8,9
 379 -170 379 -170 379 -90 c 2,10,-1
 379 341 l 2,11,12
 379 367 379 367 358.5 381 c 128,-1,13
 338 395 338 395 304 395 c 0,14,15
 233 395 233 395 157 344 c 1,16,-1
 157 0 l 1,17,-1
 72 0 l 1,18,-1
 72 456 l 1,19,-1
 126 456 l 1,20,-1
 151 404 l 1,21,22
 228 468 228 468 318 468 c 0,23,24
 385 468 385 468 424.5 434 c 128,-1,25
 464 400 464 400 464 345 c 2,0,-1
EndSplineSet
EndChar

StartChar: Omacron
Encoding: 332 332 269
Width: 759
GlyphClass: 2
Flags: W
LayerCount: 2
Fore
SplineSet
355 -12 m 0,0,1
 280 -12 280 -12 220.5 16 c 128,-1,2
 161 44 161 44 124 91 c 0,3,4
 50 187 50 187 50 321 c 0,5,6
 50 489 50 489 147 596 c 128,-1,7
 244 703 244 703 404 703 c 0,8,9
 479 703 479 703 538.5 675 c 128,-1,10
 598 647 598 647 634 600 c 0,11,12
 709 504 709 504 709 370 c 0,13,14
 709 202 709 202 612 95 c 128,-1,15
 515 -12 515 -12 355 -12 c 0,0,1
400 628 m 0,16,17
 276 628 276 628 209 547 c 128,-1,18
 142 466 142 466 142 320 c 0,19,20
 142 213 142 213 199.5 137 c 128,-1,21
 257 61 257 61 360 61 c 0,22,23
 484 61 484 61 550.5 142 c 128,-1,24
 617 223 617 223 617 369 c 0,25,26
 617 476 617 476 560 552 c 128,-1,27
 503 628 503 628 400 628 c 0,16,17
519 864 m 1,28,-1
 519 797 l 1,29,-1
 239 797 l 1,30,-1
 239 864 l 1,31,-1
 519 864 l 1,28,-1
EndSplineSet
EndChar

StartChar: omacron
Encoding: 333 333 270
Width: 513
GlyphClass: 2
Flags: W
LayerCount: 2
Fore
SplineSet
259 403 m 0,0,1
 221 403 221 403 193.5 386 c 128,-1,2
 166 369 166 369 153 342 c 0,3,4
 129 291 129 291 129 233 c 0,5,6
 129 53 129 53 254 53 c 0,7,8
 292 53 292 53 319 70 c 128,-1,9
 346 87 346 87 360 114 c 0,10,11
 384 164 384 164 384 223 c 0,12,13
 384 403 384 403 259 403 c 0,0,1
259 468 m 0,14,15
 370 468 370 468 421 399 c 128,-1,16
 472 330 472 330 472 219 c 0,17,18
 472 139 472 139 430 71 c 0,19,20
 407 34 407 34 361 11 c 128,-1,21
 315 -12 315 -12 251 -12 c 0,22,23
 141 -12 141 -12 91 54 c 128,-1,24
 41 120 41 120 41 231 c 0,25,26
 41 296 41 296 61.5 341 c 128,-1,27
 82 386 82 386 105 410.5 c 128,-1,28
 128 435 128 435 168 451.5 c 128,-1,29
 208 468 208 468 259 468 c 0,14,15
396 635 m 1,30,-1
 396 568 l 1,31,-1
 116 568 l 1,32,-1
 116 635 l 1,33,-1
 396 635 l 1,30,-1
EndSplineSet
EndChar

StartChar: Obreve
Encoding: 334 334 271
Width: 759
GlyphClass: 2
Flags: W
LayerCount: 2
Fore
SplineSet
355 -12 m 0,0,1
 280 -12 280 -12 220.5 16 c 128,-1,2
 161 44 161 44 124 91 c 0,3,4
 50 187 50 187 50 321 c 0,5,6
 50 489 50 489 147 596 c 128,-1,7
 244 703 244 703 404 703 c 0,8,9
 479 703 479 703 538.5 675 c 128,-1,10
 598 647 598 647 634 600 c 0,11,12
 709 504 709 504 709 370 c 0,13,14
 709 202 709 202 612 95 c 128,-1,15
 515 -12 515 -12 355 -12 c 0,0,1
400 628 m 0,16,17
 276 628 276 628 209 547 c 128,-1,18
 142 466 142 466 142 320 c 0,19,20
 142 213 142 213 199.5 137 c 128,-1,21
 257 61 257 61 360 61 c 0,22,23
 484 61 484 61 550.5 142 c 128,-1,24
 617 223 617 223 617 369 c 0,25,26
 617 476 617 476 560 552 c 128,-1,27
 503 628 503 628 400 628 c 0,16,17
473.5 796.5 m 128,-1,29
 435 759 435 759 380.5 759 c 128,-1,30
 326 759 326 759 287 796.5 c 128,-1,31
 248 834 248 834 244 886 c 1,32,-1
 315 886 l 1,33,34
 325 825 325 825 380 825 c 128,-1,35
 435 825 435 825 445 886 c 1,36,-1
 515 886 l 1,37,28
 512 834 512 834 473.5 796.5 c 128,-1,29
EndSplineSet
EndChar

StartChar: obreve
Encoding: 335 335 272
Width: 513
GlyphClass: 2
Flags: W
LayerCount: 2
Fore
SplineSet
259 403 m 0,0,1
 221 403 221 403 193.5 386 c 128,-1,2
 166 369 166 369 153 342 c 0,3,4
 129 291 129 291 129 233 c 0,5,6
 129 53 129 53 254 53 c 0,7,8
 292 53 292 53 319 70 c 128,-1,9
 346 87 346 87 360 114 c 0,10,11
 384 164 384 164 384 223 c 0,12,13
 384 403 384 403 259 403 c 0,0,1
259 468 m 0,14,15
 370 468 370 468 421 399 c 128,-1,16
 472 330 472 330 472 219 c 0,17,18
 472 139 472 139 430 71 c 0,19,20
 407 34 407 34 361 11 c 128,-1,21
 315 -12 315 -12 251 -12 c 0,22,23
 141 -12 141 -12 91 54 c 128,-1,24
 41 120 41 120 41 231 c 0,25,26
 41 296 41 296 61.5 341 c 128,-1,27
 82 386 82 386 105 410.5 c 128,-1,28
 128 435 128 435 168 451.5 c 128,-1,29
 208 468 208 468 259 468 c 0,14,15
350.5 567.5 m 128,-1,31
 312 530 312 530 257.5 530 c 128,-1,32
 203 530 203 530 164 567.5 c 128,-1,33
 125 605 125 605 121 657 c 1,34,-1
 192 657 l 1,35,36
 202 596 202 596 257 596 c 128,-1,37
 312 596 312 596 322 657 c 1,38,-1
 392 657 l 1,39,30
 389 605 389 605 350.5 567.5 c 128,-1,31
EndSplineSet
EndChar

StartChar: Ohungarumlaut
Encoding: 336 336 273
Width: 759
GlyphClass: 2
Flags: W
LayerCount: 2
Fore
SplineSet
355 -12 m 0,0,1
 280 -12 280 -12 220.5 16 c 128,-1,2
 161 44 161 44 124 91 c 0,3,4
 50 187 50 187 50 321 c 0,5,6
 50 489 50 489 147 596 c 128,-1,7
 244 703 244 703 404 703 c 0,8,9
 479 703 479 703 538.5 675 c 128,-1,10
 598 647 598 647 634 600 c 0,11,12
 709 504 709 504 709 370 c 0,13,14
 709 202 709 202 612 95 c 128,-1,15
 515 -12 515 -12 355 -12 c 0,0,1
400 628 m 0,16,17
 276 628 276 628 209 547 c 128,-1,18
 142 466 142 466 142 320 c 0,19,20
 142 213 142 213 199.5 137 c 128,-1,21
 257 61 257 61 360 61 c 0,22,23
 484 61 484 61 550.5 142 c 128,-1,24
 617 223 617 223 617 369 c 0,25,26
 617 476 617 476 560 552 c 128,-1,27
 503 628 503 628 400 628 c 0,16,17
309 742 m 1,28,-1
 245 742 l 1,29,-1
 372 926 l 1,30,-1
 444 872 l 1,31,-1
 309 742 l 1,28,-1
478 742 m 1,32,-1
 414 742 l 1,33,-1
 541 926 l 1,34,-1
 613 872 l 1,35,-1
 478 742 l 1,32,-1
EndSplineSet
EndChar

StartChar: ohungarumlaut
Encoding: 337 337 274
Width: 513
GlyphClass: 2
Flags: W
LayerCount: 2
Fore
SplineSet
259 403 m 0,0,1
 221 403 221 403 193.5 386 c 128,-1,2
 166 369 166 369 153 342 c 0,3,4
 129 291 129 291 129 233 c 0,5,6
 129 53 129 53 254 53 c 0,7,8
 292 53 292 53 319 70 c 128,-1,9
 346 87 346 87 360 114 c 0,10,11
 384 164 384 164 384 223 c 0,12,13
 384 403 384 403 259 403 c 0,0,1
259 468 m 0,14,15
 370 468 370 468 421 399 c 128,-1,16
 472 330 472 330 472 219 c 0,17,18
 472 139 472 139 430 71 c 0,19,20
 407 34 407 34 361 11 c 128,-1,21
 315 -12 315 -12 251 -12 c 0,22,23
 141 -12 141 -12 91 54 c 128,-1,24
 41 120 41 120 41 231 c 0,25,26
 41 296 41 296 61.5 341 c 128,-1,27
 82 386 82 386 105 410.5 c 128,-1,28
 128 435 128 435 168 451.5 c 128,-1,29
 208 468 208 468 259 468 c 0,14,15
176 513 m 1,30,-1
 112 513 l 1,31,-1
 239 697 l 1,32,-1
 311 643 l 1,33,-1
 176 513 l 1,30,-1
345 513 m 1,34,-1
 281 513 l 1,35,-1
 408 697 l 1,36,-1
 480 643 l 1,37,-1
 345 513 l 1,34,-1
EndSplineSet
EndChar

StartChar: OE
Encoding: 338 338 275
Width: 976
GlyphClass: 2
Flags: W
LayerCount: 2
Fore
SplineSet
452 0 m 1,0,1
 407 -12 407 -12 343.5 -12 c 128,-1,2
 280 -12 280 -12 220.5 16 c 128,-1,3
 161 44 161 44 124 91 c 0,4,5
 50 187 50 187 50 321 c 0,6,7
 50 489 50 489 147 596 c 128,-1,8
 244 703 244 703 404 703 c 0,9,10
 453 703 453 703 495 691 c 1,11,-1
 922 691 l 1,12,-1
 903 615 l 1,13,-1
 621 615 l 1,14,15
 702 528 702 528 709 387 c 1,16,-1
 886 387 l 1,17,-1
 886 314 l 1,18,-1
 706 314 l 1,19,20
 689 166 689 166 593 76 c 1,21,-1
 941 76 l 1,22,-1
 941 0 l 1,23,-1
 452 0 l 1,0,1
400 628 m 0,24,25
 276 628 276 628 209 547 c 128,-1,26
 142 466 142 466 142 320 c 0,27,28
 142 213 142 213 199.5 137 c 128,-1,29
 257 61 257 61 360 61 c 0,30,31
 484 61 484 61 550.5 142 c 128,-1,32
 617 223 617 223 617 369 c 0,33,34
 617 476 617 476 560 552 c 128,-1,35
 503 628 503 628 400 628 c 0,24,25
EndSplineSet
EndChar

StartChar: oe
Encoding: 339 339 276
Width: 819
GlyphClass: 2
Flags: W
LayerCount: 2
Fore
SplineSet
259 403 m 0,0,1
 221 403 221 403 193.5 386 c 128,-1,2
 166 369 166 369 153 342 c 0,3,4
 129 291 129 291 129 233 c 0,5,6
 129 53 129 53 254 53 c 0,7,8
 292 53 292 53 319 70 c 128,-1,9
 346 87 346 87 360 114 c 0,10,11
 384 164 384 164 384 223 c 0,12,13
 384 403 384 403 259 403 c 0,0,1
259 468 m 0,14,15
 370 468 370 468 421 399 c 128,-1,16
 472 330 472 330 472 219 c 0,17,18
 472 139 472 139 430 71 c 0,19,20
 407 34 407 34 361 11 c 128,-1,21
 315 -12 315 -12 251 -12 c 0,22,23
 141 -12 141 -12 91 54 c 128,-1,24
 41 120 41 120 41 231 c 0,25,26
 41 296 41 296 61.5 341 c 128,-1,27
 82 386 82 386 105 410.5 c 128,-1,28
 128 435 128 435 168 451.5 c 128,-1,29
 208 468 208 468 259 468 c 0,14,15
601 58 m 0,30,31
 673 58 673 58 745 101 c 1,32,-1
 774 41 l 1,33,34
 690 -12 690 -12 594.5 -12 c 128,-1,35
 499 -12 499 -12 443 48.5 c 128,-1,36
 387 109 387 109 387 223 c 128,-1,37
 387 337 387 337 445 402.5 c 128,-1,38
 503 468 503 468 599 468 c 0,39,40
 686 468 686 468 736 414 c 0,41,42
 757 392 757 392 771.5 350 c 128,-1,43
 786 308 786 308 786 251 c 1,44,-1
 755 216 l 1,45,-1
 472 216 l 1,46,47
 475 58 475 58 601 58 c 0,30,31
673 369 m 128,-1,49
 644 403 644 403 596.5 403 c 128,-1,50
 549 403 549 403 516 369.5 c 128,-1,51
 483 336 483 336 476 279 c 1,52,-1
 702 279 l 1,53,48
 702 335 702 335 673 369 c 128,-1,49
EndSplineSet
EndChar

StartChar: Racute
Encoding: 340 340 277
Width: 549
GlyphClass: 2
Flags: W
LayerCount: 2
Fore
SplineSet
161 281 m 1,0,-1
 161 0 l 1,1,-1
 75 0 l 1,2,-1
 75 691 l 1,3,-1
 257 691 l 2,4,5
 359 691 359 691 426 636.5 c 128,-1,6
 493 582 493 582 493 485 c 0,7,8
 493 415 493 415 456 366.5 c 128,-1,9
 419 318 419 318 356 296 c 1,10,11
 408 236 408 236 549 0 c 1,12,-1
 445 0 l 1,13,14
 306 240 306 240 269 281 c 1,15,-1
 161 281 l 1,0,-1
161 355 m 1,16,-1
 257 355 l 2,17,18
 326 355 326 355 363.5 389 c 128,-1,19
 401 423 401 423 401 485 c 128,-1,20
 401 547 401 547 363.5 581 c 128,-1,21
 326 615 326 615 257 615 c 2,22,-1
 161 615 l 1,23,-1
 161 355 l 1,16,-1
239 742 m 1,24,-1
 175 742 l 1,25,-1
 302 926 l 1,26,-1
 374 872 l 1,27,-1
 239 742 l 1,24,-1
EndSplineSet
EndChar

StartChar: racute
Encoding: 341 341 278
Width: 315
GlyphClass: 2
Flags: W
LayerCount: 2
Fore
SplineSet
72 456 m 1,0,-1
 126 456 l 1,1,-1
 151 376 l 1,2,-1
 155 376 l 1,3,4
 210 447 210 447 306 462 c 1,5,-1
 315 383 l 1,6,7
 268 380 268 380 224 359 c 128,-1,8
 180 338 180 338 157 303 c 1,9,-1
 157 0 l 1,10,-1
 72 0 l 1,11,-1
 72 456 l 1,0,-1
171 513 m 1,12,-1
 107 513 l 1,13,-1
 234 697 l 1,14,-1
 306 643 l 1,15,-1
 171 513 l 1,12,-1
EndSplineSet
EndChar

StartChar: uni0156
Encoding: 342 342 279
Width: 549
GlyphClass: 2
Flags: W
LayerCount: 2
Fore
SplineSet
161 281 m 1,0,-1
 161 0 l 1,1,-1
 75 0 l 1,2,-1
 75 691 l 1,3,-1
 257 691 l 2,4,5
 359 691 359 691 426 636.5 c 128,-1,6
 493 582 493 582 493 485 c 0,7,8
 493 415 493 415 456 366.5 c 128,-1,9
 419 318 419 318 356 296 c 1,10,11
 408 236 408 236 549 0 c 1,12,-1
 445 0 l 1,13,14
 306 240 306 240 269 281 c 1,15,-1
 161 281 l 1,0,-1
161 355 m 1,16,-1
 257 355 l 2,17,18
 326 355 326 355 363.5 389 c 128,-1,19
 401 423 401 423 401 485 c 128,-1,20
 401 547 401 547 363.5 581 c 128,-1,21
 326 615 326 615 257 615 c 2,22,-1
 161 615 l 1,23,-1
 161 355 l 1,16,-1
252 -269 m 1,24,-1
 205 -259 l 1,25,-1
 246 -55 l 1,26,-1
 342 -45 l 1,27,-1
 252 -269 l 1,24,-1
EndSplineSet
EndChar

StartChar: uni0157
Encoding: 343 343 280
Width: 315
GlyphClass: 2
Flags: W
LayerCount: 2
Fore
SplineSet
72 456 m 1,0,-1
 126 456 l 1,1,-1
 151 376 l 1,2,-1
 155 376 l 1,3,4
 210 447 210 447 306 462 c 1,5,-1
 315 383 l 1,6,7
 268 380 268 380 224 359 c 128,-1,8
 180 338 180 338 157 303 c 1,9,-1
 157 0 l 1,10,-1
 72 0 l 1,11,-1
 72 456 l 1,0,-1
83 -269 m 1,12,-1
 36 -259 l 1,13,-1
 77 -55 l 1,14,-1
 173 -45 l 1,15,-1
 83 -269 l 1,12,-1
EndSplineSet
EndChar

StartChar: Rcaron
Encoding: 344 344 281
Width: 549
GlyphClass: 2
Flags: W
LayerCount: 2
Fore
SplineSet
161 281 m 1,0,-1
 161 0 l 1,1,-1
 75 0 l 1,2,-1
 75 691 l 1,3,-1
 257 691 l 2,4,5
 359 691 359 691 426 636.5 c 128,-1,6
 493 582 493 582 493 485 c 0,7,8
 493 415 493 415 456 366.5 c 128,-1,9
 419 318 419 318 356 296 c 1,10,11
 408 236 408 236 549 0 c 1,12,-1
 445 0 l 1,13,14
 306 240 306 240 269 281 c 1,15,-1
 161 281 l 1,0,-1
161 355 m 1,16,-1
 257 355 l 2,17,18
 326 355 326 355 363.5 389 c 128,-1,19
 401 423 401 423 401 485 c 128,-1,20
 401 547 401 547 363.5 581 c 128,-1,21
 326 615 326 615 257 615 c 2,22,-1
 161 615 l 1,23,-1
 161 355 l 1,16,-1
242 836 m 1,24,-1
 306 920 l 1,25,-1
 359 920 l 1,26,-1
 262 738 l 1,27,-1
 218 738 l 1,28,-1
 121 920 l 1,29,-1
 174 920 l 1,30,-1
 237 836 l 1,31,-1
 242 836 l 1,24,-1
EndSplineSet
EndChar

StartChar: rcaron
Encoding: 345 345 282
Width: 315
GlyphClass: 2
Flags: W
LayerCount: 2
Fore
SplineSet
72 456 m 1,0,-1
 126 456 l 1,1,-1
 151 376 l 1,2,-1
 155 376 l 1,3,4
 210 447 210 447 306 462 c 1,5,-1
 315 383 l 1,6,7
 268 380 268 380 224 359 c 128,-1,8
 180 338 180 338 157 303 c 1,9,-1
 157 0 l 1,10,-1
 72 0 l 1,11,-1
 72 456 l 1,0,-1
179 607 m 1,12,-1
 243 691 l 1,13,-1
 296 691 l 1,14,-1
 199 509 l 1,15,-1
 155 509 l 1,16,-1
 58 691 l 1,17,-1
 111 691 l 1,18,-1
 174 607 l 1,19,-1
 179 607 l 1,12,-1
EndSplineSet
EndChar

StartChar: Sacute
Encoding: 346 346 283
Width: 512
GlyphClass: 2
Flags: W
LayerCount: 2
Fore
SplineSet
412 605 m 1,0,1
 342 629 342 629 282 629 c 128,-1,2
 222 629 222 629 184 598 c 128,-1,3
 146 567 146 567 146 523 c 0,4,5
 146 460 146 460 213 424 c 2,6,-1
 354 346 l 2,7,8
 472 280 472 280 472 176 c 0,9,10
 472 90 472 90 411 39 c 128,-1,11
 350 -12 350 -12 239 -12 c 128,-1,12
 128 -12 128 -12 40 28 c 1,13,-1
 65 98 l 1,14,15
 147 62 147 62 226.5 62 c 128,-1,16
 306 62 306 62 344 93 c 128,-1,17
 382 124 382 124 382 168 c 0,18,19
 382 231 382 231 315 267 c 2,20,-1
 174 345 l 2,21,22
 56 411 56 411 56 515 c 0,23,24
 56 601 56 601 117 652 c 128,-1,25
 178 703 178 703 281 703 c 0,26,27
 351 703 351 703 438 674 c 1,28,-1
 412 605 l 1,0,1
256 742 m 1,29,-1
 192 742 l 1,30,-1
 319 926 l 1,31,-1
 391 872 l 1,32,-1
 256 742 l 1,29,-1
EndSplineSet
EndChar

StartChar: sacute
Encoding: 347 347 284
Width: 384
GlyphClass: 2
Flags: W
LayerCount: 2
Fore
SplineSet
306 376 m 1,0,1
 255 398 255 398 210 398 c 0,2,3
 123 398 123 398 123 345 c 0,4,5
 123 299 123 299 239 256 c 0,6,7
 282 240 282 240 318.5 206 c 128,-1,8
 355 172 355 172 355 124 c 0,9,10
 355 55 355 55 310 21.5 c 128,-1,11
 265 -12 265 -12 185 -12 c 128,-1,12
 105 -12 105 -12 29 32 c 1,13,-1
 54 94 l 1,14,15
 117 58 117 58 197 58 c 0,16,17
 231 58 231 58 252 72.5 c 128,-1,18
 273 87 273 87 273 112 c 128,-1,19
 273 137 273 137 249 155 c 128,-1,20
 225 173 225 173 191 187 c 128,-1,21
 157 201 157 201 123 217.5 c 128,-1,22
 89 234 89 234 65 264 c 128,-1,23
 41 294 41 294 41 335 c 0,24,25
 41 399 41 399 84.5 433.5 c 128,-1,26
 128 468 128 468 195 468 c 128,-1,27
 262 468 262 468 331 438 c 1,28,-1
 306 376 l 1,0,1
167 513 m 1,29,-1
 103 513 l 1,30,-1
 230 697 l 1,31,-1
 302 643 l 1,32,-1
 167 513 l 1,29,-1
EndSplineSet
EndChar

StartChar: Scircumflex
Encoding: 348 348 285
Width: 512
GlyphClass: 2
Flags: W
LayerCount: 2
Fore
SplineSet
412 605 m 1,0,1
 342 629 342 629 282 629 c 128,-1,2
 222 629 222 629 184 598 c 128,-1,3
 146 567 146 567 146 523 c 0,4,5
 146 460 146 460 213 424 c 2,6,-1
 354 346 l 2,7,8
 472 280 472 280 472 176 c 0,9,10
 472 90 472 90 411 39 c 128,-1,11
 350 -12 350 -12 239 -12 c 128,-1,12
 128 -12 128 -12 40 28 c 1,13,-1
 65 98 l 1,14,15
 147 62 147 62 226.5 62 c 128,-1,16
 306 62 306 62 344 93 c 128,-1,17
 382 124 382 124 382 168 c 0,18,19
 382 231 382 231 315 267 c 2,20,-1
 174 345 l 2,21,22
 56 411 56 411 56 515 c 0,23,24
 56 601 56 601 117 652 c 128,-1,25
 178 703 178 703 281 703 c 0,26,27
 351 703 351 703 438 674 c 1,28,-1
 412 605 l 1,0,1
371 742 m 1,29,-1
 318 742 l 1,30,-1
 254 826 l 1,31,-1
 249 826 l 1,32,-1
 186 742 l 1,33,-1
 133 742 l 1,34,-1
 230 924 l 1,35,-1
 274 924 l 1,36,-1
 371 742 l 1,29,-1
EndSplineSet
EndChar

StartChar: scircumflex
Encoding: 349 349 286
Width: 384
GlyphClass: 2
Flags: W
LayerCount: 2
Fore
SplineSet
306 376 m 1,0,1
 255 398 255 398 210 398 c 0,2,3
 123 398 123 398 123 345 c 0,4,5
 123 299 123 299 239 256 c 0,6,7
 282 240 282 240 318.5 206 c 128,-1,8
 355 172 355 172 355 124 c 0,9,10
 355 55 355 55 310 21.5 c 128,-1,11
 265 -12 265 -12 185 -12 c 128,-1,12
 105 -12 105 -12 29 32 c 1,13,-1
 54 94 l 1,14,15
 117 58 117 58 197 58 c 0,16,17
 231 58 231 58 252 72.5 c 128,-1,18
 273 87 273 87 273 112 c 128,-1,19
 273 137 273 137 249 155 c 128,-1,20
 225 173 225 173 191 187 c 128,-1,21
 157 201 157 201 123 217.5 c 128,-1,22
 89 234 89 234 65 264 c 128,-1,23
 41 294 41 294 41 335 c 0,24,25
 41 399 41 399 84.5 433.5 c 128,-1,26
 128 468 128 468 195 468 c 128,-1,27
 262 468 262 468 331 438 c 1,28,-1
 306 376 l 1,0,1
311 513 m 1,29,-1
 258 513 l 1,30,-1
 194 597 l 1,31,-1
 189 597 l 1,32,-1
 126 513 l 1,33,-1
 73 513 l 1,34,-1
 170 695 l 1,35,-1
 214 695 l 1,36,-1
 311 513 l 1,29,-1
EndSplineSet
EndChar

StartChar: Scedilla
Encoding: 350 350 287
Width: 512
GlyphClass: 2
Flags: W
LayerCount: 2
Fore
SplineSet
412 605 m 1,0,1
 342 629 342 629 282 629 c 128,-1,2
 222 629 222 629 184 598 c 128,-1,3
 146 567 146 567 146 523 c 0,4,5
 146 460 146 460 213 424 c 2,6,-1
 354 346 l 2,7,8
 472 280 472 280 472 176 c 0,9,10
 472 90 472 90 411 39 c 128,-1,11
 350 -12 350 -12 239 -12 c 128,-1,12
 128 -12 128 -12 40 28 c 1,13,-1
 65 98 l 1,14,15
 147 62 147 62 226.5 62 c 128,-1,16
 306 62 306 62 344 93 c 128,-1,17
 382 124 382 124 382 168 c 0,18,19
 382 231 382 231 315 267 c 2,20,-1
 174 345 l 2,21,22
 56 411 56 411 56 515 c 0,23,24
 56 601 56 601 117 652 c 128,-1,25
 178 703 178 703 281 703 c 0,26,27
 351 703 351 703 438 674 c 1,28,-1
 412 605 l 1,0,1
348 -143 m 0,29,30
 348 -188 348 -188 316 -215 c 128,-1,31
 284 -242 284 -242 237.5 -242 c 128,-1,32
 191 -242 191 -242 147 -215 c 1,33,-1
 163 -175 l 1,34,35
 193 -195 193 -195 221.5 -195 c 128,-1,36
 250 -195 250 -195 267.5 -178.5 c 128,-1,37
 285 -162 285 -162 285 -140.5 c 128,-1,38
 285 -119 285 -119 266 -102.5 c 128,-1,39
 247 -86 247 -86 211 -83 c 1,40,-1
 202 -70 l 1,41,-1
 234 8 l 1,42,-1
 269 8 l 1,43,-1
 258 -47 l 1,44,45
 348 -77 348 -77 348 -143 c 0,29,30
EndSplineSet
EndChar

StartChar: scedilla
Encoding: 351 351 288
Width: 384
GlyphClass: 2
Flags: W
LayerCount: 2
Fore
SplineSet
306 376 m 1,0,1
 255 398 255 398 210 398 c 0,2,3
 123 398 123 398 123 345 c 0,4,5
 123 299 123 299 239 256 c 0,6,7
 282 240 282 240 318.5 206 c 128,-1,8
 355 172 355 172 355 124 c 0,9,10
 355 55 355 55 310 21.5 c 128,-1,11
 265 -12 265 -12 185 -12 c 128,-1,12
 105 -12 105 -12 29 32 c 1,13,-1
 54 94 l 1,14,15
 117 58 117 58 197 58 c 0,16,17
 231 58 231 58 252 72.5 c 128,-1,18
 273 87 273 87 273 112 c 128,-1,19
 273 137 273 137 249 155 c 128,-1,20
 225 173 225 173 191 187 c 128,-1,21
 157 201 157 201 123 217.5 c 128,-1,22
 89 234 89 234 65 264 c 128,-1,23
 41 294 41 294 41 335 c 0,24,25
 41 399 41 399 84.5 433.5 c 128,-1,26
 128 468 128 468 195 468 c 128,-1,27
 262 468 262 468 331 438 c 1,28,-1
 306 376 l 1,0,1
283 -143 m 0,29,30
 283 -188 283 -188 251 -215 c 128,-1,31
 219 -242 219 -242 172.5 -242 c 128,-1,32
 126 -242 126 -242 82 -215 c 1,33,-1
 98 -175 l 1,34,35
 128 -195 128 -195 156.5 -195 c 128,-1,36
 185 -195 185 -195 202.5 -178.5 c 128,-1,37
 220 -162 220 -162 220 -140.5 c 128,-1,38
 220 -119 220 -119 201 -102.5 c 128,-1,39
 182 -86 182 -86 146 -83 c 1,40,-1
 137 -70 l 1,41,-1
 169 8 l 1,42,-1
 204 8 l 1,43,-1
 193 -47 l 1,44,45
 283 -77 283 -77 283 -143 c 0,29,30
EndSplineSet
Substitution2: "'locl' Localized Forms in Latin lookup 1 subtable" uni0219
EndChar

StartChar: Scaron
Encoding: 352 352 289
Width: 512
GlyphClass: 2
Flags: W
LayerCount: 2
Fore
SplineSet
412 605 m 1,0,1
 342 629 342 629 282 629 c 128,-1,2
 222 629 222 629 184 598 c 128,-1,3
 146 567 146 567 146 523 c 0,4,5
 146 460 146 460 213 424 c 2,6,-1
 354 346 l 2,7,8
 472 280 472 280 472 176 c 0,9,10
 472 90 472 90 411 39 c 128,-1,11
 350 -12 350 -12 239 -12 c 128,-1,12
 128 -12 128 -12 40 28 c 1,13,-1
 65 98 l 1,14,15
 147 62 147 62 226.5 62 c 128,-1,16
 306 62 306 62 344 93 c 128,-1,17
 382 124 382 124 382 168 c 0,18,19
 382 231 382 231 315 267 c 2,20,-1
 174 345 l 2,21,22
 56 411 56 411 56 515 c 0,23,24
 56 601 56 601 117 652 c 128,-1,25
 178 703 178 703 281 703 c 0,26,27
 351 703 351 703 438 674 c 1,28,-1
 412 605 l 1,0,1
258 836 m 1,29,-1
 322 920 l 1,30,-1
 375 920 l 1,31,-1
 278 738 l 1,32,-1
 234 738 l 1,33,-1
 137 920 l 1,34,-1
 190 920 l 1,35,-1
 253 836 l 1,36,-1
 258 836 l 1,29,-1
EndSplineSet
EndChar

StartChar: scaron
Encoding: 353 353 290
Width: 384
GlyphClass: 2
Flags: W
LayerCount: 2
Fore
SplineSet
194 607 m 1,0,-1
 258 691 l 1,1,-1
 311 691 l 1,2,-1
 214 509 l 1,3,-1
 170 509 l 1,4,-1
 73 691 l 1,5,-1
 126 691 l 1,6,-1
 189 607 l 1,7,-1
 194 607 l 1,0,-1
306 376 m 1,8,9
 255 398 255 398 210 398 c 0,10,11
 123 398 123 398 123 345 c 0,12,13
 123 299 123 299 239 256 c 0,14,15
 282 240 282 240 318.5 206 c 128,-1,16
 355 172 355 172 355 124 c 0,17,18
 355 55 355 55 310 21.5 c 128,-1,19
 265 -12 265 -12 185 -12 c 128,-1,20
 105 -12 105 -12 29 32 c 1,21,-1
 54 94 l 1,22,23
 117 58 117 58 197 58 c 0,24,25
 231 58 231 58 252 72.5 c 128,-1,26
 273 87 273 87 273 112 c 128,-1,27
 273 137 273 137 249 155 c 128,-1,28
 225 173 225 173 191 187 c 128,-1,29
 157 201 157 201 123 217.5 c 128,-1,30
 89 234 89 234 65 264 c 128,-1,31
 41 294 41 294 41 335 c 0,32,33
 41 399 41 399 84.5 433.5 c 128,-1,34
 128 468 128 468 195 468 c 128,-1,35
 262 468 262 468 331 438 c 1,36,-1
 306 376 l 1,8,9
EndSplineSet
EndChar

StartChar: uni0162
Encoding: 354 354 291
Width: 492
GlyphClass: 2
Flags: W
LayerCount: 2
Fore
SplineSet
5 615 m 1,0,-1
 5 691 l 1,1,-1
 487 691 l 1,2,-1
 487 615 l 1,3,-1
 289 615 l 1,4,-1
 289 0 l 1,5,-1
 203 0 l 1,6,-1
 203 615 l 1,7,-1
 5 615 l 1,0,-1
344 -143 m 0,8,9
 344 -188 344 -188 312 -215 c 128,-1,10
 280 -242 280 -242 233.5 -242 c 128,-1,11
 187 -242 187 -242 143 -215 c 1,12,-1
 159 -175 l 1,13,14
 189 -195 189 -195 217.5 -195 c 128,-1,15
 246 -195 246 -195 263.5 -178.5 c 128,-1,16
 281 -162 281 -162 281 -140.5 c 128,-1,17
 281 -119 281 -119 262 -102.5 c 128,-1,18
 243 -86 243 -86 207 -83 c 1,19,-1
 198 -70 l 1,20,-1
 230 8 l 1,21,-1
 265 8 l 1,22,-1
 254 -47 l 1,23,24
 344 -77 344 -77 344 -143 c 0,8,9
EndSplineSet
EndChar

